<svg width="1398" height="192" viewBox="0 0 1398 192" fill="none" xmlns="http://www.w3.org/2000/svg">
<g opacity="0.53">
<path d="M64.0453 22.6001C58.2507 22.6001 52.7386 23.7307 47.5093 25.9921C42.4213 28.2534 37.9693 31.2921 34.1533 35.1081C30.3373 38.9241 27.2986 43.4467 25.0373 48.6761C22.776 53.7641 21.6453 59.2761 21.6453 65.2121C21.6453 71.0067 22.776 76.5188 25.0373 81.7481C27.2986 86.8361 30.3373 91.2881 34.1533 95.1041C37.9693 98.9201 42.4213 101.959 47.5093 104.22C52.7386 106.481 58.2507 107.612 64.0453 107.612C70.9707 107.612 77.472 106.057 83.5493 102.948C89.768 99.6974 94.856 95.2454 98.8133 89.5921L116.197 101.888C110.403 110.085 102.983 116.587 93.9373 121.392C84.7507 126.339 74.7867 128.812 64.0453 128.812C55.5653 128.812 47.4386 127.187 39.6653 123.936C32.0333 120.827 25.1786 116.233 19.1013 110.156C13.024 104.079 8.35998 97.2241 5.10931 89.5921C1.99998 81.8187 0.445312 73.6921 0.445312 65.2121C0.445312 56.5907 1.99998 48.4641 5.10931 40.8321C8.35998 33.0587 13.024 26.1334 19.1013 20.0561C25.1786 13.9787 32.0333 9.38542 39.6653 6.27608C47.4386 3.02541 55.5653 1.40008 64.0453 1.40008H137.821V22.6001H64.0453Z" fill="white"/>
<path d="M276.174 1.40008V22.6001H238.227L238.439 22.8121H190.738C184.944 22.8121 179.432 23.9427 174.202 26.2041C169.114 28.4654 164.662 31.5041 160.846 35.3201C157.03 39.1361 153.992 43.6588 151.73 48.8881C149.61 53.9761 148.551 59.4881 148.551 65.4241C148.551 71.2187 149.681 76.7307 151.943 81.9601C154.204 87.0481 157.243 91.5001 161.059 95.3161C164.875 99.1321 169.327 102.171 174.415 104.432C179.644 106.693 185.156 107.824 190.951 107.824C196.886 107.824 202.398 106.693 207.486 104.432C212.716 102.171 217.239 99.1321 221.055 95.3161C224.871 91.5001 227.909 87.0481 230.171 81.9601C232.432 76.7307 233.562 71.2187 233.562 65.4241C233.562 59.0641 232.291 53.1987 229.747 47.8281C227.203 42.3161 223.669 37.5814 219.146 33.6241H246.283C251.936 43.3761 254.763 53.9761 254.763 65.4241C254.763 73.9041 253.137 82.0308 249.887 89.8041C246.777 97.4361 242.184 104.291 236.107 110.368C230.029 116.445 223.104 121.039 215.331 124.148C207.699 127.399 199.572 129.024 190.951 129.024C182.47 129.024 174.344 127.399 166.57 124.148C158.938 121.039 152.084 116.445 146.007 110.368C139.929 104.291 135.265 97.4361 132.014 89.8041C128.905 82.0308 127.351 73.9041 127.351 65.4241C127.351 56.8027 128.905 48.6761 132.014 41.0441C135.265 33.2707 139.929 26.3454 146.007 20.2681C151.801 14.4734 158.373 10.0214 165.723 6.91208C173.072 3.66141 180.775 1.89474 188.831 1.61208V1.40008H276.174Z" fill="white"/>
<path d="M416.157 1.61208V22.8121H405.557C402.731 22.8121 400.328 23.8014 398.349 25.7801C396.371 27.7587 395.381 30.1614 395.381 32.9881V128.388H374.181V61.8201C373.899 57.1561 372.839 52.7747 371.001 48.6761C369.164 44.4361 366.761 40.6201 363.793 37.2281C360.967 33.8361 357.575 31.0094 353.617 28.7481C349.801 26.3454 345.703 24.5787 341.321 23.4481V128.176V128.6H320.121V61.6081C319.839 56.9441 318.779 52.5627 316.941 48.4641C315.104 44.2241 312.701 40.4081 309.733 37.0161C306.907 33.6241 303.515 30.7974 299.557 28.5361C295.741 26.1334 291.643 24.3667 287.261 23.2361V128.388H266.061V1.61208H266.273V0.976074H277.721C280.831 0.976074 283.869 1.18808 286.837 1.61208H287.261C299.699 3.59075 310.652 8.74941 320.121 17.0881V1.82408H320.333V1.18808H331.781C334.891 1.18808 337.929 1.40008 340.897 1.82408H341.321C355.031 3.94408 366.832 9.95074 376.725 19.8441C376.867 19.8441 376.937 19.9147 376.937 20.0561C379.481 14.6854 383.297 10.3041 388.385 6.91208C393.473 3.37875 399.197 1.61208 405.557 1.61208H416.157Z" fill="white"/>
<path d="M455.001 22.6001H426.593V128.6H405.393V22.6001V1.40008H426.593H455.001V22.6001Z" fill="white"/>
<path d="M443.699 129.024V63.9401C443.699 54.6121 445.607 45.9907 449.423 38.0761C453.239 30.1614 458.398 23.3067 464.899 17.5121V17.7241C470.27 12.7774 476.277 8.96141 482.919 6.27608C489.703 3.44941 496.77 1.89474 504.119 1.61208V1.40008H591.675V22.6001H554.787C560.017 28.3947 563.974 34.8254 566.659 41.8921C569.486 48.9587 570.97 56.3081 571.111 63.9401V128.388H549.911V64.3641C549.77 58.5694 548.569 53.1281 546.307 48.0401C544.046 42.9521 541.007 38.5707 537.191 34.8961C533.375 31.0801 528.853 28.1121 523.623 25.9921C518.535 23.7307 513.094 22.6001 507.299 22.6001C501.505 22.6001 495.993 23.7307 490.763 25.9921C485.675 28.2534 481.223 31.2921 477.407 35.1081C473.591 38.9241 470.553 43.4467 468.291 48.6761C466.03 53.7641 464.899 59.2761 464.899 65.2121L464.687 129.024H443.699Z" fill="white"/>
<path d="M645.803 0.976074C653.859 0.976074 661.491 2.38941 668.699 5.21608C675.907 7.90142 682.479 11.9294 688.415 17.3001V0.976074H735.055V21.7521H709.615V22.1761V128.176C709.615 136.656 707.99 144.712 704.739 152.344C701.63 160.117 697.036 167.043 690.959 173.12C684.882 179.197 677.956 183.791 670.183 186.9C662.551 190.151 654.424 191.776 645.803 191.776V170.576C651.739 170.576 657.251 169.445 662.339 167.184C667.568 164.923 672.091 161.884 675.907 158.068C679.723 154.252 682.762 149.729 685.023 144.5C687.284 139.412 688.415 133.971 688.415 128.176V64.7881V64.3641C688.415 58.4281 687.284 52.9161 685.023 47.8281C682.762 42.5987 679.723 38.0761 675.907 34.2601C672.091 30.4441 667.568 27.4054 662.339 25.1441C657.251 22.8827 651.739 21.7521 645.803 21.7521C640.008 21.7521 634.496 22.8827 629.267 25.1441C624.179 27.4054 619.727 30.4441 615.911 34.2601C612.095 38.0761 609.056 42.5987 606.795 47.8281C604.534 52.9161 603.403 58.4281 603.403 64.3641V64.5761V64.7881C603.403 70.5827 604.534 76.0947 606.795 81.3241C609.056 86.4121 612.095 90.8641 615.911 94.6801C619.727 98.4961 624.179 101.535 629.267 103.796C634.496 106.057 640.008 107.188 645.803 107.188C652.163 107.188 658.099 105.916 663.611 103.372C669.123 100.828 673.858 97.2948 677.815 92.7721V119.908C668.063 125.561 657.392 128.388 645.803 128.388C640.998 128.388 635.98 127.823 630.751 126.692C630.751 126.551 630.751 126.48 630.751 126.48C630.892 126.48 630.963 126.409 630.963 126.268C619.374 123.441 609.339 117.788 600.859 109.308C594.782 103.372 590.118 96.5881 586.867 88.9561C583.758 81.1827 582.203 73.0561 582.203 64.5761C582.203 56.6614 583.546 49.1707 586.231 42.1041C589.058 35.0374 593.015 28.5361 598.103 22.6001C598.386 22.1761 598.739 21.7521 599.163 21.3281C599.446 21.0454 599.728 20.6921 600.011 20.2681C600.294 19.8441 600.576 19.4907 600.859 19.2081C605.664 14.4028 611.035 10.5161 616.971 7.54808C622.907 4.58007 629.196 2.53074 635.839 1.40008H639.019C640.15 1.25875 641.28 1.18808 642.411 1.18808C643.542 1.04674 644.672 0.976074 645.803 0.976074Z" fill="white"/>
<path d="M924.512 127.964H832.292V106.764H924.512C928.752 106.764 932.356 105.28 935.324 102.312C938.433 99.2027 939.988 95.5281 939.988 91.2881C939.988 86.9067 938.433 83.2321 935.324 80.2641C932.356 77.1548 928.752 75.6001 924.512 75.6001L868.968 75.3881C863.88 75.3881 859.075 74.4694 854.552 72.6321C850.171 70.6534 846.284 68.0387 842.892 64.7881C839.641 61.3961 837.027 57.5094 835.048 53.1281C833.211 48.6054 832.292 43.8001 832.292 38.7121C832.292 33.6241 833.211 28.8894 835.048 24.5081C837.027 19.9854 839.641 16.0281 842.892 12.6361C846.284 9.24408 850.171 6.62941 854.552 4.79208C859.075 2.81341 863.88 1.82408 868.968 1.82408H981.328V23.0241H868.968C864.728 23.0241 861.053 24.5787 857.944 27.6881C854.976 30.6561 853.492 34.3307 853.492 38.7121C853.492 42.9521 854.976 46.6267 857.944 49.7361C861.053 52.7041 864.728 54.1881 868.968 54.1881H869.18L924.512 54.4001C929.6 54.4001 934.335 55.3894 938.716 57.3681C943.239 59.2054 947.125 61.8201 950.376 65.2121C953.768 68.6041 956.383 72.5614 958.22 77.0841C960.199 81.4654 961.188 86.2001 961.188 91.2881C961.188 96.3761 960.199 101.181 958.22 105.704C956.383 110.085 953.768 113.972 950.376 117.364C947.125 120.615 943.239 123.159 938.716 124.996C934.335 126.975 929.6 127.964 924.512 127.964Z" fill="white"/>
<path d="M1120.24 1.40008V22.6001H1082.29L1082.5 22.8121H1034.8C1029.01 22.8121 1023.5 23.9427 1018.27 26.2041C1013.18 28.4654 1008.73 31.5041 1004.91 35.3201C1001.1 39.1361 998.058 43.6588 995.797 48.8881C993.677 53.9761 992.617 59.4881 992.617 65.4241C992.617 71.2187 993.748 76.7307 996.009 81.9601C998.27 87.0481 1001.31 91.5001 1005.12 95.3161C1008.94 99.1321 1013.39 102.171 1018.48 104.432C1023.71 106.693 1029.22 107.824 1035.02 107.824C1040.95 107.824 1046.46 106.693 1051.55 104.432C1056.78 102.171 1061.3 99.1321 1065.12 95.3161C1068.94 91.5001 1071.98 87.0481 1074.24 81.9601C1076.5 76.7307 1077.63 71.2187 1077.63 65.4241C1077.63 59.0641 1076.36 53.1987 1073.81 47.8281C1071.27 42.3161 1067.74 37.5814 1063.21 33.6241H1090.35C1096 43.3761 1098.83 53.9761 1098.83 65.4241C1098.83 73.9041 1097.2 82.0308 1093.95 89.8041C1090.84 97.4361 1086.25 104.291 1080.17 110.368C1074.1 116.445 1067.17 121.039 1059.4 124.148C1051.76 127.399 1043.64 129.024 1035.02 129.024C1026.54 129.024 1018.41 127.399 1010.64 124.148C1003 121.039 996.15 116.445 990.073 110.368C983.996 104.291 979.332 97.4361 976.081 89.8041C972.972 82.0308 971.417 73.9041 971.417 65.4241C971.417 56.8027 972.972 48.6761 976.081 41.0441C979.332 33.2707 983.996 26.3454 990.073 20.2681C995.868 14.4734 1002.44 10.0214 1009.79 6.91208C1017.14 3.66141 1024.84 1.89474 1032.9 1.61208V1.40008H1120.24Z" fill="white"/>
<path d="M1258.95 1.40008V22.6001H1221L1221.22 22.8121H1173.52C1167.72 22.8121 1162.21 23.9427 1156.98 26.2041C1151.89 28.4654 1147.44 31.5041 1143.62 35.3201C1139.81 39.1361 1136.77 43.6588 1134.51 48.8881C1132.39 53.9761 1131.33 59.4881 1131.33 65.4241C1131.33 71.2187 1132.46 76.7307 1134.72 81.9601C1136.98 87.0481 1140.02 91.5001 1143.84 95.3161C1147.65 99.1321 1152.1 102.171 1157.19 104.432C1162.42 106.693 1167.93 107.824 1173.73 107.824C1179.66 107.824 1185.18 106.693 1190.26 104.432C1195.49 102.171 1200.02 99.1321 1203.83 95.3161C1207.65 91.5001 1210.69 87.0481 1212.95 81.9601C1215.21 76.7307 1216.34 71.2187 1216.34 65.4241C1216.34 59.0641 1215.07 53.1987 1212.52 47.8281C1209.98 42.3161 1206.45 37.5814 1201.92 33.6241H1229.06C1234.71 43.3761 1237.54 53.9761 1237.54 65.4241C1237.54 73.9041 1235.91 82.0308 1232.66 89.8041C1229.55 97.4361 1224.96 104.291 1218.88 110.368C1212.81 116.445 1205.88 121.039 1198.11 124.148C1190.48 127.399 1182.35 129.024 1173.73 129.024C1165.25 129.024 1157.12 127.399 1149.35 124.148C1141.72 121.039 1134.86 116.445 1128.78 110.368C1122.71 104.291 1118.04 97.4361 1114.79 89.8041C1111.68 82.0308 1110.13 73.9041 1110.13 65.4241C1110.13 56.8027 1111.68 48.6761 1114.79 41.0441C1118.04 33.2707 1122.71 26.3454 1128.78 20.2681C1134.58 14.4734 1141.15 10.0214 1148.5 6.91208C1155.85 3.66141 1163.55 1.89474 1171.61 1.61208V1.40008H1258.95Z" fill="white"/>
<path d="M1249.05 129.024V63.9401C1249.05 54.6121 1250.96 45.9907 1254.77 38.0761C1258.59 30.1614 1263.75 23.3067 1270.25 17.5121V17.7241C1275.62 12.7774 1281.63 8.96141 1288.27 6.27608C1295.05 3.44941 1302.12 1.89474 1309.47 1.61208V1.40008H1397.03V22.6001H1360.14C1365.37 28.3947 1369.33 34.8254 1372.01 41.8921C1374.84 48.9587 1376.32 56.3081 1376.46 63.9401V128.388H1355.26V64.3641C1355.12 58.5694 1353.92 53.1281 1351.66 48.0401C1349.4 42.9521 1346.36 38.5707 1342.54 34.8961C1338.73 31.0801 1334.2 28.1121 1328.97 25.9921C1323.89 23.7307 1318.45 22.6001 1312.65 22.6001C1306.86 22.6001 1301.34 23.7307 1296.11 25.9921C1291.03 28.2534 1286.57 31.2921 1282.76 35.1081C1278.94 38.9241 1275.9 43.4467 1273.64 48.6761C1271.38 53.7641 1270.25 59.2761 1270.25 65.2121L1270.04 129.024H1249.05Z" fill="white"/>
</g>
</svg>
