<svg width="9" height="11" viewBox="0 0 9 11" fill="none" xmlns="http://www.w3.org/2000/svg">
<path d="M8.99831 5.49137C8.99864 5.30811 8.94054 5.13051 8.83411 4.98939L5.26453 0.283345C5.14335 0.12317 4.96921 0.022441 4.78044 0.00331894C4.59166 -0.0158031 4.4037 0.0482477 4.2579 0.181381C4.11211 0.314514 4.02043 0.505824 4.00302 0.713224C3.98562 0.920625 4.04392 1.12713 4.16509 1.2873L7.36344 5.49137L4.27932 9.69544C4.22002 9.77567 4.17573 9.86799 4.14901 9.96708C4.12229 10.0662 4.11365 10.1701 4.12361 10.2729C4.13356 10.3756 4.1619 10.4752 4.207 10.5659C4.2521 10.6566 4.31307 10.7366 4.38641 10.8014C4.45981 10.8732 4.54593 10.9276 4.63937 10.9612C4.7328 10.9947 4.83153 11.0067 4.92938 10.9964C5.02724 10.9861 5.1221 10.9537 5.20802 10.9013C5.29395 10.8488 5.36908 10.7774 5.42873 10.6916L8.87695 5.98551C8.96655 5.84034 9.00928 5.66636 8.99831 5.49137Z" fill="#5A2230"/>
<path d="M4.99831 5.49137C4.99864 5.30811 4.94054 5.13051 4.83411 4.98939L1.26453 0.283345C1.14335 0.12317 0.969215 0.022441 0.780437 0.00331894C0.591658 -0.0158031 0.403698 0.0482477 0.257904 0.181381C0.11211 0.314514 0.0204263 0.505824 0.00302124 0.713224C-0.0143839 0.920625 0.0439152 1.12713 0.165094 1.2873L3.36344 5.49137L0.279322 9.69544C0.220019 9.77567 0.175734 9.86799 0.149011 9.96708C0.122288 10.0662 0.113653 10.1701 0.123605 10.2729C0.133556 10.3756 0.161897 10.4752 0.206998 10.5659C0.252099 10.6566 0.313071 10.7366 0.386409 10.8014C0.459815 10.8732 0.545932 10.9276 0.639365 10.9612C0.732798 10.9947 0.831533 11.0067 0.929385 10.9964C1.02724 10.9861 1.1221 10.9537 1.20802 10.9013C1.29395 10.8488 1.36908 10.7774 1.42873 10.6916L4.87695 5.98551C4.96655 5.84034 5.00928 5.66636 4.99831 5.49137Z" fill="#5A2230"/>
</svg>
