<svg width="32" height="33" viewBox="0 0 32 33" fill="none" xmlns="http://www.w3.org/2000/svg">
<path d="M7 27.1429H11.5V18.5714H20.5V27.1429H25V14.2857L16 7.85714L7 14.2857V27.1429ZM7 30C6.175 30 5.469 29.7205 4.882 29.1614C4.294 28.6014 4 27.9286 4 27.1429V14.2857C4 13.8333 4.1065 13.4048 4.3195 13C4.5315 12.5952 4.825 12.2619 5.2 12L14.2 5.57143C14.475 5.38095 14.7625 5.2381 15.0625 5.14286C15.3625 5.04762 15.675 5 16 5C16.325 5 16.6375 5.04762 16.9375 5.14286C17.2375 5.2381 17.525 5.38095 17.8 5.57143L26.8 12C27.175 12.2619 27.469 12.5952 27.682 13C27.894 13.4048 28 13.8333 28 14.2857V27.1429C28 27.9286 27.7065 28.6014 27.1195 29.1614C26.5315 29.7205 25.825 30 25 30H17.5V21.4286H14.5V30H7Z" fill="#5A2230"/>
</svg>
