<svg width="5" height="12" viewBox="0 0 5 12" fill="none" xmlns="http://www.w3.org/2000/svg">
<path d="M4.99831 5.84782C4.99864 5.66456 4.94054 5.48695 4.83411 5.34584L1.26453 0.639791C1.14335 0.479615 0.969215 0.378886 0.780437 0.359764C0.591658 0.340642 0.403697 0.404693 0.257904 0.537826C0.11211 0.670959 0.020426 0.862269 0.00302095 1.06967C-0.0143841 1.27707 0.0439153 1.48357 0.165095 1.64375L3.36344 5.84782L0.279322 10.0519C0.22002 10.1321 0.175734 10.2244 0.149011 10.3235C0.122288 10.4226 0.113654 10.5265 0.123605 10.6293C0.133557 10.7321 0.161897 10.8317 0.206998 10.9224C0.252099 11.0131 0.313071 11.0931 0.386409 11.1578C0.459815 11.2296 0.545932 11.284 0.639365 11.3176C0.732798 11.3512 0.831533 11.3632 0.929385 11.3529C1.02724 11.3426 1.1221 11.3102 1.20802 11.2577C1.29395 11.2052 1.36908 11.1338 1.42873 11.048L4.87695 6.34195C4.96655 6.19678 5.00928 6.02281 4.99831 5.84782Z" fill="#5A2230"/>
</svg>
