<svg width="32" height="33" viewBox="0 0 32 33" fill="none" xmlns="http://www.w3.org/2000/svg">
<g clip-path="url(#clip0_483_1807)">
<path d="M6.09618 26.8873C11.5659 32.357 20.4341 32.357 25.9038 26.8873C31.3736 21.4175 31.3736 12.5493 25.9038 7.07961C20.4341 1.60988 11.5659 1.60988 6.09617 7.07961C0.626442 12.5493 0.626443 21.4175 6.09618 26.8873Z" stroke="#5A2230" stroke-width="2.5" stroke-linecap="round" stroke-linejoin="round"/>
<path d="M11.7555 21.2279C14.0997 23.572 17.9003 23.572 20.2445 21.2279C22.5887 18.8837 22.5887 15.0831 20.2445 12.7389C17.9003 10.3947 14.0997 10.3947 11.7555 12.7389C9.41133 15.0831 9.41133 18.8837 11.7555 21.2279Z" stroke="#5A2230" stroke-width="2.5" stroke-linecap="round" stroke-linejoin="round"/>
<path d="M21.417 14.3966L28.3573 10.3896" stroke="#5A2230" stroke-width="2.5" stroke-linecap="round" stroke-linejoin="round"/>
<path d="M18.5869 11.5667L22.5939 4.62646" stroke="#5A2230" stroke-width="2.5" stroke-linecap="round" stroke-linejoin="round"/>
<path d="M10.5838 19.5703L3.64355 23.5773" stroke="#5A2230" stroke-width="2.5" stroke-linecap="round" stroke-linejoin="round"/>
<path d="M13.4132 22.4001L9.40625 29.3404" stroke="#5A2230" stroke-width="2.5" stroke-linecap="round" stroke-linejoin="round"/>
<path d="M18.5869 22.4001L22.5939 29.3404" stroke="#5A2230" stroke-width="2.5" stroke-linecap="round" stroke-linejoin="round"/>
<path d="M21.417 19.5703L28.3573 23.5773" stroke="#5A2230" stroke-width="2.5" stroke-linecap="round" stroke-linejoin="round"/>
<path d="M13.4132 11.5667L9.40625 4.62646" stroke="#5A2230" stroke-width="2.5" stroke-linecap="round" stroke-linejoin="round"/>
<path d="M10.5838 14.3966L3.64355 10.3896" stroke="#5A2230" stroke-width="2.5" stroke-linecap="round" stroke-linejoin="round"/>
</g>
<defs>
<clipPath id="clip0_483_1807">
<rect width="32" height="32" fill="white" transform="translate(0 0.983643)"/>
</clipPath>
</defs>
</svg>
