<svg width="24" height="24" viewBox="0 0 24 24" fill="none" xmlns="http://www.w3.org/2000/svg">
<g opacity="0.3">
<path d="M9.28987 21.0002C8.46369 20.9962 7.64656 20.8279 6.88602 20.5052C6.12548 20.1824 5.43674 19.7116 4.85987 19.1202C4.28734 18.5775 3.82743 17.9273 3.50646 17.2067C3.18548 16.4861 3.00975 15.7093 2.98932 14.9208C2.96888 14.1322 3.10415 13.3474 3.38737 12.6111C3.67059 11.8749 4.09621 11.2017 4.63987 10.6302L11.9999 3.20016C12.3929 2.80783 12.8614 2.49923 13.377 2.29298C13.8926 2.08674 14.4447 1.98712 14.9999 2.00016C15.5946 2.00218 16.1829 2.12259 16.7306 2.35437C17.2783 2.58615 17.7744 2.92466 18.1899 3.35016C19.0169 4.14639 19.4965 5.23667 19.5245 6.38433C19.5526 7.53199 19.1269 8.64442 18.3399 9.48015L10.9399 16.9102C10.7029 17.1488 10.4208 17.3379 10.1101 17.4667C9.79939 17.5954 9.4662 17.6612 9.12987 17.6602C8.76655 17.6606 8.40681 17.5883 8.07189 17.4475C7.73698 17.3067 7.43367 17.1001 7.17987 16.8402C6.6726 16.349 6.37965 15.6775 6.36467 14.9716C6.34969 14.2657 6.61389 13.5824 7.09987 13.0702L13.9299 6.21016C14.1243 6.08106 14.3577 6.024 14.5897 6.04887C14.8217 6.07374 15.0377 6.17896 15.2003 6.34632C15.3629 6.51367 15.4619 6.73263 15.4801 6.96526C15.4983 7.1979 15.4345 7.42957 15.2999 7.62016L8.46987 14.4802C8.35598 14.6174 8.30055 14.7938 8.31551 14.9715C8.33047 15.1492 8.41464 15.3139 8.54987 15.4302C8.69059 15.5718 8.88028 15.6542 9.07987 15.6602C9.15381 15.6612 9.22722 15.6476 9.29588 15.6202C9.36453 15.5927 9.42706 15.5519 9.47987 15.5002L16.8699 8.07016C17.2847 7.60934 17.5015 7.00379 17.4734 6.38441C17.4454 5.76502 17.1747 5.18157 16.7199 4.76016C16.2975 4.3216 15.723 4.06162 15.1148 4.03371C14.5065 4.00581 13.9107 4.21211 13.4499 4.61016L6.05987 12.0002C5.70052 12.3861 5.42103 12.8394 5.2375 13.3337C5.05397 13.8281 4.97001 14.354 4.99046 14.8809C5.0109 15.4079 5.13535 15.9256 5.35664 16.4043C5.57793 16.883 5.89169 17.3132 6.27987 17.6702C6.66915 18.0737 7.13494 18.3956 7.65004 18.6171C8.16513 18.8386 8.7192 18.9552 9.27987 18.9602C9.76329 18.9641 10.2427 18.8725 10.6906 18.6905C11.1385 18.5086 11.5461 18.24 11.8899 17.9002L19.2799 10.4702C19.3725 10.3769 19.4825 10.3028 19.6037 10.2521C19.7249 10.2014 19.8549 10.1751 19.9863 10.1746C20.1177 10.1741 20.2479 10.1996 20.3695 10.2494C20.4911 10.2993 20.6016 10.3726 20.6949 10.4652C20.7881 10.5577 20.8622 10.6678 20.9129 10.789C20.9636 10.9102 20.99 11.0402 20.9904 11.1716C20.9909 11.303 20.9655 11.4332 20.9156 11.5548C20.8658 11.6764 20.7925 11.7869 20.6999 11.8802L13.3099 19.3102C12.7852 19.8441 12.1596 20.2685 11.4695 20.5586C10.7794 20.8487 10.0385 20.9988 9.28987 21.0002Z" fill="black"/>
</g>
</svg>
