<svg width="32" height="33" viewBox="0 0 32 33" fill="none" xmlns="http://www.w3.org/2000/svg">
<path d="M5.72315 23.9412V23.0618C5.72315 22.6018 5.941 22.1688 6.28139 21.9659C8.58245 20.5994 11.2103 19.8824 13.8926 19.8824C13.9334 19.8824 13.9607 19.8824 14.0015 19.8959C14.1377 18.9488 14.41 18.0424 14.8048 17.2171C14.5053 17.19 14.2057 17.1765 13.8926 17.1765C10.5976 17.1765 7.52042 18.0829 4.89259 19.6388C3.6944 20.3424 3 21.6682 3 23.0618V26.6471H15.6082C15.0363 25.8353 14.587 24.9153 14.2874 23.9412H5.72315ZM13.8926 15.8235C16.9017 15.8235 19.3389 13.4018 19.3389 10.4118C19.3389 7.42176 16.9017 5 13.8926 5C10.8835 5 8.44629 7.42176 8.44629 10.4118C8.44629 13.4018 10.8835 15.8235 13.8926 15.8235ZM13.8926 7.70588C15.3903 7.70588 16.6157 8.92353 16.6157 10.4118C16.6157 11.9 15.3903 13.1176 13.8926 13.1176C12.3949 13.1176 11.1694 11.9 11.1694 10.4118C11.1694 8.92353 12.3949 7.70588 13.8926 7.70588ZM28.5295 21.2353C28.5295 20.9376 28.4887 20.6671 28.4478 20.3829L30 19.0165L28.6384 16.6759L26.6641 17.3388C26.2284 16.9735 25.7383 16.6894 25.1936 16.4865L24.7852 14.4706H22.062L21.6536 16.4865C21.1089 16.6894 20.6188 16.9735 20.1831 17.3388L18.2088 16.6759L16.8472 19.0165L18.3994 20.3829C18.3585 20.6671 18.3177 20.9376 18.3177 21.2353C18.3177 21.5329 18.3585 21.8035 18.3994 22.0876L16.8472 23.4541L18.2088 25.7947L20.1831 25.1318C20.6188 25.4971 21.1089 25.7812 21.6536 25.9841L22.062 28H24.7852L25.1936 25.9841C25.7383 25.7812 26.2284 25.4971 26.6641 25.1318L28.6384 25.7947L30 23.4541L28.4478 22.0876C28.4887 21.8035 28.5295 21.5329 28.5295 21.2353ZM23.4236 23.9412C21.9259 23.9412 20.7005 22.7235 20.7005 21.2353C20.7005 19.7471 21.9259 18.5294 23.4236 18.5294C24.9213 18.5294 26.1467 19.7471 26.1467 21.2353C26.1467 22.7235 24.9213 23.9412 23.4236 23.9412Z" fill="#5A2230"/>
</svg>
