<svg width="24" height="25" viewBox="0 0 24 25" fill="none" xmlns="http://www.w3.org/2000/svg">
<path d="M10.6 14.7673L8.425 12.5923C8.24167 12.409 8.01267 12.3216 7.738 12.3303C7.46267 12.3383 7.23333 12.434 7.05 12.6173C6.86667 12.8006 6.775 13.034 6.775 13.3173C6.775 13.6006 6.86667 13.834 7.05 14.0173L9.9 16.8673C10.0833 17.0506 10.3167 17.1423 10.6 17.1423C10.8833 17.1423 11.1167 17.0506 11.3 16.8673L16.975 11.1923C17.1583 11.009 17.246 10.7796 17.238 10.5043C17.2293 10.2296 17.1333 10.0006 16.95 9.81729C16.7667 9.63395 16.5333 9.54228 16.25 9.54228C15.9667 9.54228 15.7333 9.63395 15.55 9.81729L10.6 14.7673ZM12 22.9673C10.6167 22.9673 9.31667 22.7046 8.1 22.1793C6.88333 21.6546 5.825 20.9423 4.925 20.0423C4.025 19.1423 3.31267 18.084 2.788 16.8673C2.26267 15.6506 2 14.3506 2 12.9673C2 11.584 2.26267 10.284 2.788 9.06729C3.31267 7.85062 4.025 6.79229 4.925 5.89229C5.825 4.99229 6.88333 4.27962 8.1 3.75429C9.31667 3.22962 10.6167 2.96729 12 2.96729C13.3833 2.96729 14.6833 3.22962 15.9 3.75429C17.1167 4.27962 18.175 4.99229 19.075 5.89229C19.975 6.79229 20.6873 7.85062 21.212 9.06729C21.7373 10.284 22 11.584 22 12.9673C22 14.3506 21.7373 15.6506 21.212 16.8673C20.6873 18.084 19.975 19.1423 19.075 20.0423C18.175 20.9423 17.1167 21.6546 15.9 22.1793C14.6833 22.7046 13.3833 22.9673 12 22.9673ZM12 20.9673C14.2167 20.9673 16.1043 20.1883 17.663 18.6303C19.221 17.0716 20 15.184 20 12.9673C20 10.7506 19.221 8.86295 17.663 7.30429C16.1043 5.74629 14.2167 4.96729 12 4.96729C9.78333 4.96729 7.896 5.74629 6.338 7.30429C4.77933 8.86295 4 10.7506 4 12.9673C4 15.184 4.77933 17.0716 6.338 18.6303C7.896 20.1883 9.78333 20.9673 12 20.9673Z" fill="#128807"/>
</svg>
