<svg width="24" height="25" viewBox="0 0 24 25" fill="none" xmlns="http://www.w3.org/2000/svg">
<path d="M18.75 10.7173C18.75 8.92707 18.0388 7.21018 16.773 5.94431C15.5071 4.67844 13.7902 3.96729 12 3.96729C10.2098 3.96729 8.4929 4.67844 7.22703 5.94431C5.96116 7.21018 5.25 8.92707 5.25 10.7173C5.25 13.4863 7.4655 17.0953 12 21.4183C16.5345 17.0953 18.75 13.4863 18.75 10.7173ZM12 23.4673C6.4995 18.4678 3.75 14.2168 3.75 10.7173C3.75 8.52925 4.61919 6.43083 6.16637 4.88365C7.71354 3.33648 9.81196 2.46729 12 2.46729C14.188 2.46729 16.2865 3.33648 17.8336 4.88365C19.3808 6.43083 20.25 8.52925 20.25 10.7173C20.25 14.2168 17.5005 18.4678 12 23.4673Z" fill="#94A2AB"/>
<path d="M12 12.9673C12.5967 12.9673 13.169 12.7302 13.591 12.3083C14.0129 11.8863 14.25 11.314 14.25 10.7173C14.25 10.1205 14.0129 9.54825 13.591 9.12629C13.169 8.70434 12.5967 8.46729 12 8.46729C11.4033 8.46729 10.831 8.70434 10.409 9.12629C9.98705 9.54825 9.75 10.1205 9.75 10.7173C9.75 11.314 9.98705 11.8863 10.409 12.3083C10.831 12.7302 11.4033 12.9673 12 12.9673V12.9673ZM12 14.4673C11.0054 14.4673 10.0516 14.0722 9.34835 13.3689C8.64509 12.6657 8.25 11.7118 8.25 10.7173C8.25 9.72272 8.64509 8.7689 9.34835 8.06563C10.0516 7.36237 11.0054 6.96729 12 6.96729C12.9946 6.96729 13.9484 7.36237 14.6517 8.06563C15.3549 8.7689 15.75 9.72272 15.75 10.7173C15.75 11.7118 15.3549 12.6657 14.6517 13.3689C13.9484 14.0722 12.9946 14.4673 12 14.4673Z" fill="#94A2AB"/>
</svg>
