<svg width="5" height="11" viewBox="0 0 5 11" fill="none" xmlns="http://www.w3.org/2000/svg">
<path d="M0.00168902 5.49137C0.00136311 5.30811 0.059458 5.13051 0.16589 4.98939L3.73547 0.283345C3.85665 0.12317 4.03079 0.022441 4.21956 0.00331894C4.40834 -0.0158031 4.5963 0.0482477 4.7421 0.181381C4.88789 0.314514 4.97957 0.505824 4.99698 0.713224C5.01438 0.920625 4.95608 1.12713 4.83491 1.2873L1.63656 5.49137L4.72068 9.69544C4.77998 9.77567 4.82427 9.86799 4.85099 9.96708C4.87771 10.0662 4.88635 10.1701 4.87639 10.2729C4.86644 10.3756 4.8381 10.4752 4.793 10.5659C4.7479 10.6566 4.68693 10.7366 4.61359 10.8014C4.54019 10.8732 4.45407 10.9276 4.36063 10.9612C4.2672 10.9947 4.16847 11.0067 4.07062 10.9964C3.97276 10.9861 3.8779 10.9537 3.79198 10.9013C3.70605 10.8488 3.63092 10.7774 3.57127 10.6916L0.123055 5.98551C0.0334469 5.84034 -0.00928448 5.66636 0.00168902 5.49137V5.49137Z" fill="#5A2230"/>
</svg>
