<svg width="22" height="23" viewBox="0 0 22 23" fill="none" xmlns="http://www.w3.org/2000/svg">
<path d="M19.5105 7.68321L14.0556 6.89044L11.6171 1.94688C11.5505 1.81153 11.4409 1.70196 11.3056 1.63536C10.9661 1.46778 10.5536 1.60743 10.3839 1.94688L7.94544 6.89044L2.49055 7.68321C2.34016 7.7047 2.20266 7.77559 2.09739 7.88302C1.97012 8.01383 1.89999 8.18981 1.9024 8.37231C1.90482 8.5548 1.97959 8.72886 2.11028 8.85626L6.05696 12.7041L5.12454 18.1375C5.10267 18.2639 5.11666 18.3939 5.16491 18.5127C5.21316 18.6316 5.29375 18.7345 5.39754 18.8099C5.50132 18.8853 5.62415 18.9301 5.75209 18.9392C5.88004 18.9483 6.00798 18.9214 6.12141 18.8615L11.0005 16.2963L15.8796 18.8615C16.0128 18.9324 16.1675 18.9561 16.3158 18.9303C16.6896 18.8658 16.9409 18.5113 16.8765 18.1375L15.9441 12.7041L19.8907 8.85626C19.9982 8.75099 20.0691 8.61348 20.0906 8.46309C20.1486 8.08712 19.8865 7.73907 19.5105 7.68321Z" fill="url(#paint0_linear_269_7314)"/>
<defs>
<linearGradient id="paint0_linear_269_7314" x1="1.7151" y1="-3.43161" x2="20.7403" y2="-3.12006" gradientUnits="userSpaceOnUse">
<stop stop-color="#D2611A"/>
<stop offset="1" stop-color="#D29971"/>
</linearGradient>
</defs>
</svg>
