<svg width="48" height="49" viewBox="0 0 48 49" fill="none" xmlns="http://www.w3.org/2000/svg">
<path d="M13.032 29.6133L10.052 42.5173C9.95971 42.908 9.98742 43.3175 10.1315 43.6923C10.2755 44.067 10.5293 44.3896 10.8595 44.6179C11.1898 44.8462 11.5812 44.9696 11.9827 44.972C12.3842 44.9744 12.777 44.8557 13.11 44.6313L24 37.3713L34.89 44.6313C35.2307 44.8575 35.6324 44.9739 36.0413 44.965C36.4501 44.956 36.8464 44.822 37.1768 44.5811C37.5072 44.3402 37.7559 44.0039 37.8895 43.6174C38.0231 43.2309 38.0351 42.8128 37.924 42.4193L34.266 29.6193L43.338 21.4553C43.6285 21.1937 43.836 20.8526 43.9348 20.4743C44.0336 20.096 44.0193 19.6971 43.8938 19.3268C43.7682 18.9565 43.5369 18.6311 43.2284 18.3909C42.9199 18.1507 42.5478 18.0062 42.158 17.9753L30.756 17.0673L25.822 6.14529C25.6647 5.7936 25.4089 5.49496 25.0856 5.28541C24.7623 5.07586 24.3853 4.96436 24 4.96436C23.6147 4.96436 23.2377 5.07586 22.9144 5.28541C22.5911 5.49496 22.3353 5.7936 22.178 6.14529L17.244 17.0673L5.84199 17.9733C5.4589 18.0036 5.09267 18.1437 4.7871 18.3768C4.48154 18.6098 4.24958 18.9259 4.11898 19.2874C3.98838 19.6488 3.96467 20.0402 4.05068 20.4147C4.1367 20.7892 4.32879 21.1311 4.60399 21.3993L13.032 29.6133ZM18.738 20.9613C19.095 20.9332 19.4378 20.8095 19.7306 20.6033C20.0234 20.3971 20.2553 20.1159 20.402 19.7893L24 11.8273L27.598 19.7893C27.7447 20.1159 27.9766 20.3971 28.2694 20.6033C28.5622 20.8095 28.905 20.9332 29.262 20.9613L37.206 21.5913L30.664 27.4793C30.096 27.9913 29.87 28.7793 30.078 29.5153L32.584 38.2853L25.112 33.3033C24.784 33.0832 24.398 32.9656 24.003 32.9656C23.608 32.9656 23.222 33.0832 22.894 33.3033L15.086 38.5093L17.186 29.4173C17.263 29.0829 17.2527 28.7343 17.156 28.4051C17.0593 28.0758 16.8796 27.777 16.634 27.5373L10.558 21.6133L18.738 20.9613Z" fill="url(#paint0_linear_174_2739)"/>
<defs>
<linearGradient id="paint0_linear_174_2739" x1="3.58834" y1="-6.5386" x2="45.4112" y2="-5.88469" gradientUnits="userSpaceOnUse">
<stop stop-color="#D2611A"/>
<stop offset="1" stop-color="#D29971"/>
</linearGradient>
</defs>
</svg>
