<svg width="16" height="18" viewBox="0 0 16 18" fill="none" xmlns="http://www.w3.org/2000/svg">
<g opacity="0.5">
<path d="M12.9978 6.3223L7.99983 11.2008L3.00183 6.3223C2.91253 6.23496 2.79266 6.18606 2.66783 6.18606C2.543 6.18606 2.42313 6.23496 2.33383 6.3223C2.29059 6.36472 2.25624 6.41535 2.23279 6.47123C2.20934 6.52711 2.19727 6.58712 2.19727 6.64773C2.19727 6.70834 2.20934 6.76835 2.23279 6.82423C2.25624 6.88011 2.29059 6.93074 2.33383 6.97316L7.65083 12.1641C7.74421 12.2552 7.86944 12.3062 7.99983 12.3062C8.13022 12.3062 8.25546 12.2552 8.34883 12.1641L13.6658 6.97417C13.7094 6.93171 13.744 6.88096 13.7676 6.82489C13.7912 6.76882 13.8034 6.70859 13.8034 6.64773C13.8034 6.58687 13.7912 6.52664 13.7676 6.47057C13.744 6.4145 13.7094 6.36375 13.6658 6.32129C13.5765 6.23395 13.4567 6.18506 13.3318 6.18506C13.207 6.18506 13.0871 6.23395 12.9978 6.32129V6.3223Z" fill="black"/>
</g>
</svg>
