<svg width="5" height="11" viewBox="0 0 5 11" fill="none" xmlns="http://www.w3.org/2000/svg">
<path d="M4.99831 5.49137C4.99864 5.30811 4.94054 5.13051 4.83411 4.98939L1.26453 0.283345C1.14335 0.12317 0.969215 0.022441 0.780437 0.00331894C0.591658 -0.0158031 0.403697 0.0482477 0.257904 0.181381C0.11211 0.314514 0.020426 0.505824 0.00302095 0.713224C-0.0143841 0.920625 0.0439153 1.12713 0.165095 1.2873L3.36344 5.49137L0.279322 9.69544C0.22002 9.77567 0.175734 9.86799 0.149011 9.96708C0.122288 10.0662 0.113654 10.1701 0.123605 10.2729C0.133557 10.3756 0.161897 10.4752 0.206998 10.5659C0.252099 10.6566 0.313071 10.7366 0.386409 10.8014C0.459815 10.8732 0.545932 10.9276 0.639365 10.9612C0.732798 10.9947 0.831533 11.0067 0.929385 10.9964C1.02724 10.9861 1.1221 10.9537 1.20802 10.9013C1.29395 10.8488 1.36908 10.7774 1.42873 10.6916L4.87695 5.98551C4.96655 5.84034 5.00928 5.66636 4.99831 5.49137V5.49137Z" fill="#5A2230"/>
</svg>
