<svg width="46" height="46" viewBox="0 0 46 46" fill="none" xmlns="http://www.w3.org/2000/svg">
<path d="M36 23C36 30.1797 30.1797 36 23 36C15.8203 36 10 30.1797 10 23C10 15.8203 15.8203 10 23 10C30.1797 10 36 15.8203 36 23Z" fill="#E2B090"/>
<path fill-rule="evenodd" clip-rule="evenodd" d="M46 23C46 35.7025 35.7025 46 23 46C10.2975 46 0 35.7025 0 23C0 10.2975 10.2975 0 23 0C35.7025 0 46 10.2975 46 23ZM23 36C30.1797 36 36 30.1797 36 23C36 15.8203 30.1797 10 23 10C15.8203 10 10 15.8203 10 23C10 30.1797 15.8203 36 23 36Z" fill="#F3F5F8"/>
</svg>
