<svg width="24" height="25" viewBox="0 0 24 25" fill="none" xmlns="http://www.w3.org/2000/svg">
<path d="M12 2.96729C6.486 2.96729 2 7.45329 2 12.9673C2 18.4813 6.486 22.9673 12 22.9673C17.514 22.9673 22 18.4813 22 12.9673C22 7.45329 17.514 2.96729 12 2.96729ZM12 20.9673C7.589 20.9673 4 17.3783 4 12.9673C4 8.55629 7.589 4.96729 12 4.96729C16.411 4.96729 20 8.55629 20 12.9673C20 17.3783 16.411 20.9673 12 20.9673Z" fill="#5A2230"/>
<path d="M8.5 10.2979L10.0217 9.00004L15.7091 15.6688L14.1874 16.9666L8.5 10.2979Z" fill="#5A2230"/>
<path d="M15.709 10.2979L14.1872 9.00004L8.49985 15.6688L10.0216 16.9666L15.709 10.2979Z" fill="#5A2230"/>
</svg>
