<svg width="24" height="24" viewBox="0 0 24 24" fill="none" xmlns="http://www.w3.org/2000/svg">
<g opacity="0.6">
<path d="M12 22C6.477 22 2 17.523 2 12C2 6.477 6.477 2 12 2C17.523 2 22 6.477 22 12C21.994 17.52 17.52 21.994 12 22ZM4 12.172C4.02273 14.2862 4.88145 16.3054 6.38848 17.7883C7.8955 19.2712 9.92829 20.0972 12.0425 20.0859C14.1568 20.0745 16.1806 19.2267 17.6716 17.7276C19.1626 16.2286 19.9995 14.2003 19.9995 12.086C19.9995 9.97172 19.1626 7.94341 17.6716 6.44437C16.1806 4.94533 14.1568 4.09748 12.0425 4.08612C9.92829 4.07475 7.8955 4.9008 6.38848 6.38372C4.88145 7.86664 4.02273 9.88584 4 12V12.172ZM14 17H11V13H10V11H13V15H14V17ZM13 9H11V7H13V9Z" fill="#94A2AB"/>
</g>
</svg>
