<svg width="5" height="12" viewBox="0 0 5 12" fill="none" xmlns="http://www.w3.org/2000/svg">
<path d="M0.00168902 5.84782C0.00136311 5.66455 0.059458 5.48695 0.16589 5.34584L3.73547 0.639791C3.85665 0.479615 4.03079 0.378886 4.21956 0.359764C4.40834 0.340642 4.5963 0.404693 4.7421 0.537826C4.88789 0.670959 4.97957 0.862269 4.99698 1.06967C5.01438 1.27707 4.95608 1.48357 4.83491 1.64375L1.63656 5.84782L4.72068 10.0519C4.77998 10.1321 4.82427 10.2244 4.85099 10.3235C4.87771 10.4226 4.88635 10.5265 4.87639 10.6293C4.86644 10.7321 4.8381 10.8317 4.793 10.9224C4.7479 11.0131 4.68693 11.0931 4.61359 11.1578C4.54019 11.2296 4.45407 11.284 4.36063 11.3176C4.2672 11.3512 4.16847 11.3632 4.07062 11.3529C3.97276 11.3426 3.8779 11.3102 3.79198 11.2577C3.70605 11.2052 3.63092 11.1338 3.57127 11.048L0.123055 6.34195C0.0334469 6.19678 -0.00928448 6.02281 0.00168902 5.84782V5.84782Z" fill="#5A2230"/>
</svg>
