<svg width="24" height="25" viewBox="0 0 24 25" fill="none" xmlns="http://www.w3.org/2000/svg">
<path d="M8.72638 11.2788C8.50939 11.2788 8.30128 11.365 8.14784 11.5184C7.9944 11.6719 7.9082 11.88 7.9082 12.097C7.9082 12.314 7.9944 12.5221 8.14784 12.6755C8.30128 12.829 8.50939 12.9152 8.72638 12.9152H15.2718C15.4888 12.9152 15.6969 12.829 15.8504 12.6755C16.0038 12.5221 16.09 12.314 16.09 12.097C16.09 11.88 16.0038 11.6719 15.8504 11.5184C15.6969 11.365 15.4888 11.2788 15.2718 11.2788H8.72638Z" fill="#94A2AB"/>
<path fill-rule="evenodd" clip-rule="evenodd" d="M3 6.3699C3 5.50191 3.3448 4.66948 3.95856 4.05573C4.57232 3.44197 5.40475 3.09717 6.27273 3.09717H17.7273C18.5953 3.09717 19.4277 3.44197 20.0414 4.05573C20.6552 4.66948 21 5.50191 21 6.3699V17.8244C21 18.6924 20.6552 19.5249 20.0414 20.1386C19.4277 20.7524 18.5953 21.0972 17.7273 21.0972H6.27273C5.40475 21.0972 4.57232 20.7524 3.95856 20.1386C3.3448 19.5249 3 18.6924 3 17.8244V6.3699ZM6.27273 4.73353H17.7273C18.1613 4.73353 18.5775 4.90593 18.8844 5.21281C19.1912 5.51969 19.3636 5.9359 19.3636 6.3699V17.8244C19.3636 18.2584 19.1912 18.6746 18.8844 18.9815C18.5775 19.2884 18.1613 19.4608 17.7273 19.4608H6.27273C5.83874 19.4608 5.42252 19.2884 5.11564 18.9815C4.80877 18.6746 4.63636 18.2584 4.63636 17.8244V6.3699C4.63636 5.9359 4.80877 5.51969 5.11564 5.21281C5.42252 4.90593 5.83874 4.73353 6.27273 4.73353Z" fill="#94A2AB"/>
</svg>
