<svg width="48" height="50" viewBox="0 0 48 50" fill="none" xmlns="http://www.w3.org/2000/svg">
<path d="M40 17.2812H28.776L31.022 10.4152C31.426 9.17531 31.222 7.80088 30.472 6.74049C29.722 5.68009 28.506 5.0459 27.224 5.0459H24C23.406 5.0459 22.844 5.31507 22.462 5.78002L13.062 17.2812H8C5.794 17.2812 4 19.1104 4 21.3596V39.7126C4 41.9618 5.794 43.791 8 43.791H34.614C35.4278 43.7882 36.2216 43.5337 36.8904 43.0611C37.5593 42.5885 38.0717 41.92 38.36 41.1441L43.874 26.1538C43.9577 25.9249 44.0004 25.6824 44 25.4381V21.3596C44 19.1104 42.206 17.2812 40 17.2812ZM8 21.3596H12V39.7126H8V21.3596ZM40 25.069L34.614 39.7126H16V20.0586L24.936 9.12433H27.228L24.104 18.674C24.0026 18.9805 23.9743 19.3073 24.0215 19.6272C24.0687 19.9471 24.19 20.2509 24.3753 20.5134C24.5607 20.776 24.8048 20.9897 25.0873 21.1369C25.3698 21.284 25.6827 21.3604 26 21.3596H40V25.069Z" fill="url(#paint0_linear_174_2741)"/>
<defs>
<linearGradient id="paint0_linear_174_2741" x1="3.5884" y1="-6.09403" x2="45.4109" y2="-5.41882" gradientUnits="userSpaceOnUse">
<stop stop-color="#D2611A"/>
<stop offset="1" stop-color="#D29971"/>
</linearGradient>
</defs>
</svg>
