<svg width="48" height="49" viewBox="0 0 48 49" fill="none" xmlns="http://www.w3.org/2000/svg">
<path d="M24 28.9673V32.9673C20.8174 32.9673 17.7652 34.2316 15.5147 36.482C13.2643 38.7324 12 41.7847 12 44.9673H8C8 40.7238 9.68571 36.6542 12.6863 33.6536C15.6869 30.653 19.7565 28.9673 24 28.9673ZM24 26.9673C17.37 26.9673 12 21.5973 12 14.9673C12 8.33728 17.37 2.96729 24 2.96729C30.63 2.96729 36 8.33728 36 14.9673C36 21.5973 30.63 26.9673 24 26.9673ZM24 22.9673C28.42 22.9673 32 19.3873 32 14.9673C32 10.5473 28.42 6.96728 24 6.96728C19.58 6.96728 16 10.5473 16 14.9673C16 19.3873 19.58 22.9673 24 22.9673ZM42.892 41.0313L45.9 44.0393L43.072 46.8673L40.064 43.8593C38.3867 44.8483 36.4062 45.1916 34.4939 44.8248C32.5816 44.4581 30.8687 43.4065 29.6763 41.8671C28.4838 40.3278 27.8938 38.4063 28.0167 36.4631C28.1396 34.5198 28.967 32.688 30.3439 31.3111C31.7207 29.9343 33.5525 29.1069 35.4958 28.984C37.4391 28.8611 39.3605 29.4511 40.8998 30.6435C42.4392 31.836 43.4908 33.5489 43.8575 35.4612C44.2243 37.3735 43.881 39.354 42.892 41.0313ZM36 40.9673C37.0609 40.9673 38.0783 40.5459 38.8284 39.7957C39.5786 39.0456 40 38.0281 40 36.9673C40 35.9064 39.5786 34.889 38.8284 34.1389C38.0783 33.3887 37.0609 32.9673 36 32.9673C34.9391 32.9673 33.9217 33.3887 33.1716 34.1389C32.4214 34.889 32 35.9064 32 36.9673C32 38.0281 32.4214 39.0456 33.1716 39.7957C33.9217 40.5459 34.9391 40.9673 36 40.9673Z" fill="url(#paint0_linear_174_2743)"/>
<defs>
<linearGradient id="paint0_linear_174_2743" x1="7.61001" y1="-9.65477" x2="47.2399" y2="-9.11974" gradientUnits="userSpaceOnUse">
<stop stop-color="#D2611A"/>
<stop offset="1" stop-color="#D29971"/>
</linearGradient>
</defs>
</svg>
