<svg width="32" height="33" viewBox="0 0 32 33" fill="none" xmlns="http://www.w3.org/2000/svg">
<path d="M10.7993 24.799L13.3997 22.1986H16.0002L17.7684 20.4303C19.576 21.06 21.5437 21.0576 23.3496 20.4233C25.1555 19.789 26.6926 18.5604 27.7094 16.9387C28.7261 15.317 29.1622 13.3982 28.9464 11.4964C28.7305 9.59453 27.8755 7.82227 26.5212 6.46967C25.1669 5.11707 23.3936 4.26425 21.4914 4.05078C19.5893 3.83732 17.6711 4.27585 16.0507 5.29462C14.4302 6.31338 13.2036 7.85203 12.5716 9.65873C11.9396 11.4654 11.9395 13.4332 12.5715 15.2399L2.99805 24.799V29.9999H8.19889L10.7993 27.3995V24.799Z" stroke="#5A2230" stroke-width="2.5" stroke-linecap="round" stroke-linejoin="round"/>
<path d="M22.5014 11.7967C23.2195 11.7967 23.8016 11.2146 23.8016 10.4965C23.8016 9.77841 23.2195 9.19629 22.5014 9.19629C21.7833 9.19629 21.2012 9.77841 21.2012 10.4965C21.2012 11.2146 21.7833 11.7967 22.5014 11.7967Z" stroke="#5A2230" stroke-width="2.5" stroke-linecap="round" stroke-linejoin="round"/>
</svg>
