<svg width="32" height="33" viewBox="0 0 32 33" fill="none" xmlns="http://www.w3.org/2000/svg">
<path d="M28.3784 12.0179L20.4441 10.8648L16.8972 3.67418C16.8003 3.47731 16.6409 3.31793 16.4441 3.22106C15.9503 2.97731 15.3503 3.18043 15.1034 3.67418L11.5566 10.8648L3.62218 12.0179C3.40343 12.0492 3.20343 12.1523 3.0503 12.3086C2.86518 12.4988 2.76317 12.7548 2.76669 13.0203C2.77021 13.2857 2.87896 13.5389 3.06905 13.7242L8.80968 19.3211L7.45343 27.2242C7.42162 27.408 7.44197 27.5971 7.51215 27.77C7.58234 27.9428 7.69956 28.0926 7.85052 28.2022C8.00148 28.3119 8.18014 28.377 8.36624 28.3903C8.55234 28.4036 8.73844 28.3644 8.90343 28.2773L16.0003 24.5461L23.0972 28.2773C23.2909 28.3804 23.5159 28.4148 23.7316 28.3773C24.2753 28.2836 24.6409 27.7679 24.5472 27.2242L23.1909 19.3211L28.9316 13.7242C29.0878 13.5711 29.1909 13.3711 29.2222 13.1523C29.3066 12.6054 28.9253 12.0992 28.3784 12.0179Z" fill="#5A2230"/>
</svg>
