<svg width="140" height="19" viewBox="0 0 140 19" fill="none" xmlns="http://www.w3.org/2000/svg">
<g clip-path="url(#clip0_496_11151)">
<path d="M104.736 18.9408H99.1695C98.9119 18.94 98.6655 18.837 98.4835 18.6546C98.3015 18.4723 98.1991 18.2252 98.1988 17.9676V12.0877C98.1993 11.8304 98.3015 11.5837 98.4835 11.4017C98.6655 11.2197 98.9122 11.1176 99.1695 11.117H104.821C104.957 11.1166 105.092 11.145 105.216 11.2005C105.341 11.256 105.452 11.3371 105.543 11.4388L106.564 12.576L107.627 11.4266C107.717 11.3286 107.827 11.2506 107.95 11.1971C108.072 11.1436 108.204 11.1162 108.337 11.1161H112.829C113.588 11.0818 114.341 11.269 114.996 11.6556C115.074 11.4946 115.196 11.3589 115.348 11.2635C115.5 11.1681 115.675 11.1172 115.855 11.1161H119.102C119.839 11.0632 120.577 11.1977 121.248 11.5077C121.279 11.5232 121.308 11.5428 121.335 11.5658L121.357 11.5848C121.383 11.6084 121.411 11.6304 121.44 11.6507C121.519 11.4912 121.641 11.3568 121.792 11.2625C121.943 11.1683 122.117 11.1181 122.295 11.117H126.983C127.155 11.1176 127.323 11.1643 127.47 11.2523C127.617 11.3403 127.738 11.4663 127.819 11.617C128.373 11.2684 129.018 11.0942 129.671 11.117H132.485C132.685 11.1168 132.88 11.1788 133.043 11.2948C133.206 11.4107 133.329 11.5749 133.395 11.764C133.97 11.3182 134.684 11.0892 135.412 11.117H138.228C138.485 11.1173 138.732 11.2192 138.914 11.4012C139.096 11.5832 139.199 11.8302 139.2 12.0877V13.3397C139.2 13.5021 139.16 13.6622 139.083 13.805C139.005 13.9478 138.893 14.0685 138.757 14.1566L138.775 14.1737C139.02 14.431 139.209 14.7359 139.332 15.0692C139.454 15.4025 139.507 15.7572 139.487 16.1117C139.487 17.8807 138.302 18.9378 136.319 18.9378H133.576C133.384 18.9388 133.196 18.883 133.036 18.7777C132.876 18.6724 132.751 18.5224 132.676 18.346C132.051 18.7594 131.311 18.9659 130.563 18.9369H127.828C127.681 18.9337 127.536 18.8975 127.405 18.8309C127.275 18.8988 127.132 18.9354 126.986 18.9378H122.295C122.146 18.9366 121.999 18.899 121.868 18.828C121.736 18.8976 121.59 18.9352 121.441 18.9378H120.031C119.773 18.9381 119.526 18.836 119.343 18.6541C119.161 18.4723 119.058 18.2253 119.057 17.9676V17.1126C119.062 17.008 119.062 16.9033 119.057 16.7987C118.995 16.7927 118.915 16.7899 118.772 16.7899H118.243V17.9686C118.242 18.2259 118.14 18.4727 117.958 18.6546C117.776 18.8365 117.529 18.9388 117.272 18.9388H115.858C115.601 18.9388 115.355 18.8365 115.172 18.6546C114.99 18.4727 114.888 18.2259 114.888 17.9686V16.4686C114.232 16.8203 113.495 16.9904 112.752 16.9608H111.97V17.9608C111.97 18.2182 111.867 18.4653 111.685 18.6473C111.503 18.8293 111.256 18.9317 110.999 18.932H108.266C108.128 18.9314 107.993 18.9017 107.868 18.8455C107.743 18.7894 107.63 18.7079 107.539 18.6058L106.522 17.4598L105.449 18.6219C105.358 18.7211 105.249 18.8006 105.126 18.8553C105.004 18.91 104.871 18.9386 104.737 18.9398L104.736 18.9408ZM99.1695 12.0877V17.9676H104.738L106.538 16.0228L108.267 17.9676H110.999V16.0008H112.75C114.396 16.0008 115.196 15.3566 115.196 14.0316C115.196 12.7456 114.403 12.0936 112.842 12.0936H108.342L106.553 14.0208L104.816 12.0936L99.1695 12.0877ZM122.296 12.0877V17.9676H126.985V16.7489L123.692 16.742V15.5741H126.903V14.3739H123.692V13.3026H126.985V12.0877H122.296ZM117.274 15.8216H118.774C118.954 15.7946 119.138 15.8035 119.315 15.848C119.492 15.8924 119.659 15.9718 119.805 16.0809C120 16.3878 120.08 16.7543 120.028 17.1146C120.028 17.1556 120.028 17.1967 120.028 17.2337V17.9666H121.441V16.8006C121.484 16.4271 121.401 16.05 121.206 15.7288C121.03 15.5013 120.791 15.3296 120.52 15.2347C120.824 15.1045 121.083 14.8857 121.261 14.6063C121.44 14.3269 121.53 14.0001 121.52 13.6688C121.536 13.4051 121.478 13.1423 121.35 12.911C121.223 12.6796 121.032 12.4891 120.8 12.3626C120.267 12.1323 119.685 12.0373 119.107 12.0858H115.858V17.9657H117.274V15.8206V15.8216ZM133.574 16.7039V17.9666H136.31C137.773 17.9666 138.516 17.3407 138.516 16.1077C138.536 15.8825 138.508 15.6558 138.436 15.4417C138.363 15.2277 138.246 15.0308 138.093 14.8646C137.637 14.5067 137.06 14.3386 136.483 14.3949L135.733 14.3709C135.548 14.3797 135.363 14.3578 135.185 14.306C135.093 14.2754 135.014 14.2166 134.959 14.138C134.903 14.0595 134.874 13.9652 134.876 13.869C134.868 13.7853 134.884 13.7009 134.921 13.6258C134.959 13.5507 135.017 13.4876 135.089 13.4437C135.263 13.3543 135.46 13.3194 135.654 13.3436H138.232V12.0897H135.411C135.16 12.0522 134.904 12.0698 134.661 12.141C134.417 12.2121 134.193 12.3351 134.002 12.5018C133.81 12.6683 133.657 12.8747 133.554 13.1063C133.45 13.3379 133.399 13.5889 133.402 13.8426C133.402 15.5836 134.839 15.6206 136.108 15.6536L136.363 15.661C136.54 15.6439 136.717 15.6902 136.863 15.7918C136.918 15.84 136.962 15.8996 136.991 15.9666C137.021 16.0337 137.035 16.1068 137.034 16.18C137.033 16.2516 137.019 16.322 136.99 16.3875C136.961 16.4531 136.919 16.5122 136.867 16.5609C136.701 16.6809 136.496 16.7332 136.294 16.7069L133.574 16.7039ZM127.828 16.7039V17.9666H130.566C132.03 17.9666 132.772 17.3407 132.772 16.1077C132.791 15.8832 132.764 15.6569 132.692 15.4432C132.621 15.2295 132.506 15.0333 132.355 14.8661C131.898 14.5097 131.322 14.3413 130.746 14.3958L129.989 14.3719C129.804 14.3811 129.618 14.3592 129.44 14.307C129.35 14.2748 129.273 14.2152 129.219 14.1366C129.165 14.0579 129.137 13.9643 129.14 13.869C129.132 13.7855 129.148 13.7012 129.186 13.6263C129.223 13.5514 129.281 13.4885 129.353 13.4447C129.525 13.3549 129.72 13.3204 129.913 13.3451H132.495V12.0907H129.678C128.194 12.0907 127.667 12.9906 127.667 13.8436C127.667 15.5846 129.103 15.6216 130.367 15.6546L130.623 15.6619C130.799 15.6451 130.976 15.6911 131.123 15.7918C131.178 15.8402 131.222 15.9004 131.251 15.9676C131.28 16.0348 131.295 16.1077 131.293 16.181C131.293 16.2526 131.279 16.3234 131.25 16.389C131.222 16.4546 131.179 16.5134 131.127 16.5619C130.961 16.6819 130.756 16.7341 130.554 16.7078L127.828 16.7039ZM109.595 17.4359L107.441 15.0438L109.599 12.7249V17.4398L109.595 17.4359ZM104.023 16.7459H100.57V15.577H103.652V14.3768H100.57V13.306H104.092L105.627 15.0179L104.027 16.744L104.023 16.7459ZM112.815 14.8016H110.996V13.3016H112.824C113.218 13.3016 113.686 13.4277 113.686 14.0247C113.686 14.5247 113.366 14.8006 112.815 14.8006V14.8016ZM118.972 14.6278H117.266V13.307H118.997C119.225 13.2851 119.455 13.3215 119.666 13.4129C119.76 13.4636 119.837 13.54 119.889 13.6336C119.941 13.7273 119.965 13.834 119.958 13.9408C119.963 14.0517 119.94 14.162 119.89 14.2611C119.84 14.3601 119.764 14.4445 119.671 14.5057C119.453 14.6088 119.212 14.652 118.972 14.6307V14.6278ZM122.862 8.82162H121.216C120.304 8.853 119.408 8.57827 118.671 8.04085C118.631 8.25938 118.517 8.45684 118.346 8.59945C118.176 8.74206 117.961 8.8206 117.739 8.82162H116.303C116.15 8.81682 116.001 8.77742 115.866 8.70589C115.732 8.7789 115.582 8.81841 115.43 8.82162H114.01C113.754 8.82059 113.509 8.71935 113.328 8.53939C113.146 8.35943 113.043 8.11525 113.04 7.8597L113.034 7.11605V6.69173C112.972 6.68573 112.893 6.68392 112.76 6.68392H112.226V7.85287C112.226 8.11013 112.123 8.35699 111.941 8.5389C111.76 8.72081 111.513 8.82259 111.256 8.82259H109.849C109.676 8.81727 109.508 8.76659 109.362 8.67562C109.216 8.76804 109.048 8.81885 108.876 8.82259H104.176C103.988 8.81784 103.807 8.75742 103.654 8.64877C103.5 8.75794 103.317 8.81837 103.129 8.82259H101.688C101.43 8.82259 101.184 8.7206 101.002 8.5389C100.82 8.35721 100.718 8.11093 100.718 7.85384V7.82992L100.532 8.24691C100.456 8.41868 100.331 8.56474 100.174 8.66732C100.016 8.7699 99.8325 8.82473 99.6446 8.82503H98.4107C98.2227 8.82495 98.0387 8.7702 97.8809 8.66781C97.7232 8.56542 97.5982 8.41962 97.5216 8.24789L97.339 7.83089V7.85287C97.3387 8.11031 97.2358 8.35686 97.0538 8.5389C96.8718 8.72094 96.6252 8.82379 96.3678 8.82406H93.5089C93.3163 8.82432 93.1281 8.76729 92.9679 8.66048C92.8076 8.55368 92.6823 8.4018 92.6085 8.22396L92.3155 7.51498H90.6866L90.3868 8.22787C90.3145 8.40674 90.1899 8.5598 90.0294 8.66683C89.8688 8.77386 89.6798 8.82998 89.4869 8.82796H87.9596C87.7988 8.82872 87.6407 8.78918 87.4991 8.71322C87.3575 8.63725 87.2368 8.52721 87.1485 8.39291C87.0603 8.2585 87.0067 8.1043 86.9923 7.94418C86.9778 7.78405 87.0028 7.62299 87.0655 7.47494L89.5816 1.59798C89.6569 1.42194 89.7824 1.27179 89.9425 1.16683C90.1026 1.06187 90.2901 1.00643 90.4815 1.00765H92.5655C92.7557 1.00757 92.9418 1.06331 93.1007 1.16781C93.2596 1.27231 93.3843 1.42138 93.4596 1.59603L93.9869 2.82406V1.9808C93.9864 1.85328 94.0111 1.72712 94.0597 1.60921C94.1082 1.49131 94.1795 1.38398 94.2696 1.29378C94.3599 1.20364 94.4672 1.13207 94.585 1.08334C94.7029 1.03461 94.8291 1.0095 94.9566 1.00961H97.2569C97.4422 1.00929 97.6233 1.06243 97.7794 1.16244C97.9354 1.26244 98.0597 1.40554 98.1368 1.57406L99.0557 3.57406L99.8907 1.60482C99.9648 1.42917 100.089 1.27916 100.248 1.17416C100.407 1.06915 100.594 1.01402 100.785 1.01498H103.127C103.315 1.01878 103.497 1.07927 103.65 1.1888C103.803 1.08003 103.984 1.01931 104.171 1.014H108.864C109.038 1.01687 109.208 1.06806 109.355 1.16195C109.499 1.06863 109.667 1.01743 109.839 1.014H113.069C113.822 0.947569 114.579 1.08941 115.257 1.42464C115.289 1.44267 115.319 1.46444 115.346 1.48959L115.363 1.50277C115.385 1.52277 115.408 1.5409 115.433 1.5599C115.512 1.39708 115.635 1.25977 115.788 1.16341C115.941 1.06706 116.118 1.01562 116.299 1.01498H117.732C117.961 1.01569 118.183 1.09912 118.357 1.25033C118.53 1.40153 118.642 1.61009 118.674 1.83773C119.422 1.24861 120.361 0.955885 121.312 1.01498H122.671C122.88 1.01447 123.083 1.08139 123.251 1.20589C123.418 1.08066 123.622 1.01367 123.832 1.01498H125.932C126.121 1.01449 126.307 1.06976 126.465 1.17416C126.624 1.27855 126.748 1.42735 126.823 1.60189L127.341 2.8099V1.98373C127.341 1.85604 127.366 1.72959 127.415 1.61166C127.464 1.49372 127.535 1.38691 127.626 1.29671C127.716 1.20652 127.823 1.13494 127.941 1.08627C128.06 1.03759 128.186 1.01276 128.314 1.01302H130.453C130.62 1.0126 130.785 1.05505 130.931 1.13705C131.077 1.21905 131.199 1.3376 131.286 1.4808L131.953 2.58578V1.97884C131.953 1.85107 131.979 1.72467 132.028 1.60677C132.077 1.48887 132.149 1.3819 132.24 1.29183C132.33 1.20176 132.438 1.1304 132.556 1.08187C132.674 1.03334 132.801 1.00823 132.929 1.00863H134.364C134.621 1.00863 134.868 1.11096 135.05 1.29281C135.233 1.47466 135.335 1.7214 135.336 1.97884V7.85873C135.336 8.11652 135.233 8.36394 135.051 8.54623C134.869 8.72851 134.622 8.83089 134.364 8.83089H132.376C132.208 8.83178 132.043 8.78891 131.897 8.70687C131.751 8.62483 131.628 8.50618 131.542 8.36263L130.679 6.93099V7.8597C130.679 7.98717 130.654 8.11348 130.605 8.23128C130.556 8.34909 130.485 8.45605 130.395 8.54623C130.305 8.6364 130.198 8.70787 130.08 8.75668C129.962 8.80548 129.836 8.83089 129.709 8.83089H126.85C126.657 8.83116 126.469 8.77413 126.309 8.66732C126.148 8.56051 126.024 8.40864 125.95 8.2308L125.649 7.51791H124.03L123.741 8.21761C123.67 8.3941 123.549 8.54617 123.392 8.65414C123.236 8.7621 123.051 8.82158 122.861 8.82503L122.862 8.82162ZM126.307 6.53793L126.856 7.85091H129.717V3.43783L132.379 7.84603H134.37V1.96566H132.932V6.06576L130.461 1.96566H128.32V7.52865L125.942 1.96664H123.843L121.855 6.59066H121.23C120.876 6.62038 120.526 6.51313 120.25 6.29085C119.956 5.89468 119.817 5.4044 119.861 4.91293C119.826 4.43406 119.97 3.95927 120.266 3.58089C120.409 3.44629 120.581 3.34502 120.768 3.28451C120.955 3.224 121.154 3.20565 121.349 3.2308H122.677V1.96859H121.317C120.934 1.93211 120.547 1.97431 120.18 2.09261C119.813 2.21091 119.475 2.40281 119.185 2.65658C118.638 3.29281 118.366 4.12032 118.429 4.95687C118.393 5.36251 118.441 5.77096 118.571 6.15707C118.7 6.54317 118.908 6.89879 119.181 7.20101C119.758 7.6581 120.482 7.88907 121.218 7.85091H122.864L123.392 6.5389L126.307 6.53793ZM116.307 1.97005V7.84994H117.738V1.97005H116.307ZM109.844 1.97005V7.84994H111.244V5.71371H112.751C113.111 5.66072 113.478 5.75041 113.774 5.96371C113.966 6.2683 114.044 6.63092 113.995 6.98763V7.1058L114.004 7.84994H115.42V6.69369C115.465 6.31816 115.383 5.9388 115.186 5.61605C115.002 5.38861 114.761 5.21569 114.486 5.11605C114.789 4.98438 115.046 4.76436 115.223 4.48519C115.4 4.20603 115.49 3.88015 115.48 3.54964C115.496 3.28774 115.439 3.0264 115.313 2.79623C115.187 2.56605 114.997 2.37673 114.768 2.24984C114.237 2.00504 113.649 1.90679 113.067 1.96566L109.844 1.97005ZM104.174 1.97005V7.85287H108.867V6.6346H105.581V5.46078H108.792V4.26058H105.581V3.20199H108.867V1.97396L104.174 1.97005ZM92.9659 6.5389L93.5098 7.84994H96.3658V3.24105L98.4078 7.84994H99.6456L101.68 3.24984V7.84994H103.122V1.97005H100.775L99.0909 5.96078L97.2476 1.97005H94.9576V7.5389L92.5577 1.97005H90.4727L87.9566 7.84994H89.4835L90.0299 6.5389H92.9659ZM121.315 4.20492C121.015 4.20492 120.979 4.23672 120.94 4.27572C120.855 4.47703 120.818 4.69501 120.83 4.91293C120.813 5.14701 120.851 5.38182 120.94 5.59896C121.03 5.61947 121.124 5.6287 121.217 5.62679L121.827 4.20589H121.314L121.315 4.20492ZM125.83 5.31478H123.893L124.858 2.97396L125.829 5.31185L125.83 5.31478ZM92.4596 5.31478H90.5435L91.5006 2.97103L92.4576 5.31185L92.4596 5.31478ZM112.96 4.50472H111.251V3.20003H112.983C113.21 3.18104 113.438 3.21489 113.649 3.29964C113.744 3.34826 113.822 3.42328 113.874 3.51546C113.926 3.60765 113.949 3.71305 113.942 3.81869C113.951 3.92975 113.928 4.04107 113.877 4.13998C113.826 4.23888 113.748 4.32152 113.653 4.37875C113.439 4.48138 113.2 4.52272 112.964 4.49789L112.96 4.50472Z" fill="url(#paint0_linear_496_11151)"/>
<path d="M62.294 10.1461C62.2934 11.7572 61.8151 13.3321 60.9196 14.6714C60.0241 16.0108 58.7515 17.0545 57.2629 17.6707C55.7742 18.2869 54.1363 18.4479 52.5561 18.1333C50.976 17.8186 49.5246 17.0426 48.3855 15.9032C47.2464 14.7638 46.4707 13.3122 46.1564 11.732C45.8422 10.1518 46.0036 8.51388 46.6202 7.02537C47.2367 5.53686 48.2808 4.26458 49.6204 3.36939C50.9599 2.4742 52.5348 1.99629 54.146 1.99609C55.2162 1.99596 56.276 2.20669 57.2647 2.61625C58.2535 3.0258 59.1518 3.62615 59.9085 4.383C60.6652 5.13985 61.2653 6.03837 61.6746 7.02722C62.0839 8.01607 62.2944 9.07588 62.294 10.1461Z" fill="#E2574C"/>
<path d="M63.9324 1.99617C62.1761 1.99566 60.4673 2.56597 59.0634 3.62117H59.0704C59.3524 3.84606 59.6165 4.09247 59.8604 4.35817L58.1604 4.38517C57.8958 4.65588 57.6499 4.9442 57.4244 5.24817H60.4134C60.6408 5.50432 60.8507 5.77561 61.0414 6.06017H56.8814C56.7276 6.32282 56.5887 6.59392 56.4654 6.87217H61.5154C61.6482 7.12668 61.7651 7.38918 61.8654 7.65817H56.1654C56.0734 7.94096 55.9977 8.22876 55.9384 8.52016H62.1024C62.1624 8.80217 62.2094 9.06316 62.2414 9.32816H55.8164C55.7891 9.59897 55.7754 9.87098 55.7754 10.1432H62.2874C62.2862 10.4156 62.2695 10.6877 62.2374 10.9582H55.8154C55.8434 11.2342 55.8841 11.5058 55.9374 11.7732H62.0924C62.0284 12.0372 61.9554 12.3032 61.8634 12.5782H56.1514C56.2384 12.8546 56.3406 13.126 56.4574 13.3912H61.5184C61.3777 13.6716 61.2194 13.9428 61.0444 14.2032H56.8714C57.0356 14.4868 57.2173 14.76 57.4154 15.0212L60.4154 15.0662C60.1401 15.3411 59.845 15.5955 59.5324 15.8272C59.5484 15.8402 59.0544 15.8272 58.0804 15.8102C59.0166 16.7766 60.1775 17.4962 61.4596 17.9047C62.7416 18.3131 64.1049 18.3977 65.4276 18.1509C66.7503 17.9041 67.9913 17.3335 69.0398 16.4902C70.0882 15.6469 70.9115 14.557 71.4361 13.318C71.9607 12.0789 72.1703 10.7292 72.0462 9.38939C71.922 8.04958 71.468 6.76138 70.7247 5.6398C69.9813 4.51823 68.9718 3.5982 67.7862 2.96188C66.6006 2.32555 65.2759 1.99274 63.9304 1.99316L63.9324 1.99617Z" fill="#F4B459"/>
<path d="M12.3477 14.937L14.0587 5.31494H16.7317L15.0746 14.937H12.3477Z" fill="#3C58BF"/>
<path d="M12.3477 14.937L14.5397 5.31494H16.7317L15.0746 14.937H12.3477Z" fill="#293688"/>
<path d="M24.7493 5.42172C23.9632 5.12808 23.1294 4.98296 22.2903 4.99372C19.6173 4.99372 17.6903 6.32971 17.6903 8.25471C17.6903 9.69771 19.0263 10.4467 20.0903 10.9277C21.1543 11.4087 21.4803 11.7277 21.4803 12.1567C21.4803 12.7977 20.6253 13.1187 19.8803 13.1187C18.9954 13.1382 18.1177 12.9552 17.3143 12.5837L16.9403 12.4237L16.5713 14.6157C17.5467 14.9753 18.5788 15.1566 19.6183 15.1507C22.4513 15.1507 24.3183 13.8147 24.3183 11.7827C24.3183 10.6597 23.6183 9.80472 22.0183 9.10972C21.0563 8.62872 20.4683 8.36171 20.4683 7.88071C20.4683 7.45271 20.9493 7.02572 22.0183 7.02572C22.7142 7.00469 23.4065 7.13218 24.0493 7.39971L24.3163 7.50672L24.7443 5.42172H24.7493Z" fill="#3C58BF"/>
<path d="M24.7493 5.42172C23.9632 5.12808 23.1294 4.98296 22.2903 4.99372C19.6173 4.99372 18.1743 6.32971 18.1743 8.25471C18.1705 8.84661 18.3548 9.42443 18.7006 9.90484C19.0464 10.3852 19.5358 10.7434 20.0983 10.9277C21.1673 11.4087 21.4883 11.7277 21.4883 12.1567C21.4883 12.7977 20.6333 13.1187 19.8883 13.1187C19.0034 13.1382 18.1257 12.9552 17.3223 12.5837L16.9483 12.4237L16.5713 14.6157C17.5467 14.9753 18.5788 15.1566 19.6183 15.1507C22.4513 15.1507 24.3183 13.8147 24.3183 11.7827C24.3183 10.6597 23.6183 9.80472 22.0183 9.10972C21.0563 8.62872 20.4683 8.36171 20.4683 7.88071C20.4683 7.45271 20.9493 7.02572 22.0183 7.02572C22.7142 7.00469 23.4065 7.13218 24.0493 7.39971L24.3163 7.50672L24.7443 5.42172H24.7493Z" fill="#293688"/>
<path d="M29.3472 5.31494C28.7062 5.31494 28.2242 5.36795 27.9572 6.01495L23.9482 14.9419H26.8352L27.3702 13.3419H30.7912L31.1122 14.9419H33.6783L31.4332 5.31995L29.3472 5.31494ZM28.1183 11.7289C28.2783 11.2479 29.1873 8.89595 29.1873 8.89595C29.1873 8.89595 29.4012 8.30794 29.5612 7.93394L29.7213 8.84294C29.7213 8.84294 30.2562 11.2429 30.3622 11.7829H28.1172L28.1183 11.7289Z" fill="#3C58BF"/>
<path d="M29.9873 5.31494C29.3463 5.31494 28.8643 5.36795 28.5973 6.01495L23.9473 14.9419H26.8343L27.3693 13.3419H30.7903L31.1113 14.9419H33.6773L31.4323 5.31995L29.9873 5.31494ZM28.1163 11.7289C28.3303 11.1939 29.1853 8.89595 29.1853 8.89595C29.1853 8.89595 29.3993 8.30794 29.5593 7.93394L29.7193 8.84294C29.7193 8.84294 30.2543 11.2429 30.3603 11.7829H28.1153L28.1163 11.7289Z" fill="#293688"/>
<path d="M7.4299 12.0497L7.1629 10.6597C6.49059 8.83178 5.15461 7.32407 3.4209 6.43668L5.8209 14.9897H8.7079L13.0379 5.36768H10.1559L7.4299 12.0497Z" fill="#3C58BF"/>
<path d="M7.4299 12.0497L7.1629 10.6597C6.49059 8.83178 5.15461 7.32407 3.4209 6.43668L5.8209 14.9897H8.7079L13.0379 5.36768H10.6909L7.4299 12.0497Z" fill="#293688"/>
<path d="M0 5.31494L0.481 5.42195C3.902 6.22195 6.254 8.25494 7.163 10.6599L6.2 6.11494C6.04 5.47394 5.559 5.31494 4.971 5.31494H0Z" fill="#FFBC00"/>
<path d="M0 5.31494C3.421 6.11494 6.254 8.20195 7.163 10.6069L6.254 6.80695C6.18894 6.51622 6.02599 6.25667 5.79244 6.07172C5.55889 5.88677 5.2689 5.78766 4.971 5.79095L0 5.31494Z" fill="#F7981D"/>
<path d="M0 5.31494C3.421 6.11494 6.254 8.20195 7.163 10.6069L6.522 8.52194C6.49025 8.18685 6.36935 7.86638 6.17187 7.59381C5.97439 7.32124 5.70752 7.10652 5.399 6.97195L0 5.31494Z" fill="#ED7C00"/>
<path d="M10.1026 11.7288L8.28561 9.91179L7.43061 11.9428L7.21661 10.6068C6.5443 8.7789 5.20832 7.27118 3.47461 6.38379L5.87461 14.9368H8.76161L10.1026 11.7288Z" fill="#051244"/>
<path d="M15.0737 14.937L12.7737 12.585L12.3457 14.937H15.0737Z" fill="#051244"/>
<path d="M21.2203 11.6216C21.4343 11.8356 21.5413 11.9956 21.4873 12.2096C21.4873 12.8506 20.6323 13.1716 19.8873 13.1716C19.0024 13.1911 18.1247 13.0081 17.3213 12.6366L16.9473 12.4766L16.5703 14.6686C17.5457 15.0282 18.5778 15.2094 19.6173 15.2036C20.3237 15.2531 21.0329 15.1605 21.7028 14.931C22.3727 14.7015 22.9897 14.3399 23.5173 13.8676L21.2203 11.6216Z" fill="#051244"/>
<path d="M24.3213 14.9336H26.8333L27.3683 13.3336H30.7893L31.1103 14.9336H33.6763L32.7673 11.0336L29.5603 7.93359L29.7203 8.78859C29.7203 8.78859 30.2553 11.1886 30.3613 11.7286H28.1213C28.3353 11.1936 29.1903 8.89558 29.1903 8.89558C29.1903 8.89558 29.4043 8.30759 29.5643 7.93359" fill="#051244"/>
</g>
<defs>
<linearGradient id="paint0_linear_496_11151" x1="113.24" y1="0.998047" x2="113.24" y2="18.9408" gradientUnits="userSpaceOnUse">
<stop stop-color="#39A5EA"/>
<stop offset="0.499" stop-color="#378CCA"/>
<stop offset="1" stop-color="#0470BD"/>
</linearGradient>
<clipPath id="clip0_496_11151">
<rect width="139.491" height="17.948" fill="white" transform="translate(0 0.993164)"/>
</clipPath>
</defs>
</svg>
