<svg width="312" height="90" viewBox="0 0 312 90" fill="none" xmlns="http://www.w3.org/2000/svg">
<path fill-rule="evenodd" clip-rule="evenodd" d="M3.99997 38C26.0332 61.8864 85.4845 79 155.367 79C225.25 79 284.701 61.8864 306.734 38H302.54C302.119 38.4061 301.686 38.8112 301.24 39.2153C293.489 46.237 282.106 52.698 267.784 58.1857C239.162 69.1532 199.417 76 155.367 76C111.317 76 71.5726 69.1532 42.95 58.1857C28.6286 52.698 17.2451 46.237 9.49427 39.2153C9.04828 38.8112 8.61511 38.4061 8.19477 38H3.99997Z" fill="url(#paint0_linear_144_533)"/>
<path d="M0.206238 0.78125H11.3781C13.4406 0.770833 15.2167 0.953125 16.7062 1.32812C18.2062 1.69271 19.4406 2.21875 20.4094 2.90625C21.3781 3.59375 22.0917 4.42188 22.55 5.39062C23.0187 6.34896 23.2531 7.41667 23.2531 8.59375C23.2531 9.625 23.0344 10.6146 22.5969 11.5625C22.1698 12.5 21.5031 13.3281 20.5969 14.0469C19.701 14.7656 18.5552 15.3385 17.1594 15.7656C15.7739 16.1927 14.1229 16.4062 12.2062 16.4062H9.23749V24H0.206238V0.78125ZM9.23749 13C9.95624 12.9896 10.5969 12.8802 11.1594 12.6719C11.7219 12.4531 12.1958 12.1562 12.5812 11.7812C12.9667 11.3958 13.2583 10.9375 13.4562 10.4062C13.6646 9.86458 13.7687 9.26042 13.7687 8.59375C13.7687 7.9375 13.6646 7.34375 13.4562 6.8125C13.2479 6.28125 12.9458 5.82812 12.55 5.45312C12.1646 5.06771 11.6906 4.76562 11.1281 4.54688C10.576 4.32812 9.94582 4.20833 9.23749 4.1875V13Z" fill="url(#paint1_linear_144_533)"/>
<path d="M33.4094 6.64062L30.7219 0.78125H40.2375L51.6125 24.0156H41.4094L39.6906 20.2969H30.5344L28.8312 24.0156H24.8781L33.4094 6.64062ZM38.05 16.7188L35.1125 10.3438L32.1906 16.7188H38.05Z" fill="url(#paint2_linear_144_533)"/>
<path d="M58.8781 4.34375H52.2531V0.765625H74.5344V4.34375H67.9094V24H58.8781V4.34375Z" fill="url(#paint3_linear_144_533)"/>
<path d="M77.925 0.78125H86.9719L86.9562 24H77.925V0.78125Z" fill="url(#paint4_linear_144_533)"/>
<path d="M92.925 0.78125H102.472C105.159 0.78125 107.487 1.03646 109.456 1.54688C111.425 2.04688 113.055 2.78646 114.347 3.76562C115.639 4.74479 116.597 5.94792 117.222 7.375C117.847 8.80208 118.159 10.4375 118.159 12.2812C118.159 13.9271 117.847 15.4635 117.222 16.8906C116.597 18.3073 115.639 19.5469 114.347 20.6094C113.055 21.6615 111.425 22.4896 109.456 23.0938C107.487 23.6979 105.159 24 102.472 24H92.925V0.78125ZM101.956 20.5938C102.998 20.5938 103.935 20.4323 104.769 20.1094C105.602 19.7865 106.305 19.2865 106.878 18.6094C107.461 17.9323 107.904 17.0729 108.206 16.0312C108.519 14.9792 108.675 13.724 108.675 12.2656C108.675 10.8177 108.519 9.58333 108.206 8.5625C107.894 7.54167 107.446 6.70833 106.862 6.0625C106.279 5.40625 105.571 4.93229 104.737 4.64062C103.915 4.33854 102.993 4.1875 101.972 4.1875L101.956 20.5938Z" fill="url(#paint5_linear_144_533)"/>
<path d="M129.159 6.64062L126.472 0.78125H135.987L147.362 24.0156H137.159L135.441 20.2969H126.284L124.581 24.0156H120.628L129.159 6.64062ZM133.8 16.7188L130.862 10.3438L127.941 16.7188H133.8Z" fill="url(#paint6_linear_144_533)"/>
<path d="M150.55 0.78125H163.941C165.67 0.78125 167.18 0.963542 168.472 1.32812C169.774 1.69271 170.857 2.20312 171.722 2.85938C172.597 3.51562 173.253 4.30208 173.691 5.21875C174.128 6.13542 174.347 7.14583 174.347 8.25C174.347 9.61458 174.024 10.8281 173.378 11.8906C172.732 12.9427 171.774 13.7812 170.503 14.4062L175.378 24.0156H165.175L161.487 15.5781H159.581V24H150.55V0.78125ZM160.128 12.75C160.868 12.75 161.529 12.6458 162.112 12.4375C162.696 12.2292 163.191 11.9375 163.597 11.5625C164.003 11.1771 164.316 10.724 164.534 10.2031C164.753 9.67188 164.862 9.09375 164.862 8.46875C164.862 7.84375 164.753 7.27083 164.534 6.75C164.316 6.21875 164.003 5.76562 163.597 5.39062C163.191 5.00521 162.696 4.70833 162.112 4.5C161.529 4.29167 160.868 4.1875 160.128 4.1875H159.597L159.581 12.75H160.128Z" fill="url(#paint7_linear_144_533)"/>
<path d="M187.825 0.78125H194.216L202.997 12.9375L211.341 0.78125H217.559V24H208.544V12.1406L199.887 24.2969L191.262 12.1406V24H187.825V0.78125Z" fill="url(#paint8_linear_144_533)"/>
<path d="M223.512 0.78125H232.559L232.544 24H223.512V0.78125Z" fill="url(#paint9_linear_144_533)"/>
<path d="M238.512 0.78125H247.559L247.544 20.4219H256.419V24H238.512V0.78125Z" fill="url(#paint10_linear_144_533)"/>
<path d="M266.559 6.64062L263.872 0.78125H273.388L284.763 24.0156H274.559L272.841 20.2969H263.684L261.981 24.0156H258.028L266.559 6.64062ZM271.2 16.7188L268.263 10.3438L265.341 16.7188H271.2Z" fill="url(#paint11_linear_144_533)"/>
<path d="M287.95 0.78125H293.606L308.341 13.1562L308.356 0.78125H311.794V24H306.138L291.388 11.6719V24H287.95V0.78125Z" fill="url(#paint12_linear_144_533)"/>
<mask id="mask0_144_533" style="mask-type:alpha" maskUnits="userSpaceOnUse" x="203" y="61" width="25" height="24">
<circle cx="215.472" cy="73.2823" r="11.5523" fill="#D9D9D9"/>
</mask>
<g mask="url(#mask0_144_533)">
<path d="M243.631 61.73H200.31V84.8346H243.631V61.73Z" fill="#B22234"/>
<path d="M200.31 64.396H243.631ZM243.631 67.9506H200.31ZM200.31 71.5051H243.631ZM243.631 75.0597H200.31ZM200.31 78.6142H243.631ZM243.631 82.1688H200.31Z" fill="black"/>
<path fill-rule="evenodd" clip-rule="evenodd" d="M243.631 65.2846H200.31V63.5073H243.631V65.2846ZM200.31 67.0619H243.631V68.8392H200.31V67.0619ZM243.631 72.3937H200.31V70.6164H243.631V72.3937ZM200.31 74.171H243.631V75.9483H200.31V74.171ZM243.631 79.5028H200.31V77.7256H243.631V79.5028ZM200.31 81.2801H243.631V83.0574H200.31V81.2801Z" fill="white"/>
<path d="M217.638 61.73H200.31V74.1709H217.638V61.73Z" fill="#3C3B6E"/>
<path d="M204.642 62.2632L205.054 63.5492L203.975 62.7544H205.309L204.23 63.5492L204.642 62.2632Z" fill="white"/>
<path d="M204.642 64.7515L205.054 66.0375L203.975 65.2427H205.309L204.23 66.0375L204.642 64.7515Z" fill="white"/>
<path d="M204.642 67.2395L205.054 68.5256L203.975 67.7307H205.309L204.23 68.5256L204.642 67.2395Z" fill="white"/>
<path d="M204.642 69.7278L205.054 71.0138L203.975 70.219H205.309L204.23 71.0138L204.642 69.7278Z" fill="white"/>
<path d="M204.642 72.2161L205.054 73.5021L203.975 72.7073H205.309L204.23 73.5021L204.642 72.2161Z" fill="white"/>
<path d="M206.086 63.5073L206.498 64.7934L205.419 63.9986H206.753L205.674 64.7934L206.086 63.5073Z" fill="white"/>
<path d="M206.086 65.9956L206.498 67.2817L205.419 66.4868H206.753L205.674 67.2817L206.086 65.9956Z" fill="white"/>
<path d="M206.086 68.4836L206.498 69.7697L205.419 68.9749H206.753L205.674 69.7697L206.086 68.4836Z" fill="white"/>
<path d="M206.086 70.9719L206.498 72.258L205.419 71.4632H206.753L205.674 72.258L206.086 70.9719Z" fill="white"/>
<path d="M207.53 62.2632L207.942 63.5492L206.863 62.7544H208.197L207.118 63.5492L207.53 62.2632Z" fill="white"/>
<path d="M207.53 64.7515L207.942 66.0375L206.863 65.2427H208.197L207.118 66.0375L207.53 64.7515Z" fill="white"/>
<path d="M207.53 67.2395L207.942 68.5256L206.863 67.7307H208.197L207.118 68.5256L207.53 67.2395Z" fill="white"/>
<path d="M207.53 69.7278L207.942 71.0138L206.863 70.219H208.197L207.118 71.0138L207.53 69.7278Z" fill="white"/>
<path d="M207.53 72.2161L207.942 73.5021L206.863 72.7073H208.197L207.118 73.5021L207.53 72.2161Z" fill="white"/>
<path d="M208.974 63.5073L209.386 64.7934L208.307 63.9986H209.641L208.562 64.7934L208.974 63.5073Z" fill="white"/>
<path d="M208.974 65.9956L209.386 67.2817L208.307 66.4868H209.641L208.562 67.2817L208.974 65.9956Z" fill="white"/>
<path d="M208.974 68.4836L209.386 69.7697L208.307 68.9749H209.641L208.562 69.7697L208.974 68.4836Z" fill="white"/>
<path d="M208.974 70.9719L209.386 72.258L208.307 71.4632H209.641L208.562 72.258L208.974 70.9719Z" fill="white"/>
<path d="M210.418 62.2632L210.831 63.5492L209.751 62.7544H211.085L210.006 63.5492L210.418 62.2632Z" fill="white"/>
<path d="M210.418 64.7515L210.831 66.0375L209.751 65.2427H211.085L210.006 66.0375L210.418 64.7515Z" fill="white"/>
<path d="M210.418 67.2395L210.831 68.5256L209.751 67.7307H211.085L210.006 68.5256L210.418 67.2395Z" fill="white"/>
<path d="M210.418 69.7278L210.831 71.0138L209.751 70.219H211.085L210.006 71.0138L210.418 69.7278Z" fill="white"/>
<path d="M210.418 72.2161L210.831 73.5021L209.751 72.7073H211.085L210.006 73.5021L210.418 72.2161Z" fill="white"/>
<path d="M211.862 63.5073L212.275 64.7934L211.195 63.9986H212.529L211.45 64.7934L211.862 63.5073Z" fill="white"/>
<path d="M211.862 65.9956L212.275 67.2817L211.195 66.4868H212.529L211.45 67.2817L211.862 65.9956Z" fill="white"/>
<path d="M211.862 68.4836L212.275 69.7697L211.195 68.9749H212.529L211.45 69.7697L211.862 68.4836Z" fill="white"/>
<path d="M211.862 70.9719L212.275 72.258L211.195 71.4632H212.529L211.45 72.258L211.862 70.9719Z" fill="white"/>
<path d="M213.306 62.2632L213.719 63.5492L212.639 62.7544H213.973L212.894 63.5492L213.306 62.2632Z" fill="white"/>
<path d="M213.306 64.7515L213.719 66.0375L212.639 65.2427H213.973L212.894 66.0375L213.306 64.7515Z" fill="white"/>
<path d="M213.306 67.2395L213.719 68.5256L212.639 67.7307H213.973L212.894 68.5256L213.306 67.2395Z" fill="white"/>
<path d="M213.306 69.7278L213.719 71.0138L212.639 70.219H213.973L212.894 71.0138L213.306 69.7278Z" fill="white"/>
<path d="M213.306 72.2161L213.719 73.5021L212.639 72.7073H213.973L212.894 73.5021L213.306 72.2161Z" fill="white"/>
<path d="M214.75 63.5073L215.163 64.7934L214.083 63.9986H215.418L214.338 64.7934L214.75 63.5073Z" fill="white"/>
<path d="M214.75 65.9956L215.163 67.2817L214.083 66.4868H215.418L214.338 67.2817L214.75 65.9956Z" fill="white"/>
<path d="M214.75 68.4836L215.163 69.7697L214.083 68.9749H215.418L214.338 69.7697L214.75 68.4836Z" fill="white"/>
<path d="M214.75 70.9719L215.163 72.258L214.083 71.4632H215.418L214.338 72.258L214.75 70.9719Z" fill="white"/>
<path d="M216.194 62.2632L216.607 63.5492L215.527 62.7544H216.862L215.782 63.5492L216.194 62.2632Z" fill="white"/>
<path d="M216.194 64.7515L216.607 66.0375L215.527 65.2427H216.862L215.782 66.0375L216.194 64.7515Z" fill="white"/>
<path d="M216.194 67.2395L216.607 68.5256L215.527 67.7307H216.862L215.782 68.5256L216.194 67.2395Z" fill="white"/>
<path d="M216.194 69.7278L216.607 71.0138L215.527 70.219H216.862L215.782 71.0138L216.194 69.7278Z" fill="white"/>
<path d="M216.194 72.2161L216.607 73.5021L215.527 72.7073H216.862L215.782 73.5021L216.194 72.2161Z" fill="white"/>
</g>
<mask id="mask1_144_533" style="mask-type:alpha" maskUnits="userSpaceOnUse" x="144" y="66" width="24" height="24">
<circle cx="155.96" cy="78.1978" r="11.5523" fill="#D9D9D9"/>
</mask>
<g mask="url(#mask1_144_533)">
<path d="M138.632 66.6455H173.288V89.7501H138.632V66.6455Z" fill="#FF9933"/>
<path d="M138.632 74.3472H173.288V89.7503H138.632V74.3472Z" fill="white"/>
<path d="M138.632 82.0486H173.288V89.7501H138.632V82.0486Z" fill="#128807"/>
<path d="M155.96 81.2784C157.661 81.2784 159.041 79.8992 159.041 78.1978C159.041 76.4964 157.661 75.1172 155.96 75.1172C154.259 75.1172 152.879 76.4964 152.879 78.1978C152.879 79.8992 154.259 81.2784 155.96 81.2784Z" fill="#000088"/>
<path d="M155.96 80.8933C157.449 80.8933 158.656 79.6864 158.656 78.1977C158.656 76.709 157.449 75.5022 155.96 75.5022C154.471 75.5022 153.264 76.709 153.264 78.1977C153.264 79.6864 154.471 80.8933 155.96 80.8933Z" fill="white"/>
<path d="M155.96 78.7369C156.258 78.7369 156.499 78.4955 156.499 78.1978C156.499 77.9001 156.258 77.6587 155.96 77.6587C155.662 77.6587 155.421 77.9001 155.421 78.1978C155.421 78.4955 155.662 78.7369 155.96 78.7369Z" fill="#000088"/>
<path d="M158.615 78.6833C158.689 78.693 158.756 78.641 158.766 78.5672C158.776 78.4934 158.724 78.4257 158.65 78.416C158.576 78.4063 158.509 78.4583 158.499 78.5321C158.489 78.6059 158.541 78.6736 158.615 78.6833Z" fill="#000088"/>
<path d="M155.96 80.8933L156.052 79.276L155.96 78.5059L155.868 79.276L155.96 80.8933Z" fill="#000088"/>
<path d="M158.399 79.3538C158.468 79.3823 158.546 79.3497 158.575 79.2809C158.603 79.2121 158.571 79.1333 158.502 79.1048C158.433 79.0763 158.354 79.109 158.326 79.1777C158.297 79.2465 158.33 79.3253 158.399 79.3538Z" fill="#000088"/>
<path d="M155.262 80.8015L155.77 79.2632L155.88 78.4954L155.592 79.2153L155.262 80.8015Z" fill="#000088"/>
<path d="M158.016 79.9458C158.076 79.9911 158.16 79.98 158.205 79.9209C158.251 79.8619 158.24 79.7773 158.181 79.7319C158.121 79.6866 158.037 79.6978 157.992 79.7568C157.946 79.8159 157.957 79.9005 158.016 79.9458Z" fill="#000088"/>
<path d="M154.612 80.5323L155.501 79.1778L155.806 78.4647L155.341 79.0854L154.612 80.5323Z" fill="#000088"/>
<path d="M157.494 80.4182C157.539 80.4773 157.624 80.4884 157.683 80.4431C157.742 80.3978 157.753 80.3132 157.708 80.2541C157.663 80.1951 157.578 80.184 157.519 80.2293C157.46 80.2746 157.449 80.3592 157.494 80.4182Z" fill="#000088"/>
<path d="M154.054 80.1037L155.263 79.0254L155.742 78.4154L155.132 78.8947L154.054 80.1037Z" fill="#000088"/>
<path d="M156.867 80.7399C156.895 80.8086 156.974 80.8413 157.043 80.8128C157.112 80.7843 157.145 80.7055 157.116 80.6367C157.088 80.568 157.009 80.5353 156.94 80.5638C156.871 80.5923 156.839 80.6711 156.867 80.7399Z" fill="#000088"/>
<path d="M153.626 79.5457L155.072 78.8171L155.693 78.352L154.98 78.657L153.626 79.5457Z" fill="#000088"/>
<path d="M156.178 80.888C156.188 80.9618 156.256 81.0138 156.329 81.0041C156.403 80.9944 156.455 80.9267 156.445 80.8529C156.436 80.7791 156.368 80.7271 156.294 80.7368C156.22 80.7465 156.168 80.8142 156.178 80.888Z" fill="#000088"/>
<path d="M153.356 78.8957L154.942 78.5663L155.662 78.2777L154.895 78.3878L153.356 78.8957Z" fill="#000088"/>
<path d="M155.475 80.8528C155.465 80.9266 155.517 80.9943 155.591 81.0041C155.664 81.0138 155.732 80.9618 155.742 80.888C155.751 80.8142 155.7 80.7465 155.626 80.7368C155.552 80.7271 155.484 80.779 155.475 80.8528Z" fill="#000088"/>
<path d="M153.264 78.1979L154.882 78.2903L155.652 78.1979L154.882 78.1055L153.264 78.1979Z" fill="#000088"/>
<path d="M154.804 80.6366C154.775 80.7054 154.808 80.7842 154.877 80.8127C154.946 80.8412 155.024 80.8085 155.053 80.7398C155.081 80.671 155.049 80.5921 154.98 80.5637C154.911 80.5352 154.832 80.5678 154.804 80.6366Z" fill="#000088"/>
<path d="M153.356 77.5002L154.895 78.008L155.662 78.1181L154.942 77.8295L153.356 77.5002Z" fill="#000088"/>
<path d="M154.212 80.2544C154.167 80.3134 154.178 80.398 154.237 80.4433C154.296 80.4886 154.381 80.4775 154.426 80.4184C154.471 80.3594 154.46 80.2748 154.401 80.2295C154.342 80.1842 154.257 80.1953 154.212 80.2544Z" fill="#000088"/>
<path d="M153.626 76.8502L154.98 77.7389L155.693 78.0439L155.072 77.5788L153.626 76.8502Z" fill="#000088"/>
<path d="M153.739 79.732C153.68 79.7773 153.669 79.8619 153.715 79.9209C153.76 79.98 153.844 79.9911 153.904 79.9458C153.963 79.9005 153.974 79.8159 153.928 79.7568C153.883 79.6978 153.798 79.6867 153.739 79.732Z" fill="#000088"/>
<path d="M154.054 76.2919L155.132 77.5009L155.742 77.9801L155.263 77.3702L154.054 76.2919Z" fill="#000088"/>
<path d="M153.418 79.1048C153.349 79.1333 153.317 79.2121 153.345 79.2809C153.374 79.3497 153.452 79.3823 153.521 79.3538C153.59 79.3253 153.623 79.2465 153.594 79.1777C153.566 79.109 153.487 79.0763 153.418 79.1048Z" fill="#000088"/>
<path d="M154.612 75.8634L155.341 77.3102L155.806 77.931L155.501 77.2178L154.612 75.8634Z" fill="#000088"/>
<path d="M153.27 78.4159C153.196 78.4256 153.144 78.4933 153.154 78.5671C153.164 78.6409 153.231 78.6928 153.305 78.6831C153.379 78.6734 153.431 78.6057 153.421 78.5319C153.411 78.4581 153.344 78.4062 153.27 78.4159Z" fill="#000088"/>
<path d="M155.262 75.594L155.592 77.1801L155.88 77.9001L155.77 77.1323L155.262 75.594Z" fill="#000088"/>
<path d="M153.305 77.7122C153.231 77.7025 153.164 77.7545 153.154 77.8283C153.144 77.9021 153.196 77.9698 153.27 77.9795C153.344 77.9892 153.411 77.9372 153.421 77.8634C153.431 77.7896 153.379 77.7219 153.305 77.7122Z" fill="#000088"/>
<path d="M155.96 75.5022L155.868 77.1195L155.96 77.8896L156.052 77.1195L155.96 75.5022Z" fill="#000088"/>
<path d="M153.521 77.0417C153.452 77.0132 153.374 77.0458 153.345 77.1146C153.317 77.1834 153.349 77.2622 153.418 77.2907C153.487 77.3192 153.566 77.2865 153.594 77.2178C153.623 77.149 153.59 77.0702 153.521 77.0417Z" fill="#000088"/>
<path d="M156.658 75.594L156.15 77.1323L156.04 77.9002L156.328 77.1802L156.658 75.594Z" fill="#000088"/>
<path d="M153.904 76.45C153.844 76.4046 153.76 76.4158 153.715 76.4748C153.669 76.5339 153.68 76.6185 153.739 76.6638C153.798 76.7091 153.883 76.698 153.928 76.6389C153.974 76.5799 153.963 76.4953 153.904 76.45Z" fill="#000088"/>
<path d="M157.308 75.8635L156.419 77.2179L156.114 77.9311L156.579 77.3103L157.308 75.8635Z" fill="#000088"/>
<path d="M154.426 75.9773C154.381 75.9182 154.296 75.9071 154.237 75.9524C154.178 75.9977 154.167 76.0823 154.212 76.1414C154.257 76.2004 154.342 76.2116 154.401 76.1662C154.46 76.1209 154.471 76.0363 154.426 75.9773Z" fill="#000088"/>
<path d="M157.866 76.2919L156.657 77.3701L156.178 77.9801L156.788 77.5008L157.866 76.2919Z" fill="#000088"/>
<path d="M155.053 75.6559C155.024 75.5871 154.946 75.5544 154.877 75.5829C154.808 75.6114 154.775 75.6903 154.804 75.759C154.832 75.8278 154.911 75.8605 154.98 75.832C155.049 75.8035 155.081 75.7246 155.053 75.6559Z" fill="#000088"/>
<path d="M158.294 76.85L156.848 77.5786L156.227 78.0437L156.94 77.7387L158.294 76.85Z" fill="#000088"/>
<path d="M155.742 75.5077C155.732 75.4339 155.664 75.382 155.591 75.3917C155.517 75.4014 155.465 75.4691 155.475 75.5429C155.484 75.6167 155.552 75.6686 155.626 75.6589C155.7 75.6492 155.751 75.5815 155.742 75.5077Z" fill="#000088"/>
<path d="M158.564 77.5001L156.978 77.8294L156.258 78.118L157.025 78.0079L158.564 77.5001Z" fill="#000088"/>
<path d="M156.445 75.5429C156.455 75.4691 156.403 75.4014 156.329 75.3917C156.256 75.382 156.188 75.4339 156.178 75.5077C156.168 75.5815 156.22 75.6492 156.294 75.6589C156.368 75.6687 156.436 75.6167 156.445 75.5429Z" fill="#000088"/>
<path d="M158.656 78.1979L157.038 78.1055L156.268 78.1979L157.038 78.2903L158.656 78.1979Z" fill="#000088"/>
<path d="M157.116 75.7592C157.145 75.6904 157.112 75.6115 157.043 75.5831C156.974 75.5546 156.895 75.5872 156.867 75.656C156.839 75.7248 156.871 75.8036 156.94 75.8321C157.009 75.8606 157.088 75.8279 157.116 75.7592Z" fill="#000088"/>
<path d="M158.564 78.8956L157.025 78.3877L156.258 78.2777L156.978 78.5663L158.564 78.8956Z" fill="#000088"/>
<path d="M157.708 76.1414C157.753 76.0823 157.742 75.9977 157.683 75.9524C157.624 75.9071 157.539 75.9182 157.494 75.9773C157.449 76.0364 157.46 76.121 157.519 76.1663C157.578 76.2116 157.663 76.2005 157.708 76.1414Z" fill="#000088"/>
<path d="M158.294 79.5456L156.94 78.6569L156.227 78.3518L156.848 78.817L158.294 79.5456Z" fill="#000088"/>
<path d="M158.181 76.6638C158.24 76.6185 158.251 76.5339 158.205 76.4748C158.16 76.4158 158.076 76.4046 158.016 76.4499C157.957 76.4952 157.946 76.5799 157.992 76.6389C158.037 76.698 158.121 76.7091 158.181 76.6638Z" fill="#000088"/>
<path d="M157.866 80.1038L156.788 78.8948L156.178 78.4156L156.657 79.0255L157.866 80.1038Z" fill="#000088"/>
<path d="M158.502 77.291C158.571 77.2625 158.603 77.1836 158.575 77.1149C158.546 77.0461 158.468 77.0134 158.399 77.0419C158.33 77.0704 158.297 77.1493 158.326 77.218C158.354 77.2868 158.433 77.3194 158.502 77.291Z" fill="#000088"/>
<path d="M157.308 80.5324L156.579 79.0855L156.114 78.4648L156.419 79.178L157.308 80.5324Z" fill="#000088"/>
<path d="M158.65 77.9796C158.724 77.9699 158.776 77.9022 158.766 77.8284C158.756 77.7546 158.689 77.7027 158.615 77.7124C158.541 77.7221 158.489 77.7898 158.499 77.8636C158.509 77.9374 158.576 77.9894 158.65 77.9796Z" fill="#000088"/>
<path d="M156.658 80.8015L156.328 79.2154L156.04 78.4954L156.15 79.2632L156.658 80.8015Z" fill="#000088"/>
</g>
<mask id="mask2_144_533" style="mask-type:alpha" maskUnits="userSpaceOnUse" x="84" y="61" width="24" height="24">
<circle cx="96.4477" cy="73.2823" r="11.5523" fill="#D9D9D9"/>
</mask>
<g mask="url(#mask2_144_533)">
<path d="M82.7293 60.2859H89.5885L89.8714 60.8369H103.024L103.307 60.2859H110.166V87.0006H103.307L103.024 86.4496H89.8714L89.5885 87.0006H82.7293V60.2859Z" fill="#FF0000"/>
<path d="M89.9495 66.7842H103.668V80.5026H89.9495V66.7842ZM97.0659 79.4451L96.9373 76.9786C96.9354 76.9381 96.9427 76.8976 96.9585 76.8602C96.9743 76.8228 96.9984 76.7895 97.0288 76.7626C97.0592 76.7357 97.0953 76.716 97.1344 76.7049C97.1735 76.6939 97.2145 76.6917 97.2545 76.6986L99.7095 77.1301L99.378 76.2156C99.3646 76.1792 99.3628 76.1395 99.3731 76.1021C99.3833 76.0647 99.4051 76.0314 99.4352 76.0069L102.125 73.8291L101.519 73.5462C101.478 73.5269 101.445 73.4932 101.427 73.4517C101.409 73.4101 101.407 73.3634 101.421 73.3204L101.953 71.6856L100.404 72.0143C100.362 72.0231 100.318 72.017 100.28 71.9972C100.242 71.9774 100.212 71.9451 100.195 71.9057L99.8953 71.1998L98.6864 72.4973C98.6587 72.5265 98.6224 72.5459 98.5828 72.5526C98.5432 72.5594 98.5024 72.5531 98.4667 72.5348C98.431 72.5164 98.4021 72.487 98.3845 72.4508C98.367 72.4147 98.3616 72.3739 98.3691 72.3344L98.9522 69.3278L98.0176 69.868C97.9957 69.8808 97.9713 69.889 97.9461 69.8921C97.9208 69.8952 97.8952 69.893 97.8708 69.8858C97.8464 69.8785 97.8238 69.8664 97.8043 69.85C97.7848 69.8337 97.7689 69.8135 97.7575 69.7908L96.8087 67.9274L95.8598 69.7908C95.8484 69.8135 95.8325 69.8337 95.813 69.85C95.7935 69.8664 95.7709 69.8785 95.7465 69.8858C95.7221 69.893 95.6965 69.8952 95.6713 69.8921C95.646 69.889 95.6217 69.8808 95.5997 69.868L94.6652 69.3278L95.2482 72.3344C95.2558 72.3739 95.2504 72.4147 95.2328 72.4508C95.2152 72.487 95.1864 72.5164 95.1506 72.5348C95.1149 72.5531 95.0742 72.5594 95.0346 72.5526C94.995 72.5459 94.9586 72.5265 94.931 72.4973L93.722 71.1998L93.422 71.9057C93.405 71.9451 93.375 71.9774 93.337 71.9972C93.299 72.017 93.2553 72.0231 93.2133 72.0143L91.6643 71.6856L92.1959 73.3204C92.21 73.3634 92.2079 73.4101 92.19 73.4517C92.1721 73.4932 92.1396 73.5269 92.0987 73.5462L91.4928 73.8291L94.1822 76.0069C94.2123 76.0314 94.234 76.0647 94.2443 76.1021C94.2545 76.1395 94.2528 76.1792 94.2393 76.2156L93.9078 77.1301L96.3628 76.6986C96.4028 76.6917 96.4439 76.6939 96.483 76.7049C96.522 76.716 96.5581 76.7357 96.5885 76.7626C96.619 76.7895 96.643 76.8228 96.6588 76.8602C96.6747 76.8976 96.6819 76.9381 96.6801 76.9786L96.5515 79.4451H97.0659Z" fill="white"/>
<path d="M89.9495 53.0657H103.668V53.7877V66.7841H89.9495V53.7877V53.0657ZM97.0659 65.7266L96.9373 63.2601C96.9354 63.2196 96.9427 63.1791 96.9585 63.1417C96.9743 63.1043 96.9984 63.071 97.0288 63.0441C97.0592 63.0172 97.0953 62.9975 97.1344 62.9864C97.1735 62.9754 97.2145 62.9732 97.2545 62.9801L99.7095 63.4116L99.378 62.4971C99.3646 62.4607 99.3628 62.421 99.3731 62.3836C99.3833 62.3461 99.4051 62.3129 99.4352 62.2884L102.125 60.1106L101.519 59.8277C101.478 59.8084 101.445 59.7747 101.427 59.7332C101.409 59.6916 101.407 59.6449 101.421 59.6019L101.953 57.9671L100.404 58.2958C100.362 58.3046 100.318 58.2985 100.28 58.2787C100.242 58.2589 100.212 58.2266 100.195 58.1872L99.8953 57.4813L98.6864 58.7788C98.6587 58.808 98.6224 58.8274 98.5828 58.8341C98.5432 58.8409 98.5024 58.8346 98.4667 58.8162C98.431 58.7979 98.4021 58.7685 98.3845 58.7323C98.367 58.6962 98.3616 58.6554 98.3691 58.6159L98.9522 55.6093L98.0176 56.1495C97.9957 56.1623 97.9713 56.1705 97.9461 56.1736C97.9208 56.1767 97.8952 56.1745 97.8708 56.1673C97.8464 56.16 97.8238 56.1479 97.8043 56.1315C97.7848 56.1152 97.7689 56.095 97.7575 56.0723L96.8087 54.2089L95.8598 56.0723C95.8484 56.095 95.8325 56.1152 95.813 56.1315C95.7935 56.1479 95.7709 56.16 95.7465 56.1673C95.7221 56.1745 95.6965 56.1767 95.6713 56.1736C95.646 56.1705 95.6217 56.1623 95.5997 56.1495L94.6652 55.6093L95.2482 58.6159C95.2558 58.6554 95.2504 58.6962 95.2328 58.7323C95.2152 58.7685 95.1864 58.7979 95.1506 58.8162C95.1149 58.8346 95.0742 58.8409 95.0346 58.8341C94.995 58.8274 94.9586 58.808 94.931 58.7788L93.722 57.4813L93.422 58.1872C93.405 58.2266 93.375 58.2589 93.337 58.2787C93.299 58.2985 93.2553 58.3046 93.2133 58.2958L91.6643 57.9671L92.1959 59.6019C92.21 59.6449 92.2079 59.6916 92.19 59.7332C92.1721 59.7747 92.1396 59.8084 92.0987 59.8277L91.4928 60.1106L94.1822 62.2884C94.2123 62.3129 94.234 62.3461 94.2443 62.3836C94.2545 62.421 94.2528 62.4607 94.2393 62.4971L93.9078 63.4116L96.3628 62.9801C96.4028 62.9732 96.4439 62.9754 96.483 62.9864C96.522 62.9975 96.5581 63.0172 96.5885 63.0441C96.619 63.071 96.643 63.1043 96.6588 63.1417C96.6747 63.1791 96.6819 63.2196 96.6801 63.2601L96.5515 65.7266H97.0659Z" fill="white"/>
<path d="M89.9495 79.7805H103.668V80.5025V93.4989H89.9495V80.5025V79.7805ZM97.0659 92.4414L96.9373 89.975C96.9354 89.9344 96.9427 89.894 96.9585 89.8566C96.9743 89.8192 96.9984 89.7858 97.0288 89.759C97.0592 89.7321 97.0953 89.7124 97.1344 89.7013C97.1735 89.6902 97.2145 89.688 97.2545 89.6949L99.7095 90.1265L99.378 89.2119C99.3646 89.1755 99.3628 89.1358 99.3731 89.0984C99.3833 89.061 99.4051 89.0277 99.4352 89.0033L102.125 86.8255L101.519 86.5425C101.478 86.5232 101.445 86.4896 101.427 86.448C101.409 86.4064 101.407 86.3598 101.421 86.3168L101.953 84.682L100.404 85.0106C100.362 85.0194 100.318 85.0134 100.28 84.9936C100.242 84.9738 100.212 84.9414 100.195 84.902L99.8953 84.1961L98.6864 85.4937C98.6587 85.5228 98.6224 85.5422 98.5828 85.549C98.5432 85.5557 98.5024 85.5494 98.4667 85.5311C98.431 85.5127 98.4021 85.4833 98.3845 85.4472C98.367 85.4111 98.3616 85.3702 98.3691 85.3307L98.9522 82.3241L98.0176 82.8643C97.9957 82.8772 97.9713 82.8854 97.9461 82.8884C97.9208 82.8915 97.8952 82.8894 97.8708 82.8821C97.8464 82.8749 97.8238 82.8627 97.8043 82.8464C97.7848 82.83 97.7689 82.8099 97.7575 82.7871L96.8087 80.9237L95.8598 82.7871C95.8484 82.8099 95.8325 82.83 95.813 82.8464C95.7935 82.8627 95.7709 82.8749 95.7465 82.8821C95.7221 82.8894 95.6965 82.8915 95.6713 82.8884C95.646 82.8854 95.6217 82.8772 95.5997 82.8643L94.6652 82.3241L95.2482 85.3307C95.2558 85.3702 95.2504 85.4111 95.2328 85.4472C95.2152 85.4833 95.1864 85.5127 95.1506 85.5311C95.1149 85.5494 95.0742 85.5557 95.0346 85.549C94.995 85.5422 94.9586 85.5228 94.931 85.4937L93.722 84.1961L93.422 84.902C93.405 84.9414 93.375 84.9738 93.337 84.9936C93.299 85.0134 93.2553 85.0194 93.2133 85.0106L91.6643 84.682L92.1959 86.3168C92.21 86.3598 92.2079 86.4064 92.19 86.448C92.1721 86.4896 92.1396 86.5232 92.0987 86.5425L91.4928 86.8255L94.1822 89.0033C94.2123 89.0277 94.234 89.061 94.2443 89.0984C94.2545 89.1358 94.2528 89.1755 94.2393 89.2119L93.9078 90.1265L96.3628 89.6949C96.4028 89.688 96.4439 89.6902 96.483 89.7013C96.522 89.7124 96.5581 89.7321 96.5885 89.759C96.619 89.7858 96.643 89.8192 96.6588 89.8566C96.6747 89.894 96.6819 89.9344 96.6801 89.975L96.5515 92.4414H97.0659Z" fill="white"/>
<rect x="93.5596" y="61.0078" width="6.49818" height="5.05414" fill="white"/>
<rect x="93.5596" y="80.5024" width="6.49818" height="5.05414" fill="white"/>
</g>
<defs>
<linearGradient id="paint0_linear_144_533" x1="6.86715" y1="38" x2="306.867" y2="38" gradientUnits="userSpaceOnUse">
<stop stop-color="white" stop-opacity="0"/>
<stop offset="0.259209" stop-color="white"/>
<stop offset="0.727435" stop-color="white"/>
<stop offset="1" stop-color="white" stop-opacity="0"/>
</linearGradient>
<linearGradient id="paint1_linear_144_533" x1="-3.00001" y1="-6.00004" x2="309.47" y2="58.7036" gradientUnits="userSpaceOnUse">
<stop stop-color="#D2611A"/>
<stop offset="1" stop-color="#D29971"/>
</linearGradient>
<linearGradient id="paint2_linear_144_533" x1="-3.00001" y1="-6.00004" x2="309.47" y2="58.7036" gradientUnits="userSpaceOnUse">
<stop stop-color="#D2611A"/>
<stop offset="1" stop-color="#D29971"/>
</linearGradient>
<linearGradient id="paint3_linear_144_533" x1="-3.00001" y1="-6.00004" x2="309.47" y2="58.7036" gradientUnits="userSpaceOnUse">
<stop stop-color="#D2611A"/>
<stop offset="1" stop-color="#D29971"/>
</linearGradient>
<linearGradient id="paint4_linear_144_533" x1="-3.00001" y1="-6.00004" x2="309.47" y2="58.7036" gradientUnits="userSpaceOnUse">
<stop stop-color="#D2611A"/>
<stop offset="1" stop-color="#D29971"/>
</linearGradient>
<linearGradient id="paint5_linear_144_533" x1="-3.00001" y1="-6.00004" x2="309.47" y2="58.7036" gradientUnits="userSpaceOnUse">
<stop stop-color="#D2611A"/>
<stop offset="1" stop-color="#D29971"/>
</linearGradient>
<linearGradient id="paint6_linear_144_533" x1="-3.00001" y1="-6.00004" x2="309.47" y2="58.7036" gradientUnits="userSpaceOnUse">
<stop stop-color="#D2611A"/>
<stop offset="1" stop-color="#D29971"/>
</linearGradient>
<linearGradient id="paint7_linear_144_533" x1="-3.00001" y1="-6.00004" x2="309.47" y2="58.7036" gradientUnits="userSpaceOnUse">
<stop stop-color="#D2611A"/>
<stop offset="1" stop-color="#D29971"/>
</linearGradient>
<linearGradient id="paint8_linear_144_533" x1="-3.00001" y1="-6.00004" x2="309.47" y2="58.7036" gradientUnits="userSpaceOnUse">
<stop stop-color="#D2611A"/>
<stop offset="1" stop-color="#D29971"/>
</linearGradient>
<linearGradient id="paint9_linear_144_533" x1="-3.00001" y1="-6.00004" x2="309.47" y2="58.7036" gradientUnits="userSpaceOnUse">
<stop stop-color="#D2611A"/>
<stop offset="1" stop-color="#D29971"/>
</linearGradient>
<linearGradient id="paint10_linear_144_533" x1="-3.00001" y1="-6.00004" x2="309.47" y2="58.7036" gradientUnits="userSpaceOnUse">
<stop stop-color="#D2611A"/>
<stop offset="1" stop-color="#D29971"/>
</linearGradient>
<linearGradient id="paint11_linear_144_533" x1="-3.00001" y1="-6.00004" x2="309.47" y2="58.7036" gradientUnits="userSpaceOnUse">
<stop stop-color="#D2611A"/>
<stop offset="1" stop-color="#D29971"/>
</linearGradient>
<linearGradient id="paint12_linear_144_533" x1="-3.00001" y1="-6.00004" x2="309.47" y2="58.7036" gradientUnits="userSpaceOnUse">
<stop stop-color="#D2611A"/>
<stop offset="1" stop-color="#D29971"/>
</linearGradient>
</defs>
</svg>
