<svg width="252" height="72" viewBox="0 0 252 72" fill="none" xmlns="http://www.w3.org/2000/svg">
<path fill-rule="evenodd" clip-rule="evenodd" d="M3.06824 30.1138C20.8879 49.4322 68.9698 63.273 125.488 63.273C182.007 63.273 230.089 49.4322 247.908 30.1138H243.684C243.486 30.2999 243.284 30.4858 243.079 30.6714C236.882 36.2861 227.746 41.48 216.202 45.9034C193.134 54.7426 161.062 60.273 125.488 60.273C89.9141 60.273 57.8429 54.7426 34.7748 45.9034C23.2306 41.48 14.0946 36.2861 7.89701 30.6714C7.69203 30.4858 7.49053 30.2999 7.2925 30.1138H3.06824Z" fill="url(#paint0_linear_367_4553)" fill-opacity="0.8"/>
<path d="M0 0.0126369H9.03538C10.7035 0.0042123 12.1398 0.151643 13.3446 0.454928C14.5577 0.749789 15.556 1.17523 16.3395 1.73126C17.123 2.28728 17.7001 2.95703 18.0708 3.74052C18.4499 4.51559 18.6394 5.37911 18.6394 6.33109C18.6394 7.16512 18.4625 7.96546 18.1087 8.7321C17.7633 9.49031 17.2241 10.1601 16.4912 10.7414C15.7666 11.3227 14.8399 11.786 13.711 12.1314C12.5906 12.4768 11.2553 12.6495 9.70514 12.6495H7.30413V18.7911H0V0.0126369ZM7.30413 9.89469C7.88543 9.88627 8.40354 9.79781 8.85847 9.62932C9.31339 9.4524 9.69671 9.2123 10.0084 8.90901C10.3201 8.5973 10.556 8.22662 10.7161 7.79697C10.8846 7.35889 10.9688 6.87026 10.9688 6.33109C10.9688 5.80034 10.8846 5.32013 10.7161 4.89048C10.5476 4.46083 10.3033 4.09436 9.98315 3.79107C9.67144 3.47936 9.28812 3.23505 8.83319 3.05813C8.38669 2.88121 7.877 2.78433 7.30413 2.76748V9.89469Z" fill="url(#paint1_linear_367_4553)"/>
<path d="M26.8534 4.75147L24.6799 0.0126369H32.3757L41.5754 18.8037H33.3235L31.9334 15.7961H24.5282L23.1508 18.8037H19.9537L26.8534 4.75147ZM30.6066 12.9023L28.2308 7.74642L25.8677 12.9023H30.6066Z" fill="url(#paint2_linear_367_4553)"/>
<path d="M47.4516 2.89385H42.0935V0H60.1137V2.89385H54.7557V18.7911H47.4516V2.89385Z" fill="url(#paint3_linear_367_4553)"/>
<path d="M62.8559 0.0126369H70.1727L70.1601 18.7911H62.8559V0.0126369Z" fill="url(#paint4_linear_367_4553)"/>
<path d="M74.9874 0.0126369H82.7085C84.882 0.0126369 86.7649 0.21904 88.3572 0.631845C89.9494 1.03623 91.2679 1.63437 92.3125 2.42628C93.3572 3.2182 94.1323 4.19124 94.6377 5.34541C95.1432 6.49958 95.396 7.82224 95.396 9.31339C95.396 10.6445 95.1432 11.8871 94.6377 13.0413C94.1323 14.187 93.3572 15.1896 92.3125 16.0489C91.2679 16.8997 89.9494 17.5695 88.3572 18.0581C86.7649 18.5468 84.882 18.7911 82.7085 18.7911H74.9874V0.0126369ZM82.2915 16.0362C83.1339 16.0362 83.8922 15.9056 84.5661 15.6445C85.2401 15.3833 85.8088 14.9789 86.2721 14.4313C86.7439 13.8837 87.1019 13.1887 87.3462 12.3463C87.599 11.4954 87.7253 10.4802 87.7253 9.30076C87.7253 8.12974 87.599 7.13142 87.3462 6.30581C87.0935 5.4802 86.7312 4.80623 86.2595 4.28391C85.7877 3.75316 85.2148 3.36984 84.5409 3.13395C83.8753 2.88964 83.1297 2.76748 82.3041 2.76748L82.2915 16.0362Z" fill="url(#paint5_linear_367_4553)"/>
<path d="M104.292 4.75147L102.119 0.0126369H109.815L119.014 18.8037H110.762L109.372 15.7961H101.967L100.59 18.8037H97.3926L104.292 4.75147ZM108.045 12.9023L105.67 7.74642L103.307 12.9023H108.045Z" fill="url(#paint6_linear_367_4553)"/>
<path d="M121.592 0.0126369H132.422C133.821 0.0126369 135.042 0.160067 136.087 0.454928C137.14 0.749789 138.016 1.16259 138.715 1.69334C139.423 2.22409 139.954 2.86015 140.307 3.60152C140.661 4.34288 140.838 5.16007 140.838 6.05307C140.838 7.1567 140.577 8.13816 140.055 8.99747C139.532 9.84836 138.757 10.5265 137.73 11.032L141.672 18.8037H133.42L130.438 11.9798H128.896V18.7911H121.592V0.0126369ZM129.339 9.6925C129.937 9.6925 130.472 9.60826 130.944 9.43976C131.415 9.27127 131.815 9.03538 132.144 8.7321C132.473 8.42039 132.725 8.05392 132.902 7.63269C133.079 7.20303 133.168 6.73547 133.168 6.22999C133.168 5.72452 133.079 5.26116 132.902 4.83993C132.725 4.41028 132.473 4.04381 132.144 3.74052C131.815 3.42881 131.415 3.18871 130.944 3.02022C130.472 2.85173 129.937 2.76748 129.339 2.76748H128.909L128.896 9.6925H129.339Z" fill="url(#paint7_linear_367_4553)"/>
<path d="M151.739 0.0126369H156.907L164.009 9.84414L170.757 0.0126369H175.787V18.7911H168.495V9.19966L161.495 19.0312L154.519 9.19966V18.7911H151.739V0.0126369Z" fill="url(#paint8_linear_367_4553)"/>
<path d="M180.602 0.0126369H187.918L187.906 18.7911H180.602V0.0126369Z" fill="url(#paint9_linear_367_4553)"/>
<path d="M192.733 0.0126369H200.05L200.037 15.8972H207.215V18.7911H192.733V0.0126369Z" fill="url(#paint10_linear_367_4553)"/>
<path d="M215.416 4.75147L213.243 0.0126369H220.939L230.138 18.8037H221.886L220.496 15.7961H213.091L211.714 18.8037H208.516L215.416 4.75147ZM219.169 12.9023L216.794 7.74642L214.431 12.9023H219.169Z" fill="url(#paint11_linear_367_4553)"/>
<path d="M232.716 0.0126369H237.291L249.207 10.0211L249.22 0.0126369H252V18.7911H247.425L235.496 8.82056V18.7911H232.716V0.0126369Z" fill="url(#paint12_linear_367_4553)"/>
<mask id="mask0_367_4553" style="mask-type:alpha" maskUnits="userSpaceOnUse" x="164" y="49" width="20" height="19">
<circle cx="174.099" cy="58.6487" r="9.34307" fill="#D9D9D9"/>
</mask>
<g mask="url(#mask0_367_4553)">
<path d="M196.873 49.3057H161.836V67.9918H196.873V49.3057Z" fill="#B22234"/>
<path d="M161.836 51.4619H196.873H161.836ZM196.873 54.3367H161.836H196.873ZM161.836 57.2115H196.873H161.836ZM196.873 60.0863H161.836H196.873ZM161.836 62.9611H196.873H161.836ZM196.873 65.8359H161.836H196.873Z" fill="black"/>
<path fill-rule="evenodd" clip-rule="evenodd" d="M196.873 52.1806H161.836V50.7432H196.873V52.1806ZM161.836 53.618H196.873V55.0554H161.836V53.618ZM196.873 57.9301H161.836V56.4927H196.873V57.9301ZM161.836 59.3675H196.873V60.8049H161.836V59.3675ZM196.873 63.6797H161.836V62.2423H196.873V63.6797ZM161.836 65.1171H196.873V66.5545H161.836V65.1171Z" fill="white"/>
<path d="M175.851 49.3057H161.836V59.3674H175.851V49.3057Z" fill="#3C3B6E"/>
<path d="M165.34 49.7368L165.673 50.7769L164.8 50.1341H165.879L165.006 50.7769L165.34 49.7368Z" fill="white"/>
<path d="M165.34 51.7495L165.673 52.7896L164.8 52.1468H165.879L165.006 52.7896L165.34 51.7495Z" fill="white"/>
<path d="M165.34 53.7617L165.673 54.8018L164.8 54.159H165.879L165.006 54.8018L165.34 53.7617Z" fill="white"/>
<path d="M165.34 55.7739L165.673 56.814L164.8 56.1712H165.879L165.006 56.814L165.34 55.7739Z" fill="white"/>
<path d="M165.34 57.7861L165.673 58.8262L164.8 58.1834H165.879L165.006 58.8262L165.34 57.7861Z" fill="white"/>
<path d="M166.508 50.7432L166.841 51.7833L165.968 51.1405H167.047L166.174 51.7833L166.508 50.7432Z" fill="white"/>
<path d="M166.508 52.7554L166.841 53.7955L165.968 53.1527H167.047L166.174 53.7955L166.508 52.7554Z" fill="white"/>
<path d="M166.508 54.7681L166.841 55.8082L165.968 55.1654H167.047L166.174 55.8082L166.508 54.7681Z" fill="white"/>
<path d="M166.508 56.7798L166.841 57.8199L165.968 57.1771H167.047L166.174 57.8199L166.508 56.7798Z" fill="white"/>
<path d="M167.676 49.7368L168.009 50.7769L167.136 50.1341H168.215L167.342 50.7769L167.676 49.7368Z" fill="white"/>
<path d="M167.676 51.7495L168.009 52.7896L167.136 52.1468H168.215L167.342 52.7896L167.676 51.7495Z" fill="white"/>
<path d="M167.676 53.7617L168.009 54.8018L167.136 54.159H168.215L167.342 54.8018L167.676 53.7617Z" fill="white"/>
<path d="M167.676 55.7739L168.009 56.814L167.136 56.1712H168.215L167.342 56.814L167.676 55.7739Z" fill="white"/>
<path d="M167.676 57.7861L168.009 58.8262L167.136 58.1834H168.215L167.342 58.8262L167.676 57.7861Z" fill="white"/>
<path d="M168.843 50.7432L169.177 51.7833L168.304 51.1405H169.383L168.51 51.7833L168.843 50.7432Z" fill="white"/>
<path d="M168.843 52.7554L169.177 53.7955L168.304 53.1527H169.383L168.51 53.7955L168.843 52.7554Z" fill="white"/>
<path d="M168.843 54.7681L169.177 55.8082L168.304 55.1654H169.383L168.51 55.8082L168.843 54.7681Z" fill="white"/>
<path d="M168.843 56.7798L169.177 57.8199L168.304 57.1771H169.383L168.51 57.8199L168.843 56.7798Z" fill="white"/>
<path d="M170.011 49.7368L170.345 50.7769L169.472 50.1341H170.551L169.678 50.7769L170.011 49.7368Z" fill="white"/>
<path d="M170.011 51.7495L170.345 52.7896L169.472 52.1468H170.551L169.678 52.7896L170.011 51.7495Z" fill="white"/>
<path d="M170.011 53.7617L170.345 54.8018L169.472 54.159H170.551L169.678 54.8018L170.011 53.7617Z" fill="white"/>
<path d="M170.011 55.7739L170.345 56.814L169.472 56.1712H170.551L169.678 56.814L170.011 55.7739Z" fill="white"/>
<path d="M170.011 57.7861L170.345 58.8262L169.472 58.1834H170.551L169.678 58.8262L170.011 57.7861Z" fill="white"/>
<path d="M171.179 50.7432L171.513 51.7833L170.64 51.1405H171.719L170.846 51.7833L171.179 50.7432Z" fill="white"/>
<path d="M171.179 52.7554L171.513 53.7955L170.64 53.1527H171.719L170.846 53.7955L171.179 52.7554Z" fill="white"/>
<path d="M171.179 54.7681L171.513 55.8082L170.64 55.1654H171.719L170.846 55.8082L171.179 54.7681Z" fill="white"/>
<path d="M171.179 56.7798L171.513 57.8199L170.64 57.1771H171.719L170.846 57.8199L171.179 56.7798Z" fill="white"/>
<path d="M172.347 49.7368L172.681 50.7769L171.807 50.1341H172.887L172.014 50.7769L172.347 49.7368Z" fill="white"/>
<path d="M172.347 51.7495L172.681 52.7896L171.807 52.1468H172.887L172.014 52.7896L172.347 51.7495Z" fill="white"/>
<path d="M172.347 53.7617L172.681 54.8018L171.807 54.159H172.887L172.014 54.8018L172.347 53.7617Z" fill="white"/>
<path d="M172.347 55.7739L172.681 56.814L171.807 56.1712H172.887L172.014 56.814L172.347 55.7739Z" fill="white"/>
<path d="M172.347 57.7861L172.681 58.8262L171.807 58.1834H172.887L172.014 58.8262L172.347 57.7861Z" fill="white"/>
<path d="M173.515 50.7432L173.849 51.7833L172.975 51.1405H174.055L173.181 51.7833L173.515 50.7432Z" fill="white"/>
<path d="M173.515 52.7554L173.849 53.7955L172.975 53.1527H174.055L173.182 53.7955L173.515 52.7554Z" fill="white"/>
<path d="M173.515 54.7681L173.849 55.8082L172.975 55.1654H174.055L173.182 55.8082L173.515 54.7681Z" fill="white"/>
<path d="M173.515 56.7798L173.849 57.8199L172.975 57.1771H174.055L173.182 57.8199L173.515 56.7798Z" fill="white"/>
<path d="M174.683 49.7368L175.016 50.7769L174.143 50.1341H175.222L174.349 50.7769L174.683 49.7368Z" fill="white"/>
<path d="M174.683 51.7495L175.016 52.7896L174.143 52.1468H175.222L174.349 52.7896L174.683 51.7495Z" fill="white"/>
<path d="M174.683 53.7617L175.016 54.8018L174.143 54.159H175.222L174.349 54.8018L174.683 53.7617Z" fill="white"/>
<path d="M174.683 55.7739L175.016 56.814L174.143 56.1712H175.222L174.349 56.814L174.683 55.7739Z" fill="white"/>
<path d="M174.683 57.7861L175.016 58.8262L174.143 58.1834H175.222L174.349 58.8262L174.683 57.7861Z" fill="white"/>
</g>
<mask id="mask1_367_4553" style="mask-type:alpha" maskUnits="userSpaceOnUse" x="116" y="53" width="20" height="19">
<circle cx="125.968" cy="62.6243" r="9.34307" fill="#D9D9D9"/>
</mask>
<g mask="url(#mask1_367_4553)">
<path d="M111.953 53.2812H139.982V71.9674H111.953V53.2812Z" fill="#FF9933"/>
<path d="M111.953 59.5098H139.982V71.9672H111.953V59.5098Z" fill="white"/>
<path d="M111.953 65.7388H139.982V71.9675H111.953V65.7388Z" fill="#128807"/>
<path d="M125.968 65.1163C127.344 65.1163 128.459 64.0008 128.459 62.6248C128.459 61.2488 127.344 60.1333 125.968 60.1333C124.592 60.1333 123.476 61.2488 123.476 62.6248C123.476 64.0008 124.592 65.1163 125.968 65.1163Z" fill="#000088"/>
<path d="M125.968 64.8044C127.172 64.8044 128.148 63.8284 128.148 62.6244C128.148 61.4204 127.172 60.4443 125.968 60.4443C124.764 60.4443 123.788 61.4204 123.788 62.6244C123.788 63.8284 124.764 64.8044 125.968 64.8044Z" fill="white"/>
<path d="M125.968 63.061C126.208 63.061 126.404 62.8658 126.404 62.625C126.404 62.3842 126.208 62.189 125.968 62.189C125.727 62.189 125.532 62.3842 125.532 62.625C125.532 62.8658 125.727 63.061 125.968 63.061Z" fill="#000088"/>
<path d="M128.115 63.0169C128.175 63.0248 128.23 62.9826 128.238 62.9227C128.246 62.8628 128.204 62.8078 128.144 62.7999C128.084 62.792 128.029 62.8342 128.021 62.8941C128.013 62.9541 128.055 63.009 128.115 63.0169Z" fill="#000088"/>
<path d="M125.968 64.8035L126.042 63.4954L125.968 62.8726L125.893 63.4954L125.968 64.8035Z" fill="#000088"/>
<path d="M127.946 63.5557C128.005 63.5807 128.069 63.5573 128.089 63.5034C128.109 63.4496 128.078 63.3856 128.019 63.3607C127.96 63.3357 127.896 63.3591 127.876 63.413C127.856 63.4668 127.887 63.5308 127.946 63.5557Z" fill="#000088"/>
<path d="M125.423 64.7274L125.828 63.4884L125.886 62.8667L125.645 63.4455L125.423 64.7274Z" fill="#000088"/>
<path d="M127.638 64.0365C127.69 64.0746 127.759 64.0676 127.792 64.0209C127.825 63.9742 127.81 63.9055 127.758 63.8674C127.706 63.8292 127.637 63.8362 127.604 63.8829C127.571 63.9296 127.587 63.9983 127.638 64.0365Z" fill="#000088"/>
<path d="M124.89 64.511L125.604 63.419L125.831 62.8416L125.45 63.3413L124.89 64.511Z" fill="#000088"/>
<path d="M127.213 64.4194C127.252 64.4685 127.321 64.4793 127.366 64.4435C127.412 64.4076 127.416 64.3388 127.376 64.2896C127.336 64.2405 127.267 64.2297 127.222 64.2655C127.177 64.3014 127.173 64.3702 127.213 64.4194Z" fill="#000088"/>
<path d="M124.433 64.1632L125.408 63.2971L125.784 62.8026L125.288 63.186L124.433 64.1632Z" fill="#000088"/>
<path d="M126.693 64.6823C126.712 64.7374 126.776 64.7626 126.836 64.7387C126.896 64.7148 126.929 64.6508 126.91 64.5958C126.891 64.5407 126.827 64.5155 126.767 64.5394C126.707 64.5633 126.674 64.6273 126.693 64.6823Z" fill="#000088"/>
<path d="M124.072 63.7157L125.245 63.1232L125.759 62.7475L125.185 62.9964L124.072 63.7157Z" fill="#000088"/>
<path d="M126.133 64.7997C126.136 64.859 126.192 64.9005 126.257 64.8925C126.322 64.8844 126.372 64.8298 126.369 64.7705C126.366 64.7112 126.31 64.6696 126.245 64.6777C126.18 64.6857 126.13 64.7403 126.133 64.7997Z" fill="#000088"/>
<path d="M123.855 63.1845L125.14 62.9268L125.734 62.6921L125.116 62.775L123.855 63.1845Z" fill="#000088"/>
<path d="M125.577 64.7783C125.567 64.8418 125.606 64.8967 125.664 64.901C125.722 64.9052 125.777 64.8572 125.787 64.7937C125.797 64.7302 125.758 64.6753 125.701 64.671C125.643 64.6667 125.587 64.7148 125.577 64.7783Z" fill="#000088"/>
<path d="M123.792 62.6166L125.09 62.6941L125.714 62.632L125.098 62.56L123.792 62.6166Z" fill="#000088"/>
<path d="M125.031 64.6C125.008 64.6579 125.034 64.7219 125.09 64.7429C125.146 64.7639 125.21 64.734 125.234 64.6761C125.257 64.6182 125.23 64.5543 125.174 64.5332C125.119 64.5122 125.054 64.5421 125.031 64.6Z" fill="#000088"/>
<path d="M123.862 62.0749L125.106 62.4803L125.727 62.545L125.145 62.3063L123.862 62.0749Z" fill="#000088"/>
<path d="M124.545 64.2846C124.512 64.3313 124.528 64.4 124.58 64.4382C124.632 64.4764 124.701 64.4695 124.734 64.4228C124.767 64.3762 124.751 64.3074 124.699 64.2693C124.647 64.2311 124.578 64.238 124.545 64.2846Z" fill="#000088"/>
<path d="M124.072 61.5336L125.185 62.2529L125.759 62.5019L125.245 62.1261L124.072 61.5336Z" fill="#000088"/>
<path d="M124.164 63.8629C124.12 63.8984 124.116 63.9672 124.156 64.0167C124.196 64.0661 124.265 64.0773 124.31 64.0418C124.355 64.0063 124.358 63.9375 124.318 63.8881C124.278 63.8387 124.209 63.8274 124.164 63.8629Z" fill="#000088"/>
<path d="M124.419 61.0816L125.309 62.0598L125.799 62.4513L125.399 61.959L124.419 61.0816Z" fill="#000088"/>
<path d="M123.907 63.3559C123.853 63.3775 123.83 63.4416 123.855 63.4989C123.88 63.5563 123.944 63.5853 123.998 63.5636C124.052 63.542 124.076 63.4779 124.05 63.4206C124.025 63.3632 123.961 63.3342 123.907 63.3559Z" fill="#000088"/>
<path d="M124.872 60.7361L125.475 61.9063L125.849 62.4122L125.593 61.8368L124.872 60.7361Z" fill="#000088"/>
<path d="M123.788 62.7971C123.73 62.8027 123.691 62.8577 123.7 62.9198C123.71 62.9819 123.765 63.0277 123.823 63.022C123.881 63.0163 123.921 62.9614 123.911 62.8993C123.902 62.8371 123.847 62.7914 123.788 62.7971Z" fill="#000088"/>
<path d="M125.397 60.5175L125.679 61.8007L125.91 62.3878L125.81 61.7682L125.397 60.5175Z" fill="#000088"/>
<path d="M123.813 62.2366C123.749 62.2272 123.694 62.2668 123.689 62.3249C123.685 62.383 123.733 62.4377 123.797 62.447C123.861 62.4563 123.916 62.4168 123.921 62.3586C123.925 62.3005 123.877 62.2459 123.813 62.2366Z" fill="#000088"/>
<path d="M125.948 60.452L125.919 61.7455L125.987 62.3707L126.03 61.758L125.948 60.452Z" fill="#000088"/>
<path d="M123.988 61.6933C123.929 61.6687 123.865 61.6926 123.845 61.7468C123.825 61.801 123.857 61.8648 123.916 61.8895C123.975 61.9141 124.04 61.8902 124.06 61.836C124.08 61.7819 124.048 61.718 123.988 61.6933Z" fill="#000088"/>
<path d="M126.514 60.521L126.11 61.7625L126.05 62.3839L126.29 61.8034L126.514 60.521Z" fill="#000088"/>
<path d="M124.297 61.2136C124.246 61.1752 124.177 61.1816 124.143 61.228C124.11 61.2744 124.125 61.3431 124.177 61.3816C124.228 61.42 124.297 61.4136 124.331 61.3672C124.364 61.3208 124.349 61.252 124.297 61.2136Z" fill="#000088"/>
<path d="M127.047 60.7392L126.332 61.8295L126.104 62.4072L126.484 61.9087L127.047 60.7392Z" fill="#000088"/>
<path d="M124.723 60.831C124.683 60.7815 124.614 60.77 124.569 60.8054C124.524 60.8408 124.52 60.9096 124.559 60.9591C124.599 61.0087 124.668 61.0202 124.713 60.9848C124.758 60.9494 124.763 60.8806 124.723 60.831Z" fill="#000088"/>
<path d="M127.503 61.0872L126.527 61.9501L126.151 62.445L126.647 62.0639L127.503 61.0872Z" fill="#000088"/>
<path d="M125.243 60.5677C125.224 60.5126 125.16 60.4874 125.1 60.5113C125.039 60.5352 125.006 60.5992 125.025 60.6542C125.044 60.7093 125.108 60.7345 125.168 60.7106C125.228 60.6867 125.261 60.6227 125.243 60.5677Z" fill="#000088"/>
<path d="M127.863 61.5343L126.69 62.1268L126.176 62.5025L126.75 62.2536L127.863 61.5343Z" fill="#000088"/>
<path d="M125.802 60.4499C125.799 60.3906 125.744 60.349 125.679 60.357C125.614 60.365 125.563 60.4196 125.566 60.479C125.57 60.5383 125.625 60.5799 125.69 60.5719C125.755 60.5639 125.805 60.5093 125.802 60.4499Z" fill="#000088"/>
<path d="M128.081 62.0651L126.795 62.3225L126.201 62.5573L126.82 62.4745L128.081 62.0651Z" fill="#000088"/>
<path d="M126.357 60.4718C126.368 60.4084 126.33 60.3535 126.273 60.3493C126.215 60.345 126.16 60.393 126.149 60.4564C126.139 60.5199 126.176 60.5747 126.234 60.579C126.291 60.5832 126.346 60.5352 126.357 60.4718Z" fill="#000088"/>
<path d="M128.142 62.6325L126.847 62.5552L126.222 62.618L126.836 62.6902L128.142 62.6325Z" fill="#000088"/>
<path d="M126.903 60.6493C126.927 60.5912 126.902 60.5272 126.847 60.5064C126.791 60.4856 126.727 60.5159 126.703 60.574C126.679 60.6321 126.704 60.6961 126.76 60.7169C126.815 60.7377 126.879 60.7074 126.903 60.6493Z" fill="#000088"/>
<path d="M128.072 63.1715L126.831 62.7671L126.209 62.7077L126.79 62.9475L128.072 63.1715Z" fill="#000088"/>
<path d="M127.381 60.9614C127.419 60.9125 127.412 60.8436 127.365 60.8076C127.318 60.7716 127.249 60.782 127.211 60.8309C127.173 60.8798 127.18 60.9486 127.227 60.9847C127.274 61.0207 127.343 61.0102 127.381 60.9614Z" fill="#000088"/>
<path d="M127.853 63.7111L126.764 62.9937L126.186 62.7532L126.684 63.1308L127.853 63.7111Z" fill="#000088"/>
<path d="M127.762 61.3813C127.812 61.3432 127.824 61.2744 127.789 61.2276C127.753 61.1808 127.684 61.1737 127.635 61.2118C127.585 61.2499 127.573 61.3187 127.608 61.3655C127.643 61.4123 127.712 61.4194 127.762 61.3813Z" fill="#000088"/>
<path d="M127.508 64.1656L126.642 63.1874L126.147 62.8035L126.53 63.2983L127.508 64.1656Z" fill="#000088"/>
<path d="M128.022 61.8905C128.079 61.8665 128.108 61.8024 128.086 61.7475C128.064 61.6925 128 61.6674 127.943 61.6914C127.886 61.7154 127.857 61.7794 127.879 61.8344C127.9 61.8894 127.964 61.9145 128.022 61.8905Z" fill="#000088"/>
<path d="M127.054 64.5109L126.475 63.3411L126.097 62.842L126.336 63.4197L127.054 64.5109Z" fill="#000088"/>
<path d="M128.142 62.446C128.204 62.4372 128.248 62.3825 128.242 62.3238C128.236 62.2652 128.181 62.2247 128.119 62.2336C128.057 62.2424 128.012 62.2971 128.018 62.3557C128.025 62.4144 128.08 62.4548 128.142 62.446Z" fill="#000088"/>
<path d="M126.525 64.7296L126.275 63.4472L126.039 62.8667L126.117 63.4881L126.525 64.7296Z" fill="#000088"/>
</g>
<mask id="mask2_367_4553" style="mask-type:alpha" maskUnits="userSpaceOnUse" x="68" y="49" width="20" height="19">
<circle cx="77.8364" cy="58.6487" r="9.34307" fill="#D9D9D9"/>
</mask>
<g mask="url(#mask2_367_4553)">
<path d="M66.7415 48.1377H72.2889L72.5177 48.5833H83.155L83.3838 48.1377H88.9312V69.7435H83.3838L83.155 69.2979H72.5177L72.2889 69.7435H66.7415V48.1377Z" fill="#FF0000"/>
<path d="M72.5809 53.3931H83.6758V64.488H72.5809V53.3931ZM78.3364 63.6327L78.2324 61.638C78.2309 61.6052 78.2367 61.5724 78.2495 61.5422C78.2623 61.512 78.2818 61.485 78.3064 61.4632C78.331 61.4415 78.3602 61.4256 78.3918 61.4166C78.4234 61.4076 78.4566 61.4059 78.4889 61.4114L80.4745 61.7605L80.2063 61.0208C80.1955 60.9914 80.1941 60.9593 80.2024 60.929C80.2106 60.8988 80.2282 60.8718 80.2526 60.8521L82.4276 59.0908L81.9376 58.8619C81.9045 58.8463 81.8783 58.8191 81.8638 58.7855C81.8493 58.7519 81.8476 58.7141 81.859 58.6793L82.2889 57.3572L81.0361 57.623C81.0022 57.6301 80.9669 57.6252 80.9361 57.6092C80.9053 57.5932 80.8811 57.567 80.8674 57.5352L80.6247 56.9642L79.647 58.0136C79.6246 58.0372 79.5952 58.0529 79.5632 58.0584C79.5311 58.0638 79.4982 58.0588 79.4693 58.0439C79.4404 58.0291 79.4171 58.0053 79.4029 57.976C79.3886 57.9468 79.3843 57.9138 79.3904 57.8819L79.8619 55.4502L79.1061 55.8871C79.0883 55.8975 79.0686 55.9042 79.0482 55.9066C79.0278 55.9091 79.0071 55.9074 78.9874 55.9015C78.9677 55.8957 78.9494 55.8858 78.9336 55.8726C78.9178 55.8594 78.9049 55.8431 78.8957 55.8247L78.1284 54.3176L77.361 55.8247C77.3518 55.8431 77.3389 55.8594 77.3231 55.8726C77.3073 55.8858 77.289 55.8957 77.2693 55.9015C77.2496 55.9074 77.2289 55.9091 77.2085 55.9066C77.1881 55.9042 77.1684 55.8975 77.1506 55.8871L76.3948 55.4502L76.8663 57.8819C76.8724 57.9138 76.8681 57.9468 76.8538 57.976C76.8396 58.0053 76.8163 58.0291 76.7874 58.0439C76.7585 58.0588 76.7256 58.0638 76.6935 58.0584C76.6615 58.0529 76.6321 58.0372 76.6097 58.0136L75.632 56.9642L75.3893 57.5352C75.3756 57.567 75.3514 57.5932 75.3206 57.6092C75.2898 57.6252 75.2545 57.6301 75.2206 57.623L73.9678 57.3572L74.3977 58.6793C74.4091 58.7141 74.4074 58.7519 74.3929 58.7855C74.3784 58.8191 74.3522 58.8463 74.3191 58.8619L73.8291 59.0908L76.0041 60.8521C76.0285 60.8718 76.0461 60.8988 76.0543 60.929C76.0626 60.9593 76.0612 60.9914 76.0504 61.0208L75.7822 61.7605L77.7678 61.4114C77.8001 61.4059 77.8333 61.4076 77.8649 61.4166C77.8965 61.4256 77.9257 61.4415 77.9503 61.4632C77.9749 61.485 77.9944 61.512 78.0072 61.5422C78.02 61.5724 78.0258 61.6052 78.0243 61.638L77.9203 63.6327H78.3364Z" fill="white"/>
<path d="M72.5809 42.2983H83.6758V42.8823V53.3932H72.5809V42.8823V42.2983ZM78.3364 52.538L78.2324 50.5432C78.2309 50.5104 78.2367 50.4777 78.2495 50.4475C78.2623 50.4172 78.2818 50.3902 78.3064 50.3685C78.331 50.3468 78.3602 50.3308 78.3918 50.3219C78.4234 50.3129 78.4566 50.3111 78.4889 50.3167L80.4745 50.6657L80.2063 49.9261C80.1955 49.8967 80.1941 49.8646 80.2024 49.8343C80.2106 49.804 80.2282 49.7771 80.2526 49.7573L82.4276 47.996L81.9376 47.7672C81.9045 47.7516 81.8783 47.7244 81.8638 47.6908C81.8493 47.6571 81.8476 47.6194 81.859 47.5846L82.2889 46.2625L81.0361 46.5283C81.0022 46.5353 80.9669 46.5305 80.9361 46.5145C80.9053 46.4984 80.8811 46.4723 80.8674 46.4404L80.6247 45.8695L79.647 46.9189C79.6246 46.9425 79.5952 46.9582 79.5632 46.9636C79.5311 46.9691 79.4982 46.964 79.4693 46.9492C79.4404 46.9343 79.4171 46.9105 79.4029 46.8813C79.3886 46.8521 79.3843 46.8191 79.3904 46.7871L79.8619 44.3555L79.1061 44.7924C79.0883 44.8028 79.0686 44.8094 79.0482 44.8119C79.0278 44.8144 79.0071 44.8126 78.9874 44.8068C78.9677 44.8009 78.9494 44.7911 78.9336 44.7779C78.9178 44.7647 78.9049 44.7484 78.8957 44.73L78.1284 43.2229L77.361 44.73C77.3518 44.7484 77.3389 44.7647 77.3231 44.7779C77.3073 44.7911 77.289 44.8009 77.2693 44.8068C77.2496 44.8126 77.2289 44.8144 77.2085 44.8119C77.1881 44.8094 77.1684 44.8028 77.1506 44.7924L76.3948 44.3555L76.8663 46.7871C76.8724 46.8191 76.8681 46.8521 76.8538 46.8813C76.8396 46.9105 76.8163 46.9343 76.7874 46.9492C76.7585 46.964 76.7256 46.9691 76.6935 46.9636C76.6615 46.9582 76.6321 46.9425 76.6097 46.9189L75.632 45.8695L75.3893 46.4404C75.3756 46.4723 75.3514 46.4984 75.3206 46.5145C75.2898 46.5305 75.2545 46.5353 75.2206 46.5283L73.9678 46.2625L74.3977 47.5846C74.4091 47.6194 74.4074 47.6571 74.3929 47.6908C74.3784 47.7244 74.3522 47.7516 74.3191 47.7672L73.8291 47.996L76.0041 49.7573C76.0285 49.7771 76.0461 49.804 76.0543 49.8343C76.0626 49.8646 76.0612 49.8967 76.0504 49.9261L75.7822 50.6657L77.7678 50.3167C77.8001 50.3111 77.8333 50.3129 77.8649 50.3219C77.8965 50.3308 77.9257 50.3468 77.9503 50.3685C77.9749 50.3902 77.9944 50.4172 78.0072 50.4475C78.02 50.4777 78.0258 50.5104 78.0243 50.5432L77.9203 52.538H78.3364Z" fill="white"/>
<path d="M72.5809 63.9043H83.6758V64.4882V74.9992H72.5809V64.4882V63.9043ZM78.3364 74.144L78.2324 72.1492C78.2309 72.1164 78.2367 72.0837 78.2495 72.0534C78.2623 72.0232 78.2818 71.9962 78.3064 71.9745C78.331 71.9527 78.3602 71.9368 78.3918 71.9278C78.4234 71.9189 78.4566 71.9171 78.4889 71.9227L80.4745 72.2717L80.2063 71.532C80.1955 71.5026 80.1941 71.4705 80.2024 71.4402C80.2106 71.41 80.2282 71.3831 80.2526 71.3633L82.4276 69.602L81.9376 69.3732C81.9045 69.3575 81.8783 69.3303 81.8638 69.2967C81.8493 69.2631 81.8476 69.2253 81.859 69.1906L82.2889 67.8684L81.0361 68.1342C81.0022 68.1413 80.9669 68.1364 80.9361 68.1204C80.9053 68.1044 80.8811 68.0783 80.8674 68.0464L80.6247 67.4755L79.647 68.5249C79.6246 68.5484 79.5952 68.5641 79.5632 68.5696C79.5311 68.5751 79.4982 68.57 79.4693 68.5551C79.4404 68.5403 79.4171 68.5165 79.4029 68.4873C79.3886 68.4581 79.3843 68.425 79.3904 68.3931L79.8619 65.9615L79.1061 66.3983C79.0883 66.4087 79.0686 66.4154 79.0482 66.4179C79.0278 66.4203 79.0071 66.4186 78.9874 66.4128C78.9677 66.4069 78.9494 66.3971 78.9336 66.3838C78.9178 66.3706 78.9049 66.3543 78.8957 66.3359L78.1284 64.8289L77.361 66.3359C77.3518 66.3543 77.3389 66.3706 77.3231 66.3838C77.3073 66.3971 77.289 66.4069 77.2693 66.4128C77.2496 66.4186 77.2289 66.4203 77.2085 66.4179C77.1881 66.4154 77.1684 66.4087 77.1506 66.3983L76.3948 65.9615L76.8663 68.3931C76.8724 68.425 76.8681 68.4581 76.8538 68.4873C76.8396 68.5165 76.8163 68.5403 76.7874 68.5551C76.7585 68.57 76.7256 68.5751 76.6935 68.5696C76.6615 68.5641 76.6321 68.5484 76.6097 68.5249L75.632 67.4755L75.3893 68.0464C75.3756 68.0783 75.3514 68.1044 75.3206 68.1204C75.2898 68.1364 75.2545 68.1413 75.2206 68.1342L73.9678 67.8684L74.3977 69.1906C74.4091 69.2253 74.4074 69.2631 74.3929 69.2967C74.3784 69.3303 74.3522 69.3575 74.3191 69.3732L73.8291 69.602L76.0041 71.3633C76.0285 71.3831 76.0461 71.41 76.0543 71.4402C76.0626 71.4705 76.0612 71.5026 76.0504 71.532L75.7822 72.2717L77.7678 71.9227C77.8001 71.9171 77.8333 71.9189 77.8649 71.9278C77.8965 71.9368 77.9257 71.9527 77.9503 71.9745C77.9749 71.9962 77.9944 72.0232 78.0072 72.0534C78.02 72.0837 78.0258 72.1164 78.0243 72.1492L77.9203 74.144H78.3364Z" fill="white"/>
<rect x="75.5006" y="48.7222" width="5.25548" height="4.08759" fill="white"/>
<rect x="75.5006" y="64.4883" width="5.25548" height="4.08759" fill="white"/>
</g>
<defs>
<linearGradient id="paint0_linear_367_4553" x1="5.3871" y1="30.1138" x2="248.016" y2="30.1137" gradientUnits="userSpaceOnUse">
<stop stop-color="white" stop-opacity="0"/>
<stop offset="0.259209" stop-color="#D9D9D9"/>
<stop offset="0.727435" stop-color="#D9D9D9"/>
<stop offset="1" stop-color="white" stop-opacity="0"/>
</linearGradient>
<linearGradient id="paint1_linear_367_4553" x1="-2.59309" y1="-5.47181" x2="250.121" y2="46.858" gradientUnits="userSpaceOnUse">
<stop stop-color="#D2611A"/>
<stop offset="1" stop-color="#D29971"/>
</linearGradient>
<linearGradient id="paint2_linear_367_4553" x1="-2.59309" y1="-5.47181" x2="250.121" y2="46.858" gradientUnits="userSpaceOnUse">
<stop stop-color="#D2611A"/>
<stop offset="1" stop-color="#D29971"/>
</linearGradient>
<linearGradient id="paint3_linear_367_4553" x1="-2.59309" y1="-5.47181" x2="250.121" y2="46.858" gradientUnits="userSpaceOnUse">
<stop stop-color="#D2611A"/>
<stop offset="1" stop-color="#D29971"/>
</linearGradient>
<linearGradient id="paint4_linear_367_4553" x1="-2.59309" y1="-5.47181" x2="250.121" y2="46.858" gradientUnits="userSpaceOnUse">
<stop stop-color="#D2611A"/>
<stop offset="1" stop-color="#D29971"/>
</linearGradient>
<linearGradient id="paint5_linear_367_4553" x1="-2.59309" y1="-5.47181" x2="250.121" y2="46.858" gradientUnits="userSpaceOnUse">
<stop stop-color="#D2611A"/>
<stop offset="1" stop-color="#D29971"/>
</linearGradient>
<linearGradient id="paint6_linear_367_4553" x1="-2.59309" y1="-5.47181" x2="250.121" y2="46.858" gradientUnits="userSpaceOnUse">
<stop stop-color="#D2611A"/>
<stop offset="1" stop-color="#D29971"/>
</linearGradient>
<linearGradient id="paint7_linear_367_4553" x1="-2.59309" y1="-5.47181" x2="250.121" y2="46.858" gradientUnits="userSpaceOnUse">
<stop stop-color="#D2611A"/>
<stop offset="1" stop-color="#D29971"/>
</linearGradient>
<linearGradient id="paint8_linear_367_4553" x1="-2.59309" y1="-5.47181" x2="250.121" y2="46.858" gradientUnits="userSpaceOnUse">
<stop stop-color="#D2611A"/>
<stop offset="1" stop-color="#D29971"/>
</linearGradient>
<linearGradient id="paint9_linear_367_4553" x1="-2.59309" y1="-5.47181" x2="250.121" y2="46.858" gradientUnits="userSpaceOnUse">
<stop stop-color="#D2611A"/>
<stop offset="1" stop-color="#D29971"/>
</linearGradient>
<linearGradient id="paint10_linear_367_4553" x1="-2.59309" y1="-5.47181" x2="250.121" y2="46.858" gradientUnits="userSpaceOnUse">
<stop stop-color="#D2611A"/>
<stop offset="1" stop-color="#D29971"/>
</linearGradient>
<linearGradient id="paint11_linear_367_4553" x1="-2.59309" y1="-5.47181" x2="250.121" y2="46.858" gradientUnits="userSpaceOnUse">
<stop stop-color="#D2611A"/>
<stop offset="1" stop-color="#D29971"/>
</linearGradient>
<linearGradient id="paint12_linear_367_4553" x1="-2.59309" y1="-5.47181" x2="250.121" y2="46.858" gradientUnits="userSpaceOnUse">
<stop stop-color="#D2611A"/>
<stop offset="1" stop-color="#D29971"/>
</linearGradient>
</defs>
</svg>
