<svg width="327" height="90" viewBox="0 0 327 90" fill="none" xmlns="http://www.w3.org/2000/svg">
<path fill-rule="evenodd" clip-rule="evenodd" d="M12 38C34.0332 61.8864 93.4845 79 163.367 79C233.25 79 292.701 61.8864 314.734 38H310.54C310.119 38.4061 309.686 38.8112 309.24 39.2153C301.489 46.237 290.106 52.698 275.784 58.1857C247.162 69.1532 207.417 76 163.367 76C119.317 76 79.5726 69.1532 50.95 58.1857C36.6286 52.698 25.2451 46.237 17.4943 39.2153C17.0483 38.8112 16.6151 38.4061 16.1948 38H12Z" fill="url(#paint0_linear_154_1353)"/>
<path d="M0.706299 12.4062C0.706299 11.3021 0.846924 10.2396 1.12817 9.21875C1.41984 8.1875 1.84172 7.22917 2.3938 6.34375C2.94588 5.45833 3.62297 4.65104 4.42505 3.92188C5.22713 3.19271 6.13859 2.56771 7.15942 2.04688C8.19067 1.52604 9.32609 1.125 10.5657 0.84375C11.8053 0.552083 13.1386 0.40625 14.5657 0.40625C15.4823 0.40625 16.3573 0.463542 17.1907 0.578125C18.0344 0.692708 18.8261 0.854167 19.5657 1.0625C20.3053 1.26042 20.9875 1.49479 21.6125 1.76562C22.248 2.02604 22.8209 2.30208 23.3313 2.59375L21.9875 5.21875C21.4042 4.9375 20.7375 4.70312 19.9875 4.51562C19.248 4.31771 18.4771 4.21875 17.675 4.21875C16.6021 4.21875 15.6073 4.41146 14.6907 4.79688C13.774 5.18229 12.9823 5.72917 12.3157 6.4375C11.649 7.14583 11.123 8.00521 10.7375 9.01562C10.3625 10.0156 10.175 11.1406 10.175 12.3906C10.175 13.6302 10.3625 14.7552 10.7375 15.7656C11.1125 16.7656 11.6282 17.625 12.2844 18.3438C12.9511 19.0521 13.7375 19.6042 14.6438 20C15.5605 20.3854 16.55 20.5781 17.6125 20.5781V12.7188H26.7219L25.0969 15.6719V21.9844L25.1125 22.0156C24.6021 22.3177 23.9719 22.6094 23.2219 22.8906C22.4719 23.1719 21.6334 23.4271 20.7063 23.6562C19.7896 23.875 18.8105 24.0521 17.7688 24.1875C16.7271 24.3229 15.6594 24.3906 14.5657 24.3906C12.4303 24.3906 10.5032 24.0781 8.78442 23.4531C7.07609 22.8177 5.62297 21.9583 4.42505 20.875C3.22713 19.7812 2.30526 18.5104 1.65942 17.0625C1.02401 15.6042 0.706299 14.0521 0.706299 12.4062Z" fill="url(#paint1_linear_154_1353)"/>
<path d="M30.1282 0.78125H39.1594V15.5312C39.1594 16.3646 39.2688 17.0885 39.4875 17.7031C39.7167 18.3073 40.0292 18.8125 40.425 19.2188C40.8313 19.6146 41.3053 19.9115 41.8469 20.1094C42.3886 20.3073 42.9719 20.4062 43.5969 20.4062C44.2844 20.4062 44.899 20.3073 45.4407 20.1094C45.9928 19.9115 46.4615 19.6094 46.8469 19.2031C47.2323 18.7969 47.5292 18.2865 47.7375 17.6719C47.9459 17.0573 48.05 16.3333 48.05 15.5V0.78125H51.4875V14.9688C51.4875 16.4062 51.2532 17.7031 50.7844 18.8594C50.3261 20.0156 49.6698 21.0052 48.8157 21.8281C47.9615 22.6406 46.9303 23.2656 45.7219 23.7031C44.5136 24.1406 43.1646 24.3594 41.675 24.3594C39.6438 24.3594 37.899 24.1458 36.4407 23.7188C34.9823 23.2812 33.7844 22.6615 32.8469 21.8594C31.9094 21.0469 31.2219 20.0677 30.7844 18.9219C30.3469 17.776 30.1282 16.4844 30.1282 15.0469V0.78125Z" fill="url(#paint2_linear_154_1353)"/>
<path d="M56.9563 0.78125H65.9875V20.4062C65.998 21.875 65.774 23.2448 65.3157 24.5156C64.8678 25.7969 64.2011 26.9271 63.3157 27.9062C62.4303 28.8958 61.3469 29.7135 60.0657 30.3594C58.7844 31.0156 57.3313 31.4479 55.7063 31.6562L54.5813 29.7656C54.998 29.4531 55.3521 29.1198 55.6438 28.7656C55.9459 28.4115 56.1907 28 56.3782 27.5312C56.5761 27.0729 56.7219 26.5417 56.8157 25.9375C56.9094 25.3438 56.9563 24.6458 56.9563 23.8438V0.78125Z" fill="url(#paint3_linear_154_1353)"/>
<path d="M78.3625 6.64062L75.675 0.78125H85.1907L96.5657 24.0156H86.3625L84.6438 20.2969H75.4875L73.7844 24.0156H69.8313L78.3625 6.64062ZM83.0032 16.7188L80.0657 10.3438L77.1438 16.7188H83.0032Z" fill="url(#paint4_linear_154_1353)"/>
<path d="M99.7532 0.78125H113.144C114.873 0.78125 116.383 0.963542 117.675 1.32812C118.977 1.69271 120.06 2.20312 120.925 2.85938C121.8 3.51562 122.456 4.30208 122.894 5.21875C123.331 6.13542 123.55 7.14583 123.55 8.25C123.55 9.61458 123.227 10.8281 122.581 11.8906C121.935 12.9427 120.977 13.7812 119.706 14.4062L124.581 24.0156H114.378L110.691 15.5781H108.784V24H99.7532V0.78125ZM109.331 12.75C110.071 12.75 110.732 12.6458 111.316 12.4375C111.899 12.2292 112.394 11.9375 112.8 11.5625C113.206 11.1771 113.519 10.724 113.738 10.2031C113.956 9.67188 114.066 9.09375 114.066 8.46875C114.066 7.84375 113.956 7.27083 113.738 6.75C113.519 6.21875 113.206 5.76562 112.8 5.39062C112.394 5.00521 111.899 4.70833 111.316 4.5C110.732 4.29167 110.071 4.1875 109.331 4.1875H108.8L108.784 12.75H109.331Z" fill="url(#paint5_linear_154_1353)"/>
<path d="M135.331 6.64062L132.644 0.78125H142.159L153.534 24.0156H143.331L141.613 20.2969H132.456L130.753 24.0156H126.8L135.331 6.64062ZM139.972 16.7188L137.034 10.3438L134.113 16.7188H139.972Z" fill="url(#paint6_linear_154_1353)"/>
<path d="M160.8 4.34375H154.175V0.765625H176.456V4.34375H169.831V24H160.8V4.34375Z" fill="url(#paint7_linear_154_1353)"/>
<path d="M179.847 0.78125H188.894L188.878 24H179.847V0.78125Z" fill="url(#paint8_linear_154_1353)"/>
<path d="M202.966 0.78125H209.356L218.138 12.9375L226.481 0.78125H232.7V24H223.684V12.1406L215.028 24.2969L206.403 12.1406V24H202.966V0.78125Z" fill="url(#paint9_linear_154_1353)"/>
<path d="M238.653 0.78125H247.7L247.684 24H238.653V0.78125Z" fill="url(#paint10_linear_154_1353)"/>
<path d="M253.653 0.78125H262.7L262.684 20.4219H271.559V24H253.653V0.78125Z" fill="url(#paint11_linear_154_1353)"/>
<path d="M281.7 6.64062L279.013 0.78125H288.528L299.903 24.0156H289.7L287.981 20.2969H278.825L277.122 24.0156H273.169L281.7 6.64062ZM286.341 16.7188L283.403 10.3438L280.481 16.7188H286.341Z" fill="url(#paint12_linear_154_1353)"/>
<path d="M303.091 0.78125H308.747L323.481 13.1562L323.497 0.78125H326.934V24H321.278L306.528 11.6719V24H303.091V0.78125Z" fill="url(#paint13_linear_154_1353)"/>
<mask id="mask0_154_1353" style="mask-type:alpha" maskUnits="userSpaceOnUse" x="211" y="61" width="25" height="24">
<circle cx="223.472" cy="73.2823" r="11.5523" fill="#D9D9D9"/>
</mask>
<g mask="url(#mask0_154_1353)">
<path d="M251.631 61.73H208.31V84.8346H251.631V61.73Z" fill="#B22234"/>
<path d="M208.31 64.396H251.631ZM251.631 67.9506H208.31ZM208.31 71.5051H251.631ZM251.631 75.0597H208.31ZM208.31 78.6142H251.631ZM251.631 82.1688H208.31Z" fill="black"/>
<path fill-rule="evenodd" clip-rule="evenodd" d="M251.631 65.2846H208.31V63.5073H251.631V65.2846ZM208.31 67.0619H251.631V68.8392H208.31V67.0619ZM251.631 72.3937H208.31V70.6164H251.631V72.3937ZM208.31 74.171H251.631V75.9483H208.31V74.171ZM251.631 79.5028H208.31V77.7256H251.631V79.5028ZM208.31 81.2801H251.631V83.0574H208.31V81.2801Z" fill="white"/>
<path d="M225.638 61.73H208.31V74.1709H225.638V61.73Z" fill="#3C3B6E"/>
<path d="M212.642 62.2632L213.054 63.5492L211.975 62.7544H213.309L212.23 63.5492L212.642 62.2632Z" fill="white"/>
<path d="M212.642 64.7515L213.054 66.0375L211.975 65.2427H213.309L212.23 66.0375L212.642 64.7515Z" fill="white"/>
<path d="M212.642 67.2395L213.054 68.5256L211.975 67.7307H213.309L212.23 68.5256L212.642 67.2395Z" fill="white"/>
<path d="M212.642 69.7278L213.054 71.0138L211.975 70.219H213.309L212.23 71.0138L212.642 69.7278Z" fill="white"/>
<path d="M212.642 72.2161L213.054 73.5021L211.975 72.7073H213.309L212.23 73.5021L212.642 72.2161Z" fill="white"/>
<path d="M214.086 63.5073L214.499 64.7934L213.419 63.9986H214.753L213.674 64.7934L214.086 63.5073Z" fill="white"/>
<path d="M214.086 65.9956L214.499 67.2817L213.419 66.4868H214.753L213.674 67.2817L214.086 65.9956Z" fill="white"/>
<path d="M214.086 68.4836L214.499 69.7697L213.419 68.9749H214.753L213.674 69.7697L214.086 68.4836Z" fill="white"/>
<path d="M214.086 70.9719L214.499 72.258L213.419 71.4632H214.753L213.674 72.258L214.086 70.9719Z" fill="white"/>
<path d="M215.53 62.2632L215.943 63.5492L214.863 62.7544H216.197L215.118 63.5492L215.53 62.2632Z" fill="white"/>
<path d="M215.53 64.7515L215.943 66.0375L214.863 65.2427H216.197L215.118 66.0375L215.53 64.7515Z" fill="white"/>
<path d="M215.53 67.2395L215.943 68.5256L214.863 67.7307H216.197L215.118 68.5256L215.53 67.2395Z" fill="white"/>
<path d="M215.53 69.7278L215.943 71.0138L214.863 70.219H216.197L215.118 71.0138L215.53 69.7278Z" fill="white"/>
<path d="M215.53 72.2161L215.943 73.5021L214.863 72.7073H216.197L215.118 73.5021L215.53 72.2161Z" fill="white"/>
<path d="M216.974 63.5073L217.387 64.7934L216.307 63.9986H217.641L216.562 64.7934L216.974 63.5073Z" fill="white"/>
<path d="M216.974 65.9956L217.387 67.2817L216.307 66.4868H217.641L216.562 67.2817L216.974 65.9956Z" fill="white"/>
<path d="M216.974 68.4836L217.387 69.7697L216.307 68.9749H217.641L216.562 69.7697L216.974 68.4836Z" fill="white"/>
<path d="M216.974 70.9719L217.387 72.258L216.307 71.4632H217.641L216.562 72.258L216.974 70.9719Z" fill="white"/>
<path d="M218.418 62.2632L218.831 63.5492L217.751 62.7544H219.085L218.006 63.5492L218.418 62.2632Z" fill="white"/>
<path d="M218.418 64.7515L218.831 66.0375L217.751 65.2427H219.085L218.006 66.0375L218.418 64.7515Z" fill="white"/>
<path d="M218.418 67.2395L218.831 68.5256L217.751 67.7307H219.085L218.006 68.5256L218.418 67.2395Z" fill="white"/>
<path d="M218.418 69.7278L218.831 71.0138L217.751 70.219H219.085L218.006 71.0138L218.418 69.7278Z" fill="white"/>
<path d="M218.418 72.2161L218.831 73.5021L217.751 72.7073H219.085L218.006 73.5021L218.418 72.2161Z" fill="white"/>
<path d="M219.862 63.5073L220.275 64.7934L219.195 63.9986H220.53L219.45 64.7934L219.862 63.5073Z" fill="white"/>
<path d="M219.862 65.9956L220.275 67.2817L219.195 66.4868H220.53L219.45 67.2817L219.862 65.9956Z" fill="white"/>
<path d="M219.862 68.4836L220.275 69.7697L219.195 68.9749H220.53L219.45 69.7697L219.862 68.4836Z" fill="white"/>
<path d="M219.862 70.9719L220.275 72.258L219.195 71.4632H220.53L219.45 72.258L219.862 70.9719Z" fill="white"/>
<path d="M221.306 62.2632L221.719 63.5492L220.639 62.7544H221.974L220.894 63.5492L221.306 62.2632Z" fill="white"/>
<path d="M221.306 64.7515L221.719 66.0375L220.639 65.2427H221.974L220.894 66.0375L221.306 64.7515Z" fill="white"/>
<path d="M221.306 67.2395L221.719 68.5256L220.639 67.7307H221.974L220.894 68.5256L221.306 67.2395Z" fill="white"/>
<path d="M221.306 69.7278L221.719 71.0138L220.639 70.219H221.974L220.894 71.0138L221.306 69.7278Z" fill="white"/>
<path d="M221.306 72.2161L221.719 73.5021L220.639 72.7073H221.974L220.894 73.5021L221.306 72.2161Z" fill="white"/>
<path d="M222.75 63.5073L223.163 64.7934L222.083 63.9986H223.418L222.338 64.7934L222.75 63.5073Z" fill="white"/>
<path d="M222.75 65.9956L223.163 67.2817L222.083 66.4868H223.418L222.338 67.2817L222.75 65.9956Z" fill="white"/>
<path d="M222.75 68.4836L223.163 69.7697L222.083 68.9749H223.418L222.338 69.7697L222.75 68.4836Z" fill="white"/>
<path d="M222.75 70.9719L223.163 72.258L222.083 71.4632H223.418L222.338 72.258L222.75 70.9719Z" fill="white"/>
<path d="M224.194 62.2632L224.607 63.5492L223.527 62.7544H224.862L223.782 63.5492L224.194 62.2632Z" fill="white"/>
<path d="M224.194 64.7515L224.607 66.0375L223.527 65.2427H224.862L223.782 66.0375L224.194 64.7515Z" fill="white"/>
<path d="M224.194 67.2395L224.607 68.5256L223.527 67.7307H224.862L223.782 68.5256L224.194 67.2395Z" fill="white"/>
<path d="M224.194 69.7278L224.607 71.0138L223.527 70.219H224.862L223.782 71.0138L224.194 69.7278Z" fill="white"/>
<path d="M224.194 72.2161L224.607 73.5021L223.527 72.7073H224.862L223.782 73.5021L224.194 72.2161Z" fill="white"/>
</g>
<mask id="mask1_154_1353" style="mask-type:alpha" maskUnits="userSpaceOnUse" x="152" y="66" width="24" height="24">
<circle cx="163.96" cy="78.1978" r="11.5523" fill="#D9D9D9"/>
</mask>
<g mask="url(#mask1_154_1353)">
<path d="M146.632 66.6455H181.289V89.7501H146.632V66.6455Z" fill="#FF9933"/>
<path d="M146.632 74.3472H181.289V89.7503H146.632V74.3472Z" fill="white"/>
<path d="M146.632 82.0486H181.289V89.7501H146.632V82.0486Z" fill="#128807"/>
<path d="M163.96 81.2784C165.661 81.2784 167.041 79.8992 167.041 78.1978C167.041 76.4964 165.661 75.1172 163.96 75.1172C162.259 75.1172 160.879 76.4964 160.879 78.1978C160.879 79.8992 162.259 81.2784 163.96 81.2784Z" fill="#000088"/>
<path d="M163.96 80.8933C165.449 80.8933 166.656 79.6864 166.656 78.1977C166.656 76.709 165.449 75.5022 163.96 75.5022C162.471 75.5022 161.265 76.709 161.265 78.1977C161.265 79.6864 162.471 80.8933 163.96 80.8933Z" fill="white"/>
<path d="M163.96 78.7369C164.258 78.7369 164.499 78.4955 164.499 78.1978C164.499 77.9001 164.258 77.6587 163.96 77.6587C163.662 77.6587 163.421 77.9001 163.421 78.1978C163.421 78.4955 163.662 78.7369 163.96 78.7369Z" fill="#000088"/>
<path d="M166.615 78.6833C166.689 78.693 166.756 78.641 166.766 78.5672C166.776 78.4934 166.724 78.4257 166.65 78.416C166.576 78.4063 166.509 78.4583 166.499 78.5321C166.489 78.6059 166.541 78.6736 166.615 78.6833Z" fill="#000088"/>
<path d="M163.96 80.8933L164.052 79.276L163.96 78.5059L163.868 79.276L163.96 80.8933Z" fill="#000088"/>
<path d="M166.399 79.3538C166.468 79.3823 166.546 79.3497 166.575 79.2809C166.603 79.2121 166.571 79.1333 166.502 79.1048C166.433 79.0763 166.354 79.109 166.326 79.1777C166.297 79.2465 166.33 79.3253 166.399 79.3538Z" fill="#000088"/>
<path d="M163.262 80.8015L163.77 79.2632L163.88 78.4954L163.592 79.2153L163.262 80.8015Z" fill="#000088"/>
<path d="M166.016 79.9458C166.075 79.9911 166.16 79.98 166.205 79.9209C166.251 79.8619 166.24 79.7773 166.181 79.7319C166.121 79.6866 166.037 79.6978 165.992 79.7568C165.946 79.8159 165.957 79.9005 166.016 79.9458Z" fill="#000088"/>
<path d="M162.612 80.5323L163.501 79.1778L163.806 78.4647L163.341 79.0854L162.612 80.5323Z" fill="#000088"/>
<path d="M165.494 80.4182C165.539 80.4773 165.624 80.4884 165.683 80.4431C165.742 80.3978 165.753 80.3132 165.708 80.2541C165.663 80.1951 165.578 80.184 165.519 80.2293C165.46 80.2746 165.449 80.3592 165.494 80.4182Z" fill="#000088"/>
<path d="M162.054 80.1037L163.263 79.0254L163.742 78.4154L163.132 78.8947L162.054 80.1037Z" fill="#000088"/>
<path d="M164.867 80.7399C164.895 80.8086 164.974 80.8413 165.043 80.8128C165.112 80.7843 165.145 80.7055 165.116 80.6367C165.088 80.568 165.009 80.5353 164.94 80.5638C164.871 80.5923 164.839 80.6711 164.867 80.7399Z" fill="#000088"/>
<path d="M161.626 79.5457L163.072 78.8171L163.693 78.352L162.98 78.657L161.626 79.5457Z" fill="#000088"/>
<path d="M164.178 80.888C164.188 80.9618 164.255 81.0138 164.329 81.0041C164.403 80.9944 164.455 80.9267 164.445 80.8529C164.436 80.7791 164.368 80.7271 164.294 80.7368C164.22 80.7465 164.168 80.8142 164.178 80.888Z" fill="#000088"/>
<path d="M161.356 78.8957L162.942 78.5663L163.662 78.2777L162.895 78.3878L161.356 78.8957Z" fill="#000088"/>
<path d="M163.474 80.8528C163.465 80.9266 163.517 80.9943 163.59 81.0041C163.664 81.0138 163.732 80.9618 163.742 80.888C163.751 80.8142 163.699 80.7465 163.626 80.7368C163.552 80.7271 163.484 80.779 163.474 80.8528Z" fill="#000088"/>
<path d="M161.264 78.1979L162.882 78.2903L163.652 78.1979L162.882 78.1055L161.264 78.1979Z" fill="#000088"/>
<path d="M162.804 80.6366C162.775 80.7054 162.808 80.7842 162.877 80.8127C162.946 80.8412 163.024 80.8085 163.053 80.7398C163.081 80.671 163.049 80.5921 162.98 80.5637C162.911 80.5352 162.832 80.5678 162.804 80.6366Z" fill="#000088"/>
<path d="M161.356 77.5002L162.895 78.008L163.662 78.1181L162.942 77.8295L161.356 77.5002Z" fill="#000088"/>
<path d="M162.212 80.2544C162.167 80.3134 162.178 80.398 162.237 80.4433C162.296 80.4886 162.381 80.4775 162.426 80.4184C162.471 80.3594 162.46 80.2748 162.401 80.2295C162.342 80.1842 162.257 80.1953 162.212 80.2544Z" fill="#000088"/>
<path d="M161.626 76.8502L162.98 77.7389L163.693 78.0439L163.073 77.5788L161.626 76.8502Z" fill="#000088"/>
<path d="M161.739 79.732C161.68 79.7773 161.669 79.8619 161.715 79.9209C161.76 79.98 161.845 79.9911 161.904 79.9458C161.963 79.9005 161.974 79.8159 161.928 79.7568C161.883 79.6978 161.799 79.6867 161.739 79.732Z" fill="#000088"/>
<path d="M162.054 76.2919L163.132 77.5009L163.742 77.9801L163.263 77.3702L162.054 76.2919Z" fill="#000088"/>
<path d="M161.418 79.1048C161.349 79.1333 161.317 79.2121 161.345 79.2809C161.374 79.3497 161.453 79.3823 161.521 79.3538C161.59 79.3253 161.623 79.2465 161.594 79.1777C161.566 79.109 161.487 79.0763 161.418 79.1048Z" fill="#000088"/>
<path d="M162.612 75.8634L163.341 77.3102L163.806 77.931L163.501 77.2178L162.612 75.8634Z" fill="#000088"/>
<path d="M161.27 78.4159C161.196 78.4256 161.144 78.4933 161.154 78.5671C161.164 78.6409 161.231 78.6928 161.305 78.6831C161.379 78.6734 161.431 78.6057 161.421 78.5319C161.412 78.4581 161.344 78.4062 161.27 78.4159Z" fill="#000088"/>
<path d="M163.262 75.594L163.592 77.1801L163.88 77.9001L163.77 77.1323L163.262 75.594Z" fill="#000088"/>
<path d="M161.305 77.7122C161.231 77.7025 161.164 77.7545 161.154 77.8283C161.144 77.9021 161.196 77.9698 161.27 77.9795C161.344 77.9892 161.411 77.9372 161.421 77.8634C161.431 77.7896 161.379 77.7219 161.305 77.7122Z" fill="#000088"/>
<path d="M163.96 75.5022L163.868 77.1195L163.96 77.8896L164.052 77.1195L163.96 75.5022Z" fill="#000088"/>
<path d="M161.521 77.0417C161.452 77.0132 161.374 77.0458 161.345 77.1146C161.317 77.1834 161.349 77.2622 161.418 77.2907C161.487 77.3192 161.566 77.2865 161.594 77.2178C161.623 77.149 161.59 77.0702 161.521 77.0417Z" fill="#000088"/>
<path d="M164.658 75.594L164.15 77.1323L164.04 77.9002L164.328 77.1802L164.658 75.594Z" fill="#000088"/>
<path d="M161.904 76.45C161.845 76.4046 161.76 76.4158 161.715 76.4748C161.669 76.5339 161.68 76.6185 161.74 76.6638C161.799 76.7091 161.883 76.698 161.928 76.6389C161.974 76.5799 161.963 76.4953 161.904 76.45Z" fill="#000088"/>
<path d="M165.308 75.8635L164.419 77.2179L164.114 77.9311L164.579 77.3103L165.308 75.8635Z" fill="#000088"/>
<path d="M162.426 75.9773C162.381 75.9182 162.296 75.9071 162.237 75.9524C162.178 75.9977 162.167 76.0823 162.212 76.1414C162.257 76.2004 162.342 76.2116 162.401 76.1662C162.46 76.1209 162.471 76.0363 162.426 75.9773Z" fill="#000088"/>
<path d="M165.866 76.2919L164.657 77.3701L164.178 77.9801L164.788 77.5008L165.866 76.2919Z" fill="#000088"/>
<path d="M163.053 75.6559C163.024 75.5871 162.946 75.5544 162.877 75.5829C162.808 75.6114 162.775 75.6903 162.804 75.759C162.832 75.8278 162.911 75.8605 162.98 75.832C163.049 75.8035 163.081 75.7246 163.053 75.6559Z" fill="#000088"/>
<path d="M166.294 76.85L164.848 77.5786L164.227 78.0437L164.94 77.7387L166.294 76.85Z" fill="#000088"/>
<path d="M163.742 75.5077C163.732 75.4339 163.664 75.382 163.591 75.3917C163.517 75.4014 163.465 75.4691 163.475 75.5429C163.484 75.6167 163.552 75.6686 163.626 75.6589C163.7 75.6492 163.752 75.5815 163.742 75.5077Z" fill="#000088"/>
<path d="M166.564 77.5001L164.978 77.8294L164.258 78.118L165.025 78.0079L166.564 77.5001Z" fill="#000088"/>
<path d="M164.445 75.5429C164.455 75.4691 164.403 75.4014 164.329 75.3917C164.256 75.382 164.188 75.4339 164.178 75.5077C164.169 75.5815 164.22 75.6492 164.294 75.6589C164.368 75.6687 164.436 75.6167 164.445 75.5429Z" fill="#000088"/>
<path d="M166.656 78.1979L165.038 78.1055L164.268 78.1979L165.038 78.2903L166.656 78.1979Z" fill="#000088"/>
<path d="M165.116 75.7592C165.145 75.6904 165.112 75.6115 165.043 75.5831C164.974 75.5546 164.895 75.5872 164.867 75.656C164.839 75.7248 164.871 75.8036 164.94 75.8321C165.009 75.8606 165.088 75.8279 165.116 75.7592Z" fill="#000088"/>
<path d="M166.564 78.8956L165.025 78.3877L164.258 78.2777L164.978 78.5663L166.564 78.8956Z" fill="#000088"/>
<path d="M165.708 76.1414C165.753 76.0823 165.742 75.9977 165.683 75.9524C165.624 75.9071 165.539 75.9182 165.494 75.9773C165.449 76.0364 165.46 76.121 165.519 76.1663C165.578 76.2116 165.663 76.2005 165.708 76.1414Z" fill="#000088"/>
<path d="M166.294 79.5456L164.94 78.6569L164.227 78.3518L164.848 78.817L166.294 79.5456Z" fill="#000088"/>
<path d="M166.181 76.6638C166.24 76.6185 166.251 76.5339 166.205 76.4748C166.16 76.4158 166.076 76.4046 166.016 76.4499C165.957 76.4952 165.946 76.5799 165.992 76.6389C166.037 76.698 166.122 76.7091 166.181 76.6638Z" fill="#000088"/>
<path d="M165.866 80.1038L164.788 78.8948L164.178 78.4156L164.657 79.0255L165.866 80.1038Z" fill="#000088"/>
<path d="M166.502 77.291C166.571 77.2625 166.603 77.1836 166.575 77.1149C166.546 77.0461 166.467 77.0134 166.399 77.0419C166.33 77.0704 166.297 77.1493 166.326 77.218C166.354 77.2868 166.433 77.3194 166.502 77.291Z" fill="#000088"/>
<path d="M165.308 80.5324L164.579 79.0855L164.114 78.4648L164.419 79.178L165.308 80.5324Z" fill="#000088"/>
<path d="M166.65 77.9796C166.724 77.9699 166.776 77.9022 166.766 77.8284C166.756 77.7546 166.689 77.7027 166.615 77.7124C166.541 77.7221 166.489 77.7898 166.499 77.8636C166.509 77.9374 166.576 77.9894 166.65 77.9796Z" fill="#000088"/>
<path d="M164.658 80.8015L164.328 79.2154L164.04 78.4954L164.15 79.2632L164.658 80.8015Z" fill="#000088"/>
</g>
<mask id="mask2_154_1353" style="mask-type:alpha" maskUnits="userSpaceOnUse" x="92" y="61" width="24" height="24">
<circle cx="104.448" cy="73.2823" r="11.5523" fill="#D9D9D9"/>
</mask>
<g mask="url(#mask2_154_1353)">
<path d="M90.7294 60.2859H97.5886L97.8715 60.8369H111.024L111.307 60.2859H118.166V87.0006H111.307L111.024 86.4496H97.8715L97.5886 87.0006H90.7294V60.2859Z" fill="#FF0000"/>
<path d="M97.9496 66.7842H111.668V80.5026H97.9496V66.7842ZM105.066 79.4451L104.937 76.9786C104.936 76.9381 104.943 76.8976 104.959 76.8602C104.974 76.8228 104.998 76.7895 105.029 76.7626C105.059 76.7357 105.095 76.716 105.134 76.7049C105.174 76.6939 105.215 76.6917 105.255 76.6986L107.71 77.1301L107.378 76.2156C107.365 76.1792 107.363 76.1395 107.373 76.1021C107.383 76.0647 107.405 76.0314 107.435 76.0069L110.125 73.8291L109.519 73.5462C109.478 73.5269 109.445 73.4932 109.427 73.4517C109.41 73.4101 109.407 73.3634 109.422 73.3204L109.953 71.6856L108.404 72.0143C108.362 72.0231 108.318 72.017 108.28 71.9972C108.242 71.9774 108.212 71.9451 108.195 71.9057L107.895 71.1998L106.686 72.4973C106.659 72.5265 106.622 72.5459 106.583 72.5526C106.543 72.5594 106.503 72.5531 106.467 72.5348C106.431 72.5164 106.402 72.487 106.385 72.4508C106.367 72.4147 106.362 72.3739 106.369 72.3344L106.952 69.3278L106.018 69.868C105.996 69.8808 105.971 69.889 105.946 69.8921C105.921 69.8952 105.895 69.893 105.871 69.8858C105.847 69.8785 105.824 69.8664 105.804 69.85C105.785 69.8337 105.769 69.8135 105.758 69.7908L104.809 67.9274L103.86 69.7908C103.849 69.8135 103.833 69.8337 103.813 69.85C103.794 69.8664 103.771 69.8785 103.747 69.8858C103.722 69.893 103.697 69.8952 103.671 69.8921C103.646 69.889 103.622 69.8808 103.6 69.868L102.665 69.3278L103.248 72.3344C103.256 72.3739 103.25 72.4147 103.233 72.4508C103.215 72.487 103.186 72.5164 103.151 72.5348C103.115 72.5531 103.074 72.5594 103.035 72.5526C102.995 72.5459 102.959 72.5265 102.931 72.4973L101.722 71.1998L101.422 71.9057C101.405 71.9451 101.375 71.9774 101.337 71.9972C101.299 72.017 101.255 72.0231 101.213 72.0143L99.6644 71.6856L100.196 73.3204C100.21 73.3634 100.208 73.4101 100.19 73.4517C100.172 73.4932 100.14 73.5269 100.099 73.5462L99.4929 73.8291L102.182 76.0069C102.212 76.0314 102.234 76.0647 102.244 76.1021C102.255 76.1395 102.253 76.1792 102.239 76.2156L101.908 77.1301L104.363 76.6986C104.403 76.6917 104.444 76.6939 104.483 76.7049C104.522 76.716 104.558 76.7357 104.589 76.7626C104.619 76.7895 104.643 76.8228 104.659 76.8602C104.675 76.8976 104.682 76.9381 104.68 76.9786L104.552 79.4451H105.066Z" fill="white"/>
<path d="M97.9496 53.0657H111.668V53.7877V66.7841H97.9496V53.7877V53.0657ZM105.066 65.7266L104.937 63.2601C104.936 63.2196 104.943 63.1791 104.959 63.1417C104.974 63.1043 104.998 63.071 105.029 63.0441C105.059 63.0172 105.095 62.9975 105.134 62.9864C105.174 62.9754 105.215 62.9732 105.255 62.9801L107.71 63.4116L107.378 62.4971C107.365 62.4607 107.363 62.421 107.373 62.3836C107.383 62.3461 107.405 62.3129 107.435 62.2884L110.125 60.1106L109.519 59.8277C109.478 59.8084 109.445 59.7747 109.427 59.7332C109.41 59.6916 109.407 59.6449 109.422 59.6019L109.953 57.9671L108.404 58.2958C108.362 58.3046 108.318 58.2985 108.28 58.2787C108.242 58.2589 108.212 58.2266 108.195 58.1872L107.895 57.4813L106.686 58.7788C106.659 58.808 106.622 58.8274 106.583 58.8341C106.543 58.8409 106.503 58.8346 106.467 58.8162C106.431 58.7979 106.402 58.7685 106.385 58.7323C106.367 58.6962 106.362 58.6554 106.369 58.6159L106.952 55.6093L106.018 56.1495C105.996 56.1623 105.971 56.1705 105.946 56.1736C105.921 56.1767 105.895 56.1745 105.871 56.1673C105.847 56.16 105.824 56.1479 105.804 56.1315C105.785 56.1152 105.769 56.095 105.758 56.0723L104.809 54.2089L103.86 56.0723C103.849 56.095 103.833 56.1152 103.813 56.1315C103.794 56.1479 103.771 56.16 103.747 56.1673C103.722 56.1745 103.697 56.1767 103.671 56.1736C103.646 56.1705 103.622 56.1623 103.6 56.1495L102.665 55.6093L103.248 58.6159C103.256 58.6554 103.25 58.6962 103.233 58.7323C103.215 58.7685 103.186 58.7979 103.151 58.8162C103.115 58.8346 103.074 58.8409 103.035 58.8341C102.995 58.8274 102.959 58.808 102.931 58.7788L101.722 57.4813L101.422 58.1872C101.405 58.2266 101.375 58.2589 101.337 58.2787C101.299 58.2985 101.255 58.3046 101.213 58.2958L99.6644 57.9671L100.196 59.6019C100.21 59.6449 100.208 59.6916 100.19 59.7332C100.172 59.7747 100.14 59.8084 100.099 59.8277L99.4929 60.1106L102.182 62.2884C102.212 62.3129 102.234 62.3461 102.244 62.3836C102.255 62.421 102.253 62.4607 102.239 62.4971L101.908 63.4116L104.363 62.9801C104.403 62.9732 104.444 62.9754 104.483 62.9864C104.522 62.9975 104.558 63.0172 104.589 63.0441C104.619 63.071 104.643 63.1043 104.659 63.1417C104.675 63.1791 104.682 63.2196 104.68 63.2601L104.552 65.7266H105.066Z" fill="white"/>
<path d="M97.9496 79.7805H111.668V80.5025V93.4989H97.9496V80.5025V79.7805ZM105.066 92.4414L104.937 89.975C104.936 89.9344 104.943 89.894 104.959 89.8566C104.974 89.8192 104.998 89.7858 105.029 89.759C105.059 89.7321 105.095 89.7124 105.134 89.7013C105.174 89.6902 105.215 89.688 105.255 89.6949L107.71 90.1265L107.378 89.2119C107.365 89.1755 107.363 89.1358 107.373 89.0984C107.383 89.061 107.405 89.0277 107.435 89.0033L110.125 86.8255L109.519 86.5425C109.478 86.5232 109.445 86.4896 109.427 86.448C109.41 86.4064 109.407 86.3598 109.422 86.3168L109.953 84.682L108.404 85.0106C108.362 85.0194 108.318 85.0134 108.28 84.9936C108.242 84.9738 108.212 84.9414 108.195 84.902L107.895 84.1961L106.686 85.4937C106.659 85.5228 106.622 85.5422 106.583 85.549C106.543 85.5557 106.503 85.5494 106.467 85.5311C106.431 85.5127 106.402 85.4833 106.385 85.4472C106.367 85.4111 106.362 85.3702 106.369 85.3307L106.952 82.3241L106.018 82.8643C105.996 82.8772 105.971 82.8854 105.946 82.8884C105.921 82.8915 105.895 82.8894 105.871 82.8821C105.847 82.8749 105.824 82.8627 105.804 82.8464C105.785 82.83 105.769 82.8099 105.758 82.7871L104.809 80.9237L103.86 82.7871C103.849 82.8099 103.833 82.83 103.813 82.8464C103.794 82.8627 103.771 82.8749 103.747 82.8821C103.722 82.8894 103.697 82.8915 103.671 82.8884C103.646 82.8854 103.622 82.8772 103.6 82.8643L102.665 82.3241L103.248 85.3307C103.256 85.3702 103.25 85.4111 103.233 85.4472C103.215 85.4833 103.186 85.5127 103.151 85.5311C103.115 85.5494 103.074 85.5557 103.035 85.549C102.995 85.5422 102.959 85.5228 102.931 85.4937L101.722 84.1961L101.422 84.902C101.405 84.9414 101.375 84.9738 101.337 84.9936C101.299 85.0134 101.255 85.0194 101.213 85.0106L99.6644 84.682L100.196 86.3168C100.21 86.3598 100.208 86.4064 100.19 86.448C100.172 86.4896 100.14 86.5232 100.099 86.5425L99.4929 86.8255L102.182 89.0033C102.212 89.0277 102.234 89.061 102.244 89.0984C102.255 89.1358 102.253 89.1755 102.239 89.2119L101.908 90.1265L104.363 89.6949C104.403 89.688 104.444 89.6902 104.483 89.7013C104.522 89.7124 104.558 89.7321 104.589 89.759C104.619 89.7858 104.643 89.8192 104.659 89.8566C104.675 89.894 104.682 89.9344 104.68 89.975L104.552 92.4414H105.066Z" fill="white"/>
<rect x="101.56" y="61.0078" width="6.49818" height="5.05414" fill="white"/>
<rect x="101.56" y="80.5024" width="6.49818" height="5.05414" fill="white"/>
</g>
<defs>
<linearGradient id="paint0_linear_154_1353" x1="14.8672" y1="38" x2="314.867" y2="38" gradientUnits="userSpaceOnUse">
<stop stop-color="white" stop-opacity="0"/>
<stop offset="0.259209" stop-color="white"/>
<stop offset="0.727435" stop-color="white"/>
<stop offset="1" stop-color="white" stop-opacity="0"/>
</linearGradient>
<linearGradient id="paint1_linear_154_1353" x1="-1.00001" y1="-5.99996" x2="323.133" y2="63.8624" gradientUnits="userSpaceOnUse">
<stop stop-color="#853139" stop-opacity="0.97"/>
<stop offset="1" stop-color="#BE6C35"/>
</linearGradient>
<linearGradient id="paint2_linear_154_1353" x1="-1.00001" y1="-5.99996" x2="323.133" y2="63.8624" gradientUnits="userSpaceOnUse">
<stop stop-color="#853139" stop-opacity="0.97"/>
<stop offset="1" stop-color="#BE6C35"/>
</linearGradient>
<linearGradient id="paint3_linear_154_1353" x1="-1.00001" y1="-5.99996" x2="323.133" y2="63.8624" gradientUnits="userSpaceOnUse">
<stop stop-color="#853139" stop-opacity="0.97"/>
<stop offset="1" stop-color="#BE6C35"/>
</linearGradient>
<linearGradient id="paint4_linear_154_1353" x1="-1.00001" y1="-5.99996" x2="323.133" y2="63.8624" gradientUnits="userSpaceOnUse">
<stop stop-color="#853139" stop-opacity="0.97"/>
<stop offset="1" stop-color="#BE6C35"/>
</linearGradient>
<linearGradient id="paint5_linear_154_1353" x1="-1.00001" y1="-5.99996" x2="323.133" y2="63.8624" gradientUnits="userSpaceOnUse">
<stop stop-color="#853139" stop-opacity="0.97"/>
<stop offset="1" stop-color="#BE6C35"/>
</linearGradient>
<linearGradient id="paint6_linear_154_1353" x1="-1.00001" y1="-5.99996" x2="323.133" y2="63.8624" gradientUnits="userSpaceOnUse">
<stop stop-color="#853139" stop-opacity="0.97"/>
<stop offset="1" stop-color="#BE6C35"/>
</linearGradient>
<linearGradient id="paint7_linear_154_1353" x1="-1.00001" y1="-5.99996" x2="323.133" y2="63.8624" gradientUnits="userSpaceOnUse">
<stop stop-color="#853139" stop-opacity="0.97"/>
<stop offset="1" stop-color="#BE6C35"/>
</linearGradient>
<linearGradient id="paint8_linear_154_1353" x1="-1.00001" y1="-5.99996" x2="323.133" y2="63.8624" gradientUnits="userSpaceOnUse">
<stop stop-color="#853139" stop-opacity="0.97"/>
<stop offset="1" stop-color="#BE6C35"/>
</linearGradient>
<linearGradient id="paint9_linear_154_1353" x1="-1.00001" y1="-5.99996" x2="323.133" y2="63.8624" gradientUnits="userSpaceOnUse">
<stop stop-color="#853139" stop-opacity="0.97"/>
<stop offset="1" stop-color="#BE6C35"/>
</linearGradient>
<linearGradient id="paint10_linear_154_1353" x1="-1.00001" y1="-5.99996" x2="323.133" y2="63.8624" gradientUnits="userSpaceOnUse">
<stop stop-color="#853139" stop-opacity="0.97"/>
<stop offset="1" stop-color="#BE6C35"/>
</linearGradient>
<linearGradient id="paint11_linear_154_1353" x1="-1.00001" y1="-5.99996" x2="323.133" y2="63.8624" gradientUnits="userSpaceOnUse">
<stop stop-color="#853139" stop-opacity="0.97"/>
<stop offset="1" stop-color="#BE6C35"/>
</linearGradient>
<linearGradient id="paint12_linear_154_1353" x1="-1.00001" y1="-5.99996" x2="323.133" y2="63.8624" gradientUnits="userSpaceOnUse">
<stop stop-color="#853139" stop-opacity="0.97"/>
<stop offset="1" stop-color="#BE6C35"/>
</linearGradient>
<linearGradient id="paint13_linear_154_1353" x1="-1.00001" y1="-5.99996" x2="323.133" y2="63.8624" gradientUnits="userSpaceOnUse">
<stop stop-color="#853139" stop-opacity="0.97"/>
<stop offset="1" stop-color="#BE6C35"/>
</linearGradient>
</defs>
</svg>
